/* XPM */
static char *result[] = {
/* columns rows colors chars-per-pixel */
"64 64 29 1 ",
"  c #0A0C0E",
". c #0C0E10",
"X c #0E1113",
"o c #111416",
"O c #1B1917",
"+ c #131619",
"@ c #161A1C",
"# c #191C1E",
"$ c #22211F",
"% c #1A1E21",
"& c #1D2225",
"* c #1F2528",
"= c #252423",
"- c #292623",
"; c #272826",
": c #2C2825",
"> c #212629",
", c #242A2D",
"< c #302B26",
"1 c #262D31",
"2 c #282F33",
"3 c #2A3136",
"4 c #2D3439",
"5 c #2F383D",
"6 c #30373D",
"7 c #31393E",
"8 c #343C42",
"9 c #374146",
"0 c #364148",
/* pixels */
".. ...   .       ..........................   ............... ..",
".###%#%&&&&%&&23o@..  oo2112.o=%=>$%$$....O+$$=&+@  oo%%%%%%%%%.",
" #%#%#%%&&&&#&22@@..  oo2222oo%$**$=$$....o@=$&&++  o.*&%%%%%%%.",
".&%%%%@%++++&%,,%%.o   ...  ..  **$$$=$-$-$$#%%%%@  . oo%%%%%%@.",
" &%%%&%#++++&%,,%%..  ...X...X  >*$$$$====$-%##%#%    +o%%%%%%% ",
" %#@    .X  X+....XX . ....  .  >>==%%--%%#%=$=$%%  . oXX.    ..",
".##%   .X.  X+.. .XX  .  . . .  >*==%O--%%%@#=&$%&. ......    ..",
" &  ++XXXXXXXX..XXXX++X+XoXX..  @@>=$$$$--===$##%% .  ++o% .....",
".%  ++XX....XX .....++XXoX....  @@**=$-$--==-=#&%%  . oo+%......",
"..Xo@+>>3333>>,,%@@@@+433322*,....*&$$==;=++O+++%&oo  ++%+.X....",
"..oo+O>;3233>>,,@@+o@+433422*,....*%=$;>==@++++@&&oo  +++% X....",
"..ooooXX++oo$$%%>>,,,,##%%**11.o..**%%%%=;..46++*>%%  o.%%......",
"..oooooX++++==%%>>,,>,%#%%**11Xo.X*&%%%%=;..55@+*=%%...X%$......",
"..33XoXX55oo;$$$#%%%%#&%%%%%23oo..&%&&&&**..  ++%%%%XX..%@oo ...",
". 22XoX.55oo$;=$%%%#%&&##&%#23Xo. &%&&&=**..  +@%%%%.XX.@@oo  ..",
".X33;$@@+O@@;;$;$$&&%#%#&#&#33&&..%%*>%%,*&&&*%%>%%* ...XXXX  ..",
".X13;;@@@@@@$;$<$$#&#%%%%&$#33&&..%%>>*%,>%**&%%&&%%    XXoX  .X",
".3&&$$;;&*&>::::%$%&%&%%%%%%13&&XX..%>%>%***&&&%%% .XXXXX   X . ",
".3&&;$;$>**&---$%%%%%%&%%&%%33&&XX..>%>%%*=%%&%&%%  XXXX    ....",
".3#%%&$:-$=-$;$:&%&%&&#&%&%%%%&&o+..%%%%%%@@+@. ....XXXX**X...X.",
"X3#%%%$<;$-$=$--#&&%##&%&%%%%%&&XXX.%%%%%%%%++......X.X.&&XX....",
"X#33%%&%==$;=;$=&%%=&&#&%%%&&%33@%@@++..... oooo++##434448XX  X.",
" %33%%%%$==$=$==%&&#&#&%&&%%%%33@@@@++.. .  XXXoX+++334484XX .+.",
" o%%33$&%%&&=;==&%%&%&&%,<,2%%,>,,>&>%,>33647833334411&&23 .  +.",
"Xo&&43&&&&#&====%%&%&%%%11,1&&>>1,=&&&**32855633225412&&23 .  + ",
"  X.@+33&%=&%&==%&%&%%,,&&%%&*&%224322,111*>>,&%*&,*&&**48 .X +X",
"..X.@@44%&$=&%-$&%&&&&,,*&%%&*&&324423,,21,,,>%%**,,&&*,88 .X o.",
".@..X +o11&&%&;;&&&%-;++@@@@##;;%&%%%%&%%%%%%%&%,,%%+o@o34 .X %.",
".@....+o13&%&%;$%&&&$;++#@OO&#;;%%%&&%&&%&&%%*%%>,&%+@+@44  XX% ",
".#@@ .+o11%%%&-$&%%&;$++XX77+X<:&&&&&&&%&&&$&%=*;;@+58@+11XXXo+ ",
".@@@..+o13&&&%;;&&%%--X+XX77++<:%&&%&%&%%&>%%*&%;;@@88+@11XXoX@ ",
".3@%ooXX33%&&&%&&%&&-=&$&%$$@@>;%&&%&&&&&&%&&%%%;;@++%***,X+XX@ ",
".3@#XXX.33%%&%%&&&%&==$$$$$$@@=&&&&&%&&%&&&%&&&%;:@+@@>>,,.+..%.",
".3@#o+XX33&&&&&&%&&&&&&&--::==&&&&&%&&&=&&&&&&&&:$;-::-=>>+@XX+.",
".3#%+XXX33&&&&&&&&&&&&&&=---=>&&&&&&&&&&&&%&&&&&<:;;::-->>@+X.@.",
".3@@..+X12%&&&=-&&&%&&&%&&&&&&%&&&&&%&&&&&&&%&&%$-<$=;-;++....@.",
".4@@..++11#=&&;-%&&&&&&&&&&&&&&&&&&&&&&&&&&&&&&&--::--;;++.X..%.",
".&+@ .XX1,&&&&-;&&&%&&&&&&&&&&&&&&&&&&&&&&&&&&&&-;::==........X.",
"X&+@..XX2,&&&&;;&&&&&&&&&&&&&&&&&&&&&&&&&&&&&&&&;;:<$=.+......+.",
" #@+..++43&%&&&&&&&&&&&&&&&&&&&&%&&%=&&&&=&&&&;;;-.X ...o%23....",
"X@++X.XX44&&&&&&&&&&&*&&&&&&&&&&=&&&*&&=*&&&&&;;;,XX....+o22....",
"X+X   4444>>&&&&&&*=&&&&&&&&&&&%*&&&&&&&&&&&<:$-  ....1142,1@@..",
" @XXX 3134>>&&*&&&&&&>&&&&&&&&&&*=&&&&&&*&*&<<;>..... 113411+%..",
".X  3313%#&%&=&&*&&&&&&&&&&&@@%&&&&*&&&&&&&&OO  X.4333,,%%%*33X.",
"Xo  4333%%%&*&&**&&&&&&&*&&&@+&&&&&&*&&**&**$OX ..3434,,%*%*34o.",
" .@+55X+oo@+%%,,&&&&::;;&&&&&&&&&**&&*&*<:OO.X..43&&@@#%%%>%*%3.",
"X @@55+@oooo%%,,&*&&;-;;&&&&&&&&&&*&&=*=<<OOXX  43&*@#%%%%>*>%3.",
"  11&&oX@@99%@**&&&&@%oo&@%&@+&&*&&*>&>;OOo+. 34&&*&@@88@%%*=&4.",
"X 11&*XX@+89##**=*&&@@++#$%%@%**&*&&*&;;O#oo  38&&=*@+99@@=*&&4X",
" .43&*X++X++++>>&>&&&&*>+@X Xo*&>&***&=>;,.X. &*&&*&#@@@@@&>*&&.",
"X.44&=X+XX++#+>,*&&**&&&@+X oo&&&=*=*&&&;; XX **&*&*@@####&&&*&.",
" X11&&&&&&@#&&&&&&*&&***@%++*&&*&*&>&>>&*=** XXX**=&#+@@&*&*>*&.",
".X11&&&&%%@@&*&>*&***&&&#@oo**&&*&&=&*&&*=**..o.*&&>+@@@****&>&.",
"XX%@*&&*&&%%**>&&&***&%%Xo***********&*>*&**oo. **21=>*&**&=>&>.",
".X%&*&**%%&%>&&>***&**&%oX***************&*>o+. *&11*&&*&***&>&.",
" X++##@@%@##@@@@@@@%++..oXooo@ XXXXX.XXX++XXX.... 3113,,,,%%++>.",
"..++%@@%@#@%@%@@@@&@++Xoo++++@XXXXXXXXXXoo.X.X  ..3,33>,,,%%@@&X",
".X.. ...................   .XX+@#@####@@#@%@%%%+.X@+**%%o++@&&&.",
".. ... ..X X. ..X X X....   X.@+@#+@++@@@@+#+%++X.@+,*%%o+++&*>.",
".X%@@%%+@#@@%+%% XXX.XX.oo##**33550099008800%%oX+@@+oooo@@%%,,=.",
"..%%%@%%%+%@%%+% XXX.X Xoo@@**33579957008780&&XX##++@ooo+@%%,,>X",
".X+o+++@%%%%+@++@%XXXX++%%%&%%&#%%43>:&&;:<<,,++XXXXXX@@,,,,**&X",
".X++++@@%%%%+%++%@X...oo%%%%%#%%%%33::**;;<:,,++XXXXXX@+**,,>&*X",
"....      .  .. .. ...X  X  .....X........X. X..X X .....X..... "
};
