/* XPM */
static char *result[] = {
/* columns rows colors chars-per-pixel */
"64 64 25 1 ",
"  c #070709",
". c #07090A",
"X c #090B0D",
"o c #0C0E10",
"O c #0E1113",
"+ c #111415",
"@ c #181716",
"# c #191817",
"$ c #131718",
"% c #161A1B",
"& c #1A1C1D",
"* c #221E1B",
"= c #24211E",
"- c #1A1E21",
"; c #1C2224",
": c #1F2529",
"> c #242322",
", c #292521",
"< c #212629",
"1 c #23292D",
"2 c #262C31",
"3 c #282F33",
"4 c #2A3135",
"5 c #2E3539",
"6 c #30383B",
/* pixels */
"oXooOXOXooooooooOoooooXooooooooooooooooooooooooooooooooooooooooo",
"o==&&;>.X..oo++&%##$$$$$$$$##$$$$$$OO$$$$+$$$$$$#OooXXX..oX++%Xo",
"X==>*>>XX..oo+O&%##$$$$$$$$##%$$$$$OO#$$$%$%$$$$%oooo...Xoo+#%OX",
"ooo.X.XXXXXoo+O&&+$$$$$$$$%##$$$$$#++$$$$$$$$%%ooo...oo..oo+o%XO",
"oooXXXXXXXXoo++&%$$$$$%$$#+##%$$#$$$+$$$$$$$$%%oo..o.oo..oo++%oo",
"o....X.....OO++&-$$%%-%%%$%&#$$$$%$$$$%$$$$+$oooo$%%%oo..o.X.ooo",
"o.  .   ...OOO+&%$$%%-%&%%%&&%#$$$$$$%$$$$$++oooo%%%%o+o.ooooooo",
"o;;-;::OO..OO$$&--%%&O+.X%%$+#%#$$$$$$$&&++$$%&&&%%%&+o....oX.oo",
"X;---;:OO..OO$+&%%---++XX%%$$#%$$%$$$$$%-++$+%&&%%%&%O+..o.Xo.oo",
"X1<%%;;oOX.OO+$&-XX..XX:;oo--#*$$$%#$$%$$&&%&$$$%%%&&o+XXoOO+Ooo",
"O11&%:;OOX.OO$$&%XXX..X::oo--##%$$$%%#$$$&&-&$%+$$#%&OO.XOOOOOoo",
"XX.O+-;OO.XOOXX$$--;;;;%%oXOo--$%$$%%$+&#$$%$*&**&&-%OOX.OoOO&oo",
"OXX+O;;O+..OOXX$$--;;;-&-XXOO--%$#$%$++&&%%$%*****#-%O+..OOOO&Oo",
"X&$+OOoOO....;;::%%%%$$$$::..-%$%%%$%%#&#%$%$OO++##--OOXXOOOO&oo",
"o$%+OOOO+ .. :;::&&%&$%#$::..--%%$%%$#%&&%$$$OO++#&--O+X.+O++&oo",
"o&&.o.XOO>:::--%$$#O++O+O-&>;..-&%%$%$$%%%%%#Oo11##%#OO..O+++%oo",
"o&&... OO::<<-;%%@@O++O$O--;:..%%#%%%$%%%%$%%Xo12##%%+O..+O$O;XX",
"o..2222;;$%$+%@#&@&OO21oo%#;;..--$%%#%%$%$%%%OOOO&&&%O+..+O&&%XO",
"oX.1112->$$$%@$&###$$12oo%%;:..--%%%%%%%%$%%%oOO+-&%%++..OO&;%OX",
"o---&--&#***&%%&*@@OOOOOO&&%-%%..+$%%%%%%%%-%-%;&%%++++..OO;;%XO",
"o--&---&&**&&%%&*##+$OO+O#&%&%%..+$%%%%$%%$-&;&;-%%++++..Oo;;$oo",
"o$&*&oX+o++##%%$%#&#@oo@@#**&::..%%%%----&-%%OOOO++++++..OO;&%oo",
"o&%**o+O+++##&%@$&&##Xo@+**&*;:..$$%%---%&&%$++++++$O++..OO;;%oo",
"o%&*&+X22++##$%$$&%*#==****%#----..++O+++O+++XXX.....oo.XOO;&$oo",
"o%-&*oo22++&#&#$+&$&&===**=$$----..++++++++++.XX.XXX.ooX.OO;;%Oo",
"o;-&&oOoOoO##&&&&++&%%&$$%&$%*&::.XX.X..X..XoXXXXOOoO++.oOO:;%oo",
"X;;&&oOOOXo&#&&%&++&%%%%%%%%%-*::........XXXXXXXXOOoo+$XXOO::$oo",
"o;;&&*&&&*&&*&*%$$$$$&%%%%%%%***=;;..21-&:;::11::Xo..OoXXO$::%oX",
"o:;--&&****&*&&%&$$$$%%%&%%%%==*&;;..21-&::::11::XXXXOOXXOO::%oo",
"XOo&&&*&*&&%%&&%&$%OO%%$$%%%%%#-#;;11..::$$$+%$$#;;XXooXo$O<<&oo",
"oOO-&&*&&&*%%&%%$%$O$%%$$%$&&&%-*-;::..::$%+$$$$$>;XXoooXOO1:@oo",
"oX.--&=****%&%%&%%%$OOOOO%%%%%%&&-&1:..::>>$+44+$::XoXXX.$O;;:oo",
"O..&&->-=-*%%%%%%--++oooo%%-%%%%&%%:1..::>=$$44$$:<oO.oX.+O:::Xo",
"o.XoX&&%%%%*;&%--++++oo-&-%%-%--%;&;;::..1:$$OO$O::OOooXX$$::.oo",
"o.XXX;;%&%%;=%%%$++++oo-&%%%%%&%%&;&&::.X::$$O$$$:<OOXoXX$%:<.oo",
"XOO..&;%%&&%%%-%$-%%-$++o--%%-%-;OO$$22..21*-====:1OOOOXXXoX.<oo",
"oXO.X;;%&%%%%%-%-$%-%+$++%-%%-%--OO$$22..:2&>====<:+$oOXXooXX1oo",
"o&%XXX.%;%&&&&%&%-&%%%%Oo-%&%%&OO44$O;;;;..;;%&==&&%%XXXoXXOo&oo",
"o%%XXoX&&&%;%%%%&$&&-$%o+$$-%--OO44$+::;;.X;;%&==--%%XXOoXXOO%oo",
"o%%XXX.;;%&-*;:-----%--%%++%-%-OOOOOO&%&;XX;;%&==-&&&XOXXoo22&oo",
"o$%.oXX;-%-**;;;-----&-$%++--%-oOOOOO%%;;XX;:%%=;%%;;XoXXoX22%oo",
"oXXooXXoX;-;>$$$$$+$+-$--oo%$-&%&&&%$;;X..X::%&-*::$+Xoo.>;12&oo",
"ooooooXOo--;;$$$$$$$$%---oO%%&--%%;$$;;.XX.::%%>-::$$Xo..;-41&oo",
"oXXooXoX.;;--oo44+O-$-%&-oO+O-%$$;;.XXX:<<<-&&&%&::%%Xo.X--12&oo",
"oXXXXoooX;;-;oO44OO%-&-&-ooOO--+$;;.XX.::::%--&;&::%%oooX;;:2%OX",
"o11XXXXXX..--OOoOOO%$--$%O+ooXoXXOO:;-;;%&&-&-%&&42$$oo.X%%44;oO",
"o11.X.XXXX.--oOOOOO%%-&$$++ooXXXXOO;:;;%--&&%&&&%24$$OOXX%%44:oo",
"o--2211%$X.;-----%%%%$%.oXX$$<<<;;%;%;&%---;:;;;;24$%ooXX$$211oo",
"o--21:1$-..------&$%%$$oXoX$+::-:&-%-%-%%;;;;;;;;24$%XOXX$+333oo",
"o&&&-;:11$-XX---;X.oXXX++----%-%%-&-;-;-;-%$$$O;;:1;-OOXXooooooo",
"o--&-::11$-.X;--;XoX..oO+---------%;-%;;;%-O$$$;;11&;XOoXooOOooo",
"o$$$$:;11$+oX;-oXoo-;;;-------%-%;;;;%%XXXXOOXX$OoXOoOOXoooXXXoo",
"o$$%$:;:1%%Xo-;XXoo-------------;;;&%--XOOXOOXXO$ooooOOXXXoXoXoo",
"o45++%-;-XoXXXX11<:----O+++-------;-;XX$OOOOOOOOOooOOOo$$++++Ooo",
"o55++-$::XXoXX.1:<<----+++$-----;&&;;Xo$$OOOoooOOXoOOXO++O+++ooo",
"oOO$+--:1XXXX1;11&---%$oo55+o----;-XOOO$$::4444::22%-$$-%54443oo",
"o++++--11XXXX::11&-&-$$oo55++--;--;XoO$$$:14444::12%-$+&%55442oo",
"o$$--$$XXooooOo:<22--$%oooo++---;%%Oo$$+$OO$$$$>>--<::111%-%-:oo",
"o$---$$XoooooOO1132--+%oooo$$---;%-oo+++$OO%$$$=>&-::1111----:oo",
"X-$++XXoo++22oooo$$22::<1--------Xooo43+OOO65$$:>>>----&------oo",
"o$%+ooo.o++22oooo%%11<<<:-----;;;ooOX33+OOo55$$>>>>------;----Oo",
"oXXoooo--<:2334$$oooo223322;:--X.OO++34:>-%%$$%>>>>>>--;------oo",
"ooooooo-$>:4333$$oooo323322-;;-oooOOO43<>%&$%%&>,,=,>-;-------oo",
"oooooooooooooooooooooooooooooooooooooooooooooooooooooooooooooooo"
};
