/* XPM */
static char *result[] = {
/* columns rows colors chars-per-pixel */
"64 64 38 1 ",
"  c #070B0E",
". c #0A0D0F",
"X c #0C0E11",
"o c #0E1114",
"O c #111416",
"+ c #181513",
"@ c #121619",
"# c #161A1D",
"$ c #181C1F",
"% c #231C17",
"& c #211E1C",
"* c #22201E",
"= c #171D20",
"- c #191E21",
"; c #1E2225",
": c #1F2528",
"> c #252523",
", c #292725",
"< c #2A2926",
"1 c #212629",
"2 c #232A2D",
"3 c #2C2B29",
"4 c #332D27",
"5 c #332E29",
"6 c #30302E",
"7 c #39312A",
"8 c #262D31",
"9 c #282F33",
"0 c #273033",
"q c #2A3135",
"w c #2D353A",
"e c #2F383D",
"r c #30373E",
"t c #30393D",
"y c #333C41",
"u c #374145",
"i c #394247",
"p c #3B444A",
/* pixels */
"X..X.XX.X.o..XX..X...XXXXXXXXXXXXXXXXXXX.XXXXX...X.XXXXXX.XXX..X",
"X;;;-;>->1##$#22;;;;;;;&O@;-qq$=oOoXqq-*;;-;-;;;,>&>**&*##>>;;;X",
".;;--;;;;;#$1;;;-;;;;-##yyOO99#=Ooooqw;;-;;;;;;;;;;;,,<,>>;;;;;.",
".-;;;;-;;;#$11;;;;;;;;##yyO@99$=O@oowq-;;;;;;;;-;;;;,*<,>>;;;;;X",
"X>-;;-::;;;;-;;;;;;-;;oOOO@@qw##.X@o38-;;;>,;;->-;;;;-*;-;;;;;; ",
".;;;;;:::;;;;;;*-&;;;;OOOo@+qw##XX@O88-;-;>>;;;-;;-;;;;;;*;;;*;.",
".;;;;;:1#=;;;;;;;;;;;;-#--;:;;@#XXoo82;;;;>2;;-1-;;;;;-;;;;;;;;.",
"X;;;;*::#--;;-;;;;-;-;=---::;;##XXOX88-;>-,,;-1-;;;;;;;;;;;;;;;X",
".;;;12=-;;;;;;;;;;;;;;;;:22:##@@XX@oww-;;;;;;;;1;;>;>;;;;;;;;;;.",
".;;;22-#;;*;;;;;;;;;;;;;2:22#=#@XX@Oww-1;;;;-;1--;;;-;;;;;;;;;>.",
".;;;$$;;;;;;;;;;;;;;;;:12:28@@XXX.99ww11;;;;;;;;;;;;;;;;=-;-;;;.",
".;;;$;;;;;;;;;;;;;;-;;112289@@XXX.w9ww12;;;;;>;1;1:;;;;;-;;;;;:X",
".;11:;;;;;;;;;;;;;;11-99-:@@o@XXw999$$--;;;;;;1-;;;;;;-;##;-;;;X",
"X1:>:>;;;;;;;;;;;:;;--99:-@#@OX ww99$;;;1;;;->;;;;:;:;;-#@;;;;;X",
"X1;;;:;;;;>;;;;;-11-8888Xo@#XX#@rrOOOO@O--221;1;,,,,;;;:;;;;;::.",
"X1;;;:;;;;;;;;;;:1--2299oo@=XX#@rrO#OO@#--22;;-1,<><:;;:#;;;:>;X",
"X;;;;;;;;;;;;:;;;;1288OO@#XXXX82;;XO##yi==:;::--##o@-$;;##::::;.",
"X;:;;>;:;;:;;;;;;;1288OO#@XXX.82;>OO+#iy--:;>:-;##@@#-;###;;;;>X",
"X;;;;;:;:;;::1;>229q22##OOXXXXy9;;OOOo@OO@:2;;;:;:::@#Xo@@;;:::.",
"X;1;:;:;;;:>;;;;219q22##O@oXoX9y;;ooOo@O#@22;;;;:;;;@#ooOo;;;;:X",
".;;:;;;;;:;;;;229999OO#OXXoOOo88;;;;---$;;;;:::;;:1;$#OO;;;;;>:.",
".;:>>:;::>;::;229989O###XXOXOo99;1;;;-$$:>;1;1:>;:;1#$OO:;;;1;:.",
"X1:;;::;:;;:;;:;,,=-OoXXXoXXOO$#;1;:;---;11;:&;;1;-$OO;;;;:>;::.",
".>;;:>;1;;:>;:;;,,--ooXXoXoXOO$$1;1;-;--;;1;:;:;;1$-oo::::;1111.",
".;;1=;;:;;1;;:,<;*=#XooooXXXoX#+###=##=######@#=@@XoOOOO#O.Xooo.",
"o:;;;;:;:;;:;:<<>>#=ooooXoXXoo##$=#=#=-#===#====##ooOOOO##ooooo.",
".;1;;#<<:;1;::3<#$XoooooooXXoXXXXXXXXX.XXXXX.XXX..XXX.XXoo##===.",
"X:;1=;<<;1;1::<<--ooooXXoXXXXXXXXXXXXXXXXXXXXXoXXoXoXXXXXoOO###o",
"X7==<<<<:;::><**XooooX=##&##XX$$###==#-#=#==XooooXXXOO##1:wqeyyX",
".4==<<<<::::<<>>XOoooo####-#oX###-#==#-#####XXXXoXXooo#=::qqeeuX",
"X%*=<<**>><<45@#XXXX@@##OO##Xo##@@#@;$--####==ooXoO@;$$$-$;$;=w.",
".%;#<<**>><<45@#XXXX@@@@OO@@XX#@@O=+--####OO==XoXX#O$$;;--#;==wX",
"o 44&$ui++43,,XXXX--82wwwrqqXX#@22::wwyq9qyyOO=-.XO+----==pp-=w.",
".X44&&ii+O45,3XXXX-$22wwqqqq.X#@21::qqqyw9ryOO==XX@@==-==@yy-=w.",
"X#44*>++  55XOXX#@-;32<<<<qqO#@@992233XX  qq---+XX@@==yyyy@=99,X",
"o#55>*+O  55XOXX$#;-333<<<qrOO@O992233oo  qw----XX@@==qyyy=@99<X",
"X.@@325533>>XXoO--1:3<33<<ww@@$#22;:33XXpp#@---=XX@O--w9,,ww:;1X",
"Xo##334433>>XXOo-$;:<<3<3<ww@@$#221133XXpy@@--==XX@O--w9<,yy::1X",
"o@ooXX;;>>..XX#@ytww88<<::wwOO->11:;33..  qw-;@@Xo=@--98<<,<:11X",
"Xoo XX;;>>XXXX#Ottww00<<::wwO#-$:11153  . qq--@@XX@@--8833331;1X",
"X#XXoOoXXXXX--66-=#;#-ee,3qwOOqq1:,:2,3333y9;-==XXoOw9::1133;11X",
"X#XXooXXXXoX--66--==--ew3,wrOOq9:111,13333yq--@@XXOoqw::1:33:::X",
"X@oX####XXOO-=33oXpp@#--3321@O99:111::355322;;@=XXOXww1,1111::,.",
"X#oX###@XXOO==33oXpp##;=3222@@99:111::535388-;=#XXOXww;111:11:2X",
"X#Xo#=;;====6623oo.Xoo:;3311#@9911111:1155::9q==XooXrq11112:1,2.",
"X#XX##;-=##@6633ooXoOo;=33:1OO99;1:1:,1155::qq+#oXooww11:::,1:1.",
"X#XX==;-82223333=;;=;;<31;qq&-rr1:,12:::33,:yw##Xooowq:22:11::1X",
"X@XX=#;-28;23332===;#;<311qq--rr::::::2:332:wy#-XXooqq1:,:111:2X",
"X*XX##;;282<33643356333390;;@@=#99ee1;2;321;ww==oX@o#@::2:--212.",
"X*oX##;=88333354335533330q;;OO=#99we:2:23311yy==Xo@@==:211-;212.",
".*XX##;;8033::11::::55:::-====yw1::1111:332811ooXX@o==22--yp--1.",
".*Xo##==08331112:2::55::--#==#ry:2111212338911o@XX@O==2:--pp=-2X",
"XooX##;;00331:11:2::55:22211--1112:1111122##o#Xooo@#--88--==--2X",
"XOXX#@;;q035:211:2:255::11111-1111:2111122--OOoooX##-:82===---1X",
"XOXo##;;qq:1112121:1852:1111112221121299+#XoXOOOXo@@--8889qq888X",
"XOOo#@;;qq1:11:::11133;212121-1111111199@@XoOXOOXX@=--989999883X",
"XooX==:;qq1122wq882232;221121121>221;;@#$#222q=-XoOoOOO#-*@#;--X",
"XXXo=-;;qq11229q008235221111111111::;;#@@@1192$$oXOO@O#@--$$-;-X",
"X-oX==1-qqqq99;;oo8811351121111>q0;;;;00qq88qq@-oXOo@O.OOOX.oXXX",
".-Xo-#1;q22qqq;;oo88113311121121q0;;;;889988qq$$ooooO@oXXXXoXXXX",
"X-.X==1;99ooXoOoyy#@qq33111,2221118800:2111199$=oo=#$-$$$$$$;;-.",
"X-XX==1>9woXXXOoyy@#wq351212221211q9002:111199$-oo#=-$$#@#$$;;$X",
".-OX=#oo::wweyew89OO##99122111::<5211255775799=-XX##$$ww29wwwqqX",
"XXXXXXXXXXXXXXXXXXXXXXXX.XXXXX.XXXX..XX.XXXXXXXXX.XXXX.X...X.XXX"
};
