/* XPM */
static char *result[] = {
/* columns rows colors chars-per-pixel */
"64 64 46 1 ",
"  c #070C0F",
". c #0A0D0F",
"X c #0C0E10",
"o c #0E1114",
"O c #0F1418",
"+ c #111417",
"@ c #1B1917",
"# c #131619",
"$ c #161A1C",
"% c #191C1E",
"& c #201F1D",
"* c #21201E",
"= c #171D20",
"- c #1A1E21",
"; c #1E2325",
": c #1F2528",
"> c #242525",
", c #292724",
"< c #2B2926",
"1 c #212629",
"2 c #232A2D",
"3 c #2D2C2A",
"4 c #312C26",
"5 c #332E29",
"6 c #2F302F",
"7 c #35322D",
"8 c #3B352F",
"9 c #262D31",
"0 c #282F33",
"q c #273033",
"w c #2A3135",
"e c #2C3439",
"r c #2F393D",
"t c #333533",
"y c #393633",
"u c #373936",
"i c #3C3935",
"p c #30393E",
"a c #3E3B39",
"s c #403E3A",
"d c #343C42",
"f c #364147",
"g c #384146",
"h c #364148",
"j c #3B444A",
"k c #3D484C",
/* pixels */
"X..X............oXXXXXXXXXXXXXX.......X.XX.XXXXXXXXX..XX.X..X...",
"X;;;;;;;;>-;>;;;-,,<<>,,,##.X.X=#99->;;;;##%%;*;-0929.XX.=#;;;;X",
".;;;;;-;;;-;-;;;-<,,<,,,,##Xoo.=#99;-;;;;##=$;;;-9920.XX.=#;;;>.",
".-;;-;>>;;;;;;;;-,,<4**XXXXX.X.#+1>->;;#$+o-%;;1299..XX$-19;;;;X",
".>;;;-;-;;-;;;;--<,<<*>o#XXX.XXO+11;;;-==oo-=;;1200XXXX=-11;;->.",
".;;;;;;;;;;;;;;,,>,oXXXX.$$wwX.X.$$22;>#=XXdd;;12XXXX##91;;;;;;X",
".;;;;;;;;;;;>-;,>,<oOXXX.##00.X..=$21;;$@oodd;;92XXXX=#29;;;;;;X",
".>;;;;;;;;;;;4<>>XXXXXX09ww22==....91;;;;$@##;;;-oXoX--;;;;;;;;.",
"X;;;;;;;;;;;-4<*,XXXXXX99ww99$$Xoo.22-:;;=#=#:>-:XX.X--;;;;;;;;.",
"X;;;;;;;;;;;>@&XXoXew0w29;;--0eo#.X--22;;;;;;;;.XX.%%29;;;;;;;:.",
".;;;;;;;;;;;>@&.XXXewwe92;;;>w0#+Xo--22;;;;;;;;.XX.-#91;;;;;;;>.",
"X;;;;;;:;4<@@XXXXee-;$$===-1-;;ee.oX.1:;;;;;:#=XX##1::>;;;;:>;:.",
"X;;;;;;;;4<@@o..Xeq--%=-==->;;-ee.XXX11:;;;;;#=XX##1:::;;;;;;;:.",
"X;;;;;;<<@@##o.ee-;11%$dd%%;;1100--XXX.09;>::XX.X-=:;--;;;;;;;:.",
"o;;;;;;<<@@##..re;-;>$$dd$$;;;;we--XXXX09;:;:XoX.=#:;&--;;;;;::.",
".1;;;;;;;<<.oo.;;>11;$%$$$$11;;;;e0XoX.--;:;;Xo..>;::##--%-;>>:X",
"X;;;11;;-<<XXXX:::;:;$$$$$$-11;;;edXXXo-;:;;;XX..;-::##%=%%;>>;.",
"X11;;;;>>;1;:XXXo;;:;$$%$11>;;>1;--00.XoX21;;=-##..-=+ogd##;;::.",
"X>;;:;;:1;-11XXoo:;;;$$$$;;111;1;;;00..oX21:;====..--+#dg##:>::.",
"X;;;>:;:;11;;##XX;;0q:;>;1;;;;1-;2229oOX.=#>1Xo+O..-;o+oo%-;:::.",
"o:;;::::11-11##XX;;09;;>>;1;1;1-;9192oOX.$#;:++O+..;;oooo=-:;:;.",
"XXoooXXoXo#+OXXXXXX09q02222==$$1:;;00::.o$$;;++oo.X##--:;;;::;:.",
"Xoooooooo##oXXXXXXX00qq2222-=$$;:;;00::.X$$;;+OXooX##--:::;;:::X",
".==$====$$=====##XX##11-=##$#;;;::;;;00oO..==X+++XXXXXX$#,,44<<X",
"X$$$$$$$#$#$=$=#=XX=#22=-###$-11::::>00X+XX=$Xo+oXXXXX.%=,>44<<X",
"Xurffdpfgddfd;-Oo$$####++#$-=921:11;;9011XX-=++1111$$o.o.+#*&,<X",
"Xrrffpdhddpdh-;oO=#####o+$$-=29;:;:1;9911XX-=+o>>:1##....=#**<<.",
"X-=ee<<;;<<4<19##X#XXOo$#21291;1:>;66tt--++X.11=---1229+oX.ooOOo",
"X-;we,2;1<<3499##++X+oO$$1299;1;1--36tt-;++X.;>-=--9229oo..++##.",
".=$ee<<:::;<<wwO#$=o#Xo--53:;;;<38ydd.oXXXX##==jd-$1>222299oooo.",
"o$$ee<<:11;<<ee##%%o+XX--05;;;;<288ddo+X..X##-#jd==:>922222Xoo+X",
".6q<<::::11;;eeO#1:######ttttwtas;>..XXX.--w0%-#-#$-;22::>:99#=X",
"Xww<<1-1;1;1>ee##:-+#O###tttt60as,>.XXXX.##0w-=$$=#;-99::::30#=.",
"X;;;11111111;29+odd99ooXX:;asyy .X+XX-===dd0e--&---;-91:>::1;:1.",
"X;;111111;1;;99o#dd99ooXX::ssyaXX++X.-=##ddee-;--;-;;1911111111.",
"X;1111>11111199+#w009eeXXXXXX.Xo+XX--11dd09>:99900000:>11111111X",
"X11111111111129##e090we.XXXXXXoo+X.-#11dd00:;92090000:111111111.",
"X111111111111ee##wd-1dd#=###O++oX==dddd::;:111::1;::::111111112.",
"X11111111111;we+Ow0--ddo#+O#OoooX-#dddd1>11111111111>111:11111>X",
"X11111>11111>ee#Oed113<dd==--#=oo==ed33111111111111111111111111X",
"X111111111111ee##ee-133dd====##oo==ee33::::1111:1>1111111>:1::;X",
"X111111>11111we--ww1111--dd=-+#XX=-ee555555111111111111111155isX",
"X111111111111ee=-0w:1111;dd-:+#X.-$ee554555::1111112111111155ai.",
"X11111111111111pd11113078;-dd#=X.--00---->>331111111111111:88##.",
"X11111111111111dd11;150781-dd$=XX=%00---->>33:1111212:11:>;y8=#.",
".21111211:1111:21113<----33jd#=Xo=%0e--jj--3330121111:2::993<##o",
"X12111111211111921:33---;33jk$$XX%%e0--jj--3300111111211199<4##X",
".;-111111121211111133=-jd>>ty0eXX%+00--=%-->;00we001112::7y55*;X",
".;%21111211111112::33==jj,>ut0eX.$#ew--$$--12qqee0011111:7745**X",
".-;>2111111221203:2::21$=112200Xo$$:22q:200qq+++#0w000000uuyyaaX",
".;$21121211111153211212-=11220eX.$#<29q2200qw##$#ww000000uuiyaaX",
".99292911335563=$7333:1112129$=Xo$-$$$-;:;>-%##+##o#O##XXXX=$OOX",
".92992922<<5566=$533<11111199=@oo%=$=--;:::=-$$+#O#####Oo+o$$##X",
".;---;---2999ty=;qq9qqqq0>1;-Xo+ooooXo.XXXooXoXoXXXXXoXXXXooXXXX",
".-;;-----9200ty-;qqqqwww011-1oooooXo....o..XXXXXXXXXXXXXXXoXXXXX",
".o..XooXXXXXXXXXXX.XXXXXXoXXXoooo%%22eeeeeqqq22qwdedddd0wqwqqppX",
"XXXXXooXXXXXoXXXXXXoXXo.XX+Xoo+oo%=12eeetqqqq2200ppddrd0qqqqwpr.",
"X;;----$=-------------$;--%##Xo=-q0---;%---002>111111:;112>we++.",
"X;;%---$=----=-=%%$$$$$$%%%##oo%%00;;-%----0021212211119211rt++.",
"Xqwee0q##292200eeeedddfgjep%%oo%%0w$$;-kk--w012121121211211re++.",
"Xeeee00##922200erwedpddjger%-oo--0w$%;-kk%-0q12112121919121re++.",
"X331199##00993333331133qqdd--Xo=%w0--##$$;-w01122121<111211wqw0X",
"X531199##00993353331153q9dd%;XX-%00--##$$%-0w12222121121111ww00X",
"XXXXXXXXXXXXXXXXXXXXXXXXXXXXXXXXXXXXXXXXXXXXXX...X..X.o.Xo.XXXXX"
};
