/* XPM */
static char *a712e6728663432ee4ffe63b86ab6bc08SOypPJlqHxxhzcH[] = {
/* columns rows colors chars-per-pixel */
"64 64 92 1 ",
"  c #050402",
". c #080707",
"X c #0A0907",
"o c #000408",
"O c #0C0B0A",
"+ c #110D07",
"@ c #110E09",
"# c #15110C",
"$ c #1F160C",
"% c #050814",
"& c #0E0E11",
"* c #0A0F1B",
"= c #0D1115",
"- c #0B131C",
"; c #141412",
": c #191613",
"> c #1B1915",
", c #1E1C19",
"< c #20170D",
"1 c #261C0F",
"2 c #281D0F",
"3 c #261C11",
"4 c #2A1E11",
"5 c #211E1A",
"6 c #2D2112",
"7 c #23211B",
"8 c #2B241D",
"9 c #332515",
"0 c #372816",
"q c #392917",
"w c #362A1D",
"e c #3D2C19",
"r c #0D1522",
"t c #0F1924",
"y c #121723",
"u c #121B25",
"i c #151C2C",
"p c #15232A",
"a c #19232F",
"s c #1A2431",
"d c #1D2E34",
"f c #1D3435",
"g c #272525",
"h c #2A2622",
"j c #272827",
"k c #2E2924",
"l c #2D2B29",
"z c #322D26",
"x c #312F2B",
"c c #34312E",
"v c #39352D",
"b c #3D3B2F",
"n c #22353A",
"m c #253C3E",
"M c #373532",
"N c #3D3C32",
"B c #412F19",
"V c #423019",
"C c #423D34",
"Z c #454137",
"A c #47433A",
"S c #48443A",
"D c #4D4A3E",
"F c #294442",
"G c #2E4B49",
"H c #34554E",
"J c #33594F",
"K c #3A6857",
"L c #3E6B5A",
"P c #444444",
"I c #4E4C41",
"U c #514D41",
"Y c #555245",
"T c #565348",
"R c #59554A",
"E c #6B6758",
"W c #726F5E",
"Q c #73705F",
"! c #447661",
"~ c #467B64",
"^ c #468164",
"/ c #4F9172",
"( c #579D78",
") c #5A9F7A",
"_ c #5AA47B",
"` c #5FAF81",
"' c #61B384",
"] c #65BD89",
"[ c #6AC48D",
"{ c #6BC790",
"} c #6DCD91",
"| c #71D494",
/* pixels */
"1112112211111111222112211111111111111111211111111111121111411114",
"1666666244299<<++<<9944669600216666249932999611++$<9966119666111",
"1664469444499<<++<<996464669946666611992299691<++<$9966119946141",
"1666666466499<<++1<99466669996466661299229999<1X+<<9969416666441",
"1666496426269$$++<<96666499664466666199649999<<@+<<9996119664441",
"1664669466999$<++<1006662666666666614994499991<@+<<9999119666441",
"2666666469999$<++1$09662296666464662196669699<<#+$$9969146966141",
"1669666644499$<+O1<906672996666666632996669901<@+1<9999149666441",
"4666696669699:OOX@@##@#OO#@##@@@###O@@#@#@=##@@XXO;0999446966441",
"16666666296w5h5577577777777777>@O@:75577775757775gzh469649966461",
"19699696495z,@++@@@@O@@@@@@@@@,755@@@@@@@@@@@@@@++@gM,6469696441",
"1669666696 M++++@@@@@@@@@@@@@@ .: h@@@@@@@@@@@@@++@@l 6646666661",
"1969669669 M+@@@@@@@@@@@@@@@@@;O;O7#@@@@@@@@@@@@@@@@c 4666669441",
"1666966646 M@@@@@@@@@@@@@@@@@@7ggg@@@@@@@@@@@@@@@@@@c 4446966661",
"4699966696 M@@@@@@@@@@@@@@@@@@@@@@@@@@@@@@@@@@@@@@@@c 4999999441",
"1669966969.M@@@@@@@@@@@@@@@@@@@@@@@@@@@@@@@@@@@@@@@@v 4996699441",
"1440066996 v@@@@@@@@@@@@@@@@@@@@@@@@@@@@@@@@@@@@@@@@c 4996699661",
"4440964996 C@@@@@+@@@@@@@@@@@@@@@@@@@@@@@@@@@@@@@@@@x 6999699441",
"1449966996 M@@+@@@@+@@@@@@@@>ccccccx@@@@@@@@@@@@@@@@c 6999699661",
"1669966996 M@@@@@@@@@@@@@@@McYDDDD,,c,@@@@@@@@@@@+@@c 6996999661",
"464q966996.M@@@@@@@@@@@@@;c7bQWQETN# l@@@@@@@@@@@@@@M 4996699661",
"1449q66q96 M@@@@@@@@@@@@@x bINNNb7k> l@@@@@@@@@@@@@@c 4996699461",
"144qq66qq6 M@@@@@@@@+gxxcj.:,,,,,zx> l@@@@@@@@@@@@@@c 6996499661",
"164qq96996 M@@@@@@@@@M 578vczlz7,kz> j@@@@@@@@@@@@@@c 4996699661",
"464q9999q6 M@@@@@@@@#c TTTYTDbCvzkz:X>###:;#@@@@@@@@c 6966699661",
"164q966996.M@@@@+@@@+c IDDDDZ88kkkz>X+@@@@@#@@@@@@@@c 6696699661",
"4669999qq6 M@@@@@@@@+M.IUDDUZkkkkkz>X@@@@@@#@@@@@@@@c 6999690662",
"1669999qq6 M@@@@@@@@Oc UDDDDZ8zzkzz>X@@@@@@:@@@@@@@@c 6966996961",
"1699999999 C++@@@@@@@x;5zvvvzkkkkkz>X@@@@@@#@@@@@@@@c 9996969664",
"46699999q6 M@+@@@@@@@@l,78h88kkkkkz>X@@@@#:#@@@@@@@@c 9999999661",
"1999999999 M@@@@@@@@@@@,P@zlzzzzzkz>X@@@##@@@@@@@@@@c 9999999664",
"19999999q9 M@@@@@@@@@@@#M.DZZZZv8kz>X@@@:@@@@@@@@@@@c 6999999961",
"1999090999 M@@@@@@@@@@@@c RIUUUCzkz>X@@##@@@@@@@@@@@c 0060999666",
"1090999990.M@@@@@@@@@@@@M>SIDIDDNkk>X@@#@@@@@@@@@@@@c 6099969663",
"1999900900.v@@@@@@@@@@@@OM#NUDDUSkz>X@@#@@@@@@@@@@@@c 9909999993",
"109990900q M@@@@@@@@@@@@+7 CTUDUAkz>X>#@@@@@@@@@@@@@c 0906999691",
"199090099q M@@@@@@@@@@@@#g;cZDIUAkc; l@@@@@@@@@@@@@@c 6ee6699993",
"199990999q M@@@@@@@@@@@@O#>l,87873,;#j@@@@@@@@@@@@@@c 6qq9699901",
"190999099q.v@@@@@@@@@@@@@@@@c;:::>>cj@@@@@@@@@@@@@@@c 6qe6909991",
"109909q90B M@@@@@@@@@@@@@@@@O#;####@@@@@@@@@@@@@@@@@M 6qe9999991",
"190999099q.M@@@@@@++++@@O++++@++@@@@O+++#O+++++@@@@@x 6eq6999993",
"109009909q M@@@@lhjjjjjjjjggggjjjjjjgjjjjjjjjjl@@@@@v 6ee9990993",
"190909909e.M@@@@ %----r----tur*--%=-t*------ro @@@@@c 4eq9999992",
"20000990qe M@@@@OtsssssspG')_(aK/fiJ`nissssss=.@@@@+c 9qe6609q92",
"299000000q M@@@@OyspaaaaiH|HK[a!}_FL|missaaas=OO@@@@x 9ee999qq92",
"200900090q M@@@@OyssaaaaiJ|FJ[a~'m^]}misaaass=.#@@@@M 4ee9999992",
"2900090000 M@@@@OussssssiH{`''s!)if~[msssssss=O+@@@@x 9qq99q9qq1",
"2q000090qq M@@@@ *ittttttpfffdtsdtrifuttttuti% O@@@@x 9eqqq9q992",
"2q0009qq9q C@@@@:&&;&=;;=;&&&&&&&;&&&;&;;;&;&&:@@@@@c 9q009099q3",
"199qq9q90q M@@@@@@@@@@@@@@+O@@@@@@@@@@@@@@&@@@@@@@@@c 9qq000q094",
"29q0q99q0q M@@@@@@@@@@@@@@@@@@@+@@@@@@@@@@@@@@@@@@@@c q99q9q0003",
"2000q9990q M@@@@@@@@@@@@@@@@@+g,y>7+@@@@@@@@@@@@@@@@c 0q09q90994",
"2q9q0699qq M@@@@@@@@@@@@@@@@@@.&g g@@@@@@@@@+#@@@@@@x q9q9900904",
"10q0q99qqq@M@@@@@@@@@@@@@@@@@@7;:@5@@@@@@@@@++@@@@+#M@qq99900091",
"1qqqq69qqqe85@@@@@@@@@@@@+@@@+@@+@@@@@@@@@@@++++@+5k4wq9099q0094",
"1qqqq99qqqwee5;#;;;:::##:::;;;>;:;::;:;:;:;;;;$#;;;zB0q909900091",
"1qqqqq9qqq0eB43@$44B999qqBq99qqq00qqq99qqqB6666#@44BB99q999qq9q1",
"1qq9q9990qqeB34#+44BB99qqqB96qqq0qqqq99q0q04966##44BBqe9099qqq91",
"49qqqqqqqq0BV14##64VB99qqee99qqqqeqqq99q0BB9966##44BBwq9999qB9q1",
"4qqqqqq9q00BV12##64BB99qqeB99qqqqqqqq9qq9B09966##44BB9q9999Bq994",
"19qqqqqBBq0VV12##62VBqqq9BB99qqqqqq0q0000BB9966+#42VBqqq999qB991",
"1qqqqqqBB00VV12##64VB9qqqBe99qqqqqBqq00qqBq9969$#22VB9qqq69qB991",
"1qqBqBqBB00VV12#@44BBq0qqeB99qqqqBBqq0009BB9966++22VBqqqq99BB9q4",
"1111121111211222414114114114411114121111112222114222114111111111"
};
