/* XPM */
static char *_56da5854e364ec6f818ea4187528cf5ir8ilo0sjENyliqr[] = {
/* columns rows colors chars-per-pixel */
"64 64 135 2 ",
"   c #030203",
".  c #090504",
"X  c #0C0905",
"o  c #070308",
"O  c #0B0509",
"+  c #0C0C0A",
"@  c #110C07",
"#  c #13060F",
"$  c #110E09",
"%  c #16110B",
"&  c #1C140C",
"*  c #120612",
"=  c #150812",
"-  c #180812",
";  c #151512",
":  c #1A1713",
">  c #1D1A15",
",  c #1D1D1B",
"<  c #20170D",
"1  c #261C0F",
"2  c #281D0F",
"3  c #231C13",
"4  c #2A1E11",
"5  c #201E1A",
"6  c #1F201F",
"7  c #2D2112",
"8  c #25221D",
"9  c #2B251C",
"0  c #332515",
"q  c #372816",
"w  c #392917",
"e  c #31271A",
"r  c #342819",
"t  c #3D2C19",
"y  c #1B0E23",
"u  c #261325",
"i  c #2D1627",
"p  c #2F1828",
"a  c #301A26",
"s  c #311A2A",
"d  c #391C2C",
"f  c #222221",
"g  c #2A2621",
"h  c #2A2723",
"j  c #272826",
"k  c #2D2823",
"l  c #2E2923",
"z  c #2A2824",
"x  c #292827",
"c  c #2E2A24",
"v  c #2F2A24",
"b  c #2D2B2A",
"n  c #2C2C28",
"m  c #302B24",
"M  c #322C26",
"N  c #322D27",
"B  c #322E27",
"V  c #312F2B",
"C  c #322F2A",
"Z  c #37332C",
"A  c #34322E",
"S  c #35322F",
"D  c #35362C",
"F  c #3A372E",
"G  c #3A382F",
"H  c #343332",
"J  c #373434",
"K  c #373534",
"L  c #383532",
"P  c #393734",
"I  c #3E3931",
"U  c #3B3A37",
"Y  c #3C3B34",
"T  c #3C3A37",
"R  c #3F3D35",
"E  c #3A3838",
"W  c #3C3A38",
"Q  c #3C3B39",
"!  c #412F19",
"~  c #423019",
"^  c #42212D",
"/  c #462430",
"(  c #4C2733",
")  c #542B34",
"_  c #5E2E37",
"`  c #403D33",
"'  c #433F36",
"]  c #612F36",
"[  c #63333A",
"{  c #743B3E",
"}  c #7A3D3F",
"|  c #444037",
" . c #454237",
".. c #454238",
"X. c #454239",
"o. c #47473B",
"O. c #49463B",
"+. c #4C483D",
"@. c #4E493E",
"#. c #4D4A3E",
"$. c #4D4A3F",
"%. c #4E4A3F",
"&. c #7C3F40",
"*. c #4F4A40",
"=. c #4F4C41",
"-. c #504C40",
";. c #514F43",
":. c #534F45",
">. c #535045",
",. c #5A584B",
"<. c #5B584C",
"1. c #7A4040",
"2. c #736F60",
"3. c #717260",
"4. c #747664",
"5. c #7D7A6A",
"6. c #834343",
"7. c #944D48",
"8. c #994E4B",
"9. c #9F504A",
"0. c #A3524D",
"q. c #AB544E",
"w. c #A85350",
"e. c #B75C51",
"r. c #BB5D53",
"t. c #C15F58",
"y. c #C26056",
"u. c #C96657",
"i. c #D26A5B",
"p. c #D86B5E",
"a. c #898673",
"s. c #8A8772",
"d. c #8B8973",
"f. c #888974",
"g. c #8A8B76",
/* pixels */
"1 1 1 2 2 2 2 2 2 2 2 2 1 2 1 1 2 2 1 2 2 2 1 1 1 2 2 2 1 1 2 & 4 2 < 1 1 1 1 1 2 2 2 1 1 1 4 2 2 4 2 2 1 2 2 2 2 2 2 1 1 1 1 4 ",
"1 7 7 7 4 7 4 4 4 4 4 0 0 & < @ @ 1 & 0 0 2 7 7 7 7 7 0 7 7 7 7 7 7 7 7 7 7 q 7 2 0 0 0 0 & < $ @ & & 0 0 2 4 1 < 0 0 7 4 4 1 1 ",
"1 7 7 4 7 7 7 7 4 4 4 0 0 & < @ @ & 1 0 0 4 7 4 7 0 7 0 0 7 7 7 7 7 7 4 2 0 0 2 2 0 0 0 0 & 1 $ @ < & 0 0 4 0 2 2 0 7 4 4 4 4 1 ",
"1 7 7 7 2 7 0 4 4 7 4 0 0 < < @ @ 1 & 0 0 7 7 7 7 7 7 0 7 7 2 7 7 7 7 & 2 0 0 2 4 0 0 0 0 & 1 X @ < < 0 0 0 2 2 2 7 0 4 4 4 4 1 ",
"1 7 7 7 4 0 7 4 2 7 2 0 0 < < @ @ 1 & 0 0 4 4 7 2 7 0 7 7 7 7 7 7 7 7 < 2 0 0 4 4 0 0 7 0 1 1 @ @ < < q 0 0 0 2 1 7 0 7 4 4 4 4 ",
"1 7 7 4 7 7 0 4 4 0 7 0 0 & < @ X 1 1 0 q 7 7 7 4 0 7 7 7 7 7 7 7 7 7 7 2 0 7 7 4 0 0 0 7 & 1 @ @ 2 & 0 0 0 4 2 4 0 7 7 7 4 4 1 ",
"2 7 7 7 7 7 7 4 4 0 0 0 0 < < @ $ 4 & 0 0 7 7 2 1 0 7 7 7 7 7 7 7 7 7 & 1 0 7 7 7 0 0 0 q 1 & @ @ < < q 0 0 0 2 4 7 0 4 4 1 1 1 ",
"1 7 7 0 7 7 7 7 4 7 4 0 0 < < @ $ & 1 q 0 7 7 2 4 7 0 7 7 7 7 7 7 7 7 4 7 0 0 7 7 0 7 0 0 & 1 @ @ & < q 0 0 0 2 4 0 0 7 7 4 4 1 ",
"4 7 7 7 7 0 0 7 7 0 0 0 0 8 .   . . . . . . . . . X X X . . X X X . + . . . X . . . . X X . .     . ; 0 0 0 7 4 4 7 0 4 7 4 4 2 ",
"1 7 7 0 7 7 7 7 4 7 7 r $ L % > > > > 6 > 6 > 6 > > > > , > % X % % & > > > 6 > 6 > > 6 > 6 6 > > h L % 9 0 0 4 4 0 0 4 0 4 2 2 ",
"4 7 7 7 7 0 0 2 7 7 e h 8 $ $ $ $ $ $ $ X % X $ + % $ $ % X , 8 8 6 + $ $ $ $ $ $ $ $ X $ $ $ $ X % $ A Z 3 7 7 4 0 7 0 0 4 4 2 ",
"1 7 0 7 7 7 7 7 7 0 : 6 $ $ $ $ $ $ $ $ $ @ % $ % + $ % X % + + 6   9 $ $ $ $ $ $ $ $ $ $ $ $ $ $ + $ $ L X 7 4 4 0 7 7 4 4 4 2 ",
"1 0 7 7 0 7 0 7 7 7 > f $ $ $ $ $ $ $ $ $ $ $ $ + $ $ $ $ $ ;   +   8 $ $ $ $ $ $ $ $ $ $ $ $ $ $ $ $ $ K X 7 7 7 7 7 7 0 4 4 2 ",
"2 7 7 0 7 0 7 7 0 4 > 5 $ $ $ $ $ $ $ $ $ $ $ $ $ $ $ $ $ $ : 6 > > $ $ $ $ $ $ $ $ $ $ $ $ $ $ $ $ $ $ L @ 7 7 7 7 0 7 0 4 4 1 ",
"4 7 0 0 0 4 7 7 7 7 : f $ $ $ $ $ $ $ $ $ $ $ $ $ $ $ $ $ $ $ $ % $ $ $ $ $ $ $ $ $ $ $ $ $ $ $ $ $ $ $ L X 4 0 0 7 0 0 0 4 4 2 ",
"1 7 0 7 0 7 7 0 7 0 > 8 $ $ $ $ $ $ $ $ $ $ $ $ $ $ $ $ $ $ $ $ + % $ $ $ $ $ $ $ $ $ $ $ $ $ $ $ $ $ $ L + 4 0 0 0 7 0 0 4 4 1 ",
"1 4 4 q q 7 7 0 0 7 : , $ $ $ $ $ $ $ $ $ $ $ $ $ $ $ $ $ $ $ $ % X + % $ $ $ $ $ $ $ $ $ $ $ $ $ $ $ $ J @ 4 q 0 0 0 0 0 4 7 2 ",
"4 4 4 q 0 7 7 7 0 0 3 8 $ $ $ $ $ $ $ $ $ $ $ $ $ $ $ $ $ $ $ + + % @ + $ $ $ $ $ $ $ $ $ $ $ $ $ $ $ $ H @ 4 q 0 7 4 0 0 4 4 1 ",
"1 4 4 0 0 7 7 0 0 4 > 6 $ $ $ $ $ $ $ $ $ $ $ $ $ $ $ $ > j j v n j j U $ $ $ $ $ $ $ $ $ $ $ $ $ $ $ $ L @ 7 0 0 4 0 0 0 7 7 2 ",
"1 4 7 q 0 7 7 0 0 7 : 8 $ $ $ $ $ $ $ $ $ $ $ $ $ $ $ E n 4.2.2.3.4.D ; 8 8 $ $ $ $ $ $ $ $ $ $ $ $ $ $ H @ 4 0 0 0 7 0 0 4 7 1 ",
"4 7 4 0 w 7 7 w 0 7 : 8 $ $ $ $ $ $ $ $ $ $ $ $ $ : 5 c  .<.<.<.>.R D % . z $ $ $ $ $ $ $ $ $ $ $ $ $ $ L X 4 0 0 7 7 0 0 7 7 1 ",
"4 4 7 w 0 7 7 0 q 7 : 8 $ $ $ $ $ $ $ $ $ $ $ $ $ ,   F :.O.@.@. .9 n ; + > % $ $ $ $ $ $ $ $ $ $ $ $ $ P X 4 0 0 0 7 0 0 4 7 1 ",
"4 4 4 w w 7 7 w q 7 > 6 $ $ $ $ $ $ $ $ $ $ $ $ $ h   ` %.-.@.%. .v B ; + $ % $ $ $ $ $ $ $ $ $ $ $ $ $ K @ 7 0 0 4 7 0 0 7 7 1 ",
"4 4 4 w w 7 7 w q 7 > 6 $ $ $ $ $ $ $ $ $ $ $ $ P ; O.@.@.-.%.` v c B ; + $ + % $ $ $ $ $ $ $ $ $ $ $ $ K @ 7 0 0 4 7 0 0 7 7 1 ",
"1 4 7 w w 7 7 w w 4 3 u $ $ $ $ $ $ $ $ $ $ $ $ Q   =.*.#.;.%.` v z B ; + $ $ % % + $ $ $ $ $ $ $ $ $ $ Z @ 7 q 0 7 7 0 0 7 7 1 ",
"1 4 7 0 0 7 7 w 0 4 3 5 $ $ $ $ $ $ $ $ $ $ $ $ Q   #.#.#.#.;.` v v B ; + $ $ $ % $ $ $ $ $ $ $ $ $ $ $ K @ 7 7 0 4 7 0 0 7 7 1 ",
"4 7 7 0 0 0 0 0 q 7 > u $ $ $ $ $ $ $ $ $ $ $ $ Q + =.>.=.:.#.I v v m ; + $ $ $ % : $ $ $ $ $ $ $ $ % + K + 7 q 0 7 7 0 0 7 7 1 ",
"1 7 7 0 0 0 0 w q 7 : 8 $ $ $ $ $ $ $ $ $ $ $ f R g.f.d.s.5.Z v z m B ; + $ $ $ $ : $ $ $ $ $ $ $ $ X % P + 7 0 7 0 0 0 0 0 7 2 ",
"1 7 0 0 0 0 0 0 q 0 > u $ $ $ $ $ $ $ $ $ h > ..a.a.s.d.2.Z v v N v B ; + $ $ $ + : $ + $ $ $ $ $ $ $ $ K @ 0 7 0 0 0 7 0 7 7 1 ",
"4 7 7 0 0 0 0 w 0 0 3 , $ $ $ $ $ $ $ $ + c   #.=.#.;.;. .h v v 9 N B ; + $ $ $ + % % % $ $ $ $ $ $ $ $ K $ 0 0 0 0 0 0 0 7 7 1 ",
"1 0 0 0 0 0 0 0 0 0 3 f $ $ $ $ $ $ $ $ $ z   o.#.#.#.#. .9 N v v N m % $ $ $ $ $ $ + % $ $ $ $ $ $ $ $ K $ q 7 0 0 0 0 0 0 0 1 ",
"1 0 7 0 0 0 0 w 0 0 > f $ $ $ $ $ $ $ $ $ c   o.#.#.#.*. .v N v v v A ; + $ $ $ % + % % % $ $ $ $ $ $ $ F @ 7 q 7 0 0 7 0 7 7 1 ",
"4 q 0 q 0 0 0 0 q 0 > f $ $ $ $ $ $ $ $ % z   #.=.%.=.=. .v B c v z N ; + $ $ $ $ $ $ $ ; $ $ $ $ $ $ $ L @ q 0 0 0 0 0 4 0 0 4 ",
"1 0 0 0 0 q 0 0 0 q > f $ $ $ $ $ $ $ $ + z   D | R  . .G 8 8 8 9 N N ; + $ $ $ $ $ $ $ % $ $ $ $ $ $ $ L @ 0 0 0 0 0 0 q 4 4 1 ",
"1 0 0 0 0 q 0 q 0 w 3 6 $ $ $ $ $ $ $ $ @ 8 , 6 6 :   + + + + + ; N C ; + : $ % : $ $ $ : $ $ $ $ $ $ $ J @ 0 q e 0 0 0 0 0 q 1 ",
"2 0 0 0 0 q q 0 0 w > 8 $ $ $ $ $ $ $ $ + % $ $ % f   G %.#.#.#.| 9 N ; + z $ $ $ $ $ $ $ $ $ $ $ $ $ $ J @ 0 q q 0 0 0 0 q 4 1 ",
"1 0 0 0 0 q q q 0 w 3 8 $ $ $ $ $ $ $ $ $ $ $ $ + % n n Y ;.-.=.O.Z Z $   h @ $ $ $ $ $ $ $ $ $ $ $ $ $ J @ 4 q w q 0 0 0 0 0 4 ",
"1 0 0 0 0 0 0 0 q w 3 , $ $ $ $ $ $ $ $ $ $ $ $ % X % U j Z Z Z A A 8 8 L , $ $ $ $ $ $ $ $ $ $ $ $ $ $ J @ q w w 4 4 0 0 0 0 < ",
"2 0 q 0 q 0 q q q q 5 f $ $ $ $ $ $ $ $ $ $ $ $ $ $ + % : j j j z j j H $ $ $ $ $ $ $ $ $ $ $ $ $ $ $ $ J @ 4 w w q 0 0 0 0 0 4 ",
"2 q 0 q 0 0 0 q q q 6 u $ $ $ $ $ $ $ $ $ $ $ $ $ $ $ $ $ $ $ $ $ $ $ $ $ $ $ $ $ $ $ $ $ $ $ $ $ $ $ $ J @ q w q 0 0 0 0 0 0 1 ",
"2 0 q 0 q 0 q 0 0 w 7 6 $ $ $ $ % : > > > > > > : , : : , : : : > : : , : , > : > > : , : : $ $ $ $ $ $ L @ 0 w q 0 0 0 0 0 0 4 ",
"2 0 0 q 0 q 0 q q w > 6 $ $ $ $ j   O O O O O o O   o   o O o       o .       o O O O O o   j $ $ $ $ $ L @ 7 w q 0 0 0 0 0 0 4 ",
"2 0 0 0 q 0 0 q 0 w 8 u $ $ $ $ j # a p i i i i ^ _ [ _ ( i ) ] [ [ d d _ [ [ ) i i i i s o j $ $ $ $ $ J X 4 ! q 0 4 0 q 0 0 4 ",
"2 0 q q q q 0 q q w > 6 $ $ $ $ j = a a p p p u 6.i.8.u.0.s t.e.8.q./ { p.8.0.6.i s i s s   j $ $ $ $ $ J $ 0 w ! 0 r q 0 0 0 1 ",
"1 0 0 q 0 q q 0 q w 4 f $ $ $ $ j * s p p a i u 6.w.y 0.0.a t.8./ u u &.u.[ d i s s s i s o f $ $ $ $ $ J @ 0 w q 0 0 q q 0 q 1 ",
"1 q q q q 0 q q q w 3 6 $ $ $ $ j - s p p p i u &.r.[ r.w.s y.r.&.i u &.p.w.) i s i i i s o j $ $ $ $ $ L @ 4 ! q 0 0 0 0 q 0 1 ",
"1 q q q q q 0 q q q 3 6 $ $ $ $ j - s s s p s p &.8.0.0.1.s 7.[ u s i [ 8.s i s s s s s s O h $ $ $ $ $ L @ 0 q w w 0 q q q 0 1 ",
"1 q q q q q q q w r > 6 % + $ $ f   - - - - - - * * * * $ - * * = - - * * = - - - - - - -   , @ $ $ $ $ L * 7 ! q q q q q q q 2 ",
"1 q q q q q q q q q < 8 + $ $ $ W H H C J H C J H H C H H n H H H H C H H C H H H H C H H H ` $ $ $ $ $ J @ 0 q q q 0 0 w w 0 4 ",
"2 q q q q q 0 w q q 6 6 $ $ $ $ $ $ + $ $ @ $ $ @ $ + + $ $ $ $ + $ + $ + $ $ $ + $ + $ $ $ $ $ $ $ $ $ J $ 0 w q q q q w 0 q 4 ",
"2 q q q q 0 0 q q w 1 u $ $ $ $ $ $ $ $ + $ $ $ $ $ $ $ $ $ b Z Z C $ $ $ $ $ $ $ $ $ $ $ $ $ $ $ $ $ $ L @ q q q 0 q q q q 0 4 ",
"1 q q q q 0 0 q q w 4 , $ $ $ $ $ $ $ $ $ $ $ $ $ $ $ $ $ $ +   +   h $ $ $ $ $ $ $ $ $ $ $ $ $ $ $ $ $ L @ q q q q q q q 0 0 4 ",
"1 q q q q 0 0 q w w : 8 $ + $ $ $ $ $ $ $ $ $ $ $ $ $ $ $ $ O . ;   h + $ $ $ $ $ $ $ $ $ $ $ $ $ $ $ $ P $ q q q 0 q q q 0 q 4 ",
"2 q q q q 0 0 q w w N c G % $ $ $ $ $ $ $ $ $ $ $ $ $ $ $ $ 5 > > 5 $ @ $ $ $ $ $ @ $ $ @ # $ $ $ $ # E C 9 q 0 0 0 0 q q q 0 1 ",
"1 q q w q 0 0 q w q w t > L A A Z Z C H Z H Z C H H Z H Z Z , $ $ 3 Z H H Z H C H Z C H C Z Z C C L ` 9 ! r w q q 0 0 q q q 0 4 ",
"2 q q w q 0 0 q w w w t t r + . O % $ & & & % < & % & % % & % & % % & $ & % & & & & & % % % % . O $ 4 ! ! q w q q 0 0 q q 0 0 1 ",
"1 w q t w 0 0 w w w w t ! 1 2 % @ 4 4 w w q 0 w w w ! 0 0 w w w w w w w w q 0 e q w w 4 0 4 7 & $ 4 3 ! ! 0 0 w 0 0 0 w w 0 w 4 ",
"2 q q q w q 0 w w q q t ! 1 4 % & 4 4 ! ! 0 0 w w ! w 0 0 w w w w w w w w r q w q 0 w 0 q 4 7 @ % 4 4 ! ! w w 0 q 0 0 w w w 0 1 ",
"2 q q q w q q q w w q ! t 2 4 % % 4 4 ! ! q q w w ! w 0 0 0 w w w w t w q 0 0 q q ! ! 0 0 7 7 & % 4 4 ! ! w w w 0 0 0 q ! q q 1 ",
"4 w q t w w w w w q q ~ ~ 2 2 % & 0 4 ~ ! 4 0 w w w ! 0 0 w q w w w w w q q q q 0 ! q 0 0 4 7 & % 4 3 ! ! w w 0 0 0 0 ! w 0 0 1 ",
"1 q w w q t q ! ~ q q ~ ~ 2 2 % % 4 4 ! ! w w w q ! ! 0 q w w w q ! w w w q q q q ! ! 0 q 4 4 & < 4 4 ! ! w w w 0 0 0 w w 0 0 4 ",
"2 q w w q q q ~ t q q ~ ~ 2 2 % % 4 4 ! ! w w q w ! ! 0 0 q w w q w ! w w q q q 0 q ! 0 0 0 4 @ @ 4 4 ! ! 0 w w w 7 0 q ! q 0 1 ",
"2 q w w q t t t t w q ~ ~ 1 2 % % 4 4 ! ! w 0 q w w w q q q w w w ! w w q q q w ! ! ! q 0 4 4 & & 4 4 ! ! w w w w 0 0 ! ! q q 2 ",
"1 2 1 4 2 2 2 2 2 2 1 1 2 2 1 2 1 1 4 1 4 1 1 4 4 1 4 4 1 1 4 1 1 1 1 2 2 2 2 2 1 1 1 2 1 1 1 1 1 1 1 1 2 1 1 1 1 1 1 1 1 2 1 1 "
};
