/* XPM */
static char *_7d29ad2e4854859c5e879424aafee3dsFsY0LP5sdNZphC3[] = {
/* columns rows colors chars-per-pixel */
"64 64 184 2 ",
"   c None",
".  c black",
"X  c #040404",
"o  c gray2",
"O  c #060606",
"+  c #060607",
"@  c #070707",
"#  c #070708",
"$  c gray3",
"%  c #080909",
"&  c #0A0B0B",
"*  c #0B0B0C",
"=  c gray5",
"-  c #0E0E0E",
";  c #0E0F0F",
":  c gray6",
">  c #101111",
",  c #111111",
"<  c gray7",
"1  c #121213",
"2  c #121313",
"3  c #131313",
"4  c gray8",
"5  c #141415",
"6  c #151516",
"7  c #161617",
"8  c #161717",
"9  c #181818",
"0  c #191919",
"q  c #1A1919",
"w  c #19191A",
"e  c #1A1A1B",
"r  c #1B1B1C",
"t  c #1B1C1C",
"y  c #1C1D1D",
"u  c #1E1D1D",
"i  c #1F1E1E",
"p  c #1F2021",
"a  c #202021",
"s  c #202121",
"d  c #202122",
"f  c #222223",
"g  c #222323",
"h  c #222324",
"j  c #232324",
"k  c #242425",
"l  c #262627",
"z  c #262727",
"x  c #262728",
"c  c #272728",
"v  c #29292A",
"b  c #2A292A",
"n  c #2A2A2B",
"m  c #2A2B2C",
"M  c #2E2D2E",
"N  c #2F2E2F",
"B  c #323131",
"V  c #333131",
"C  c #303032",
"Z  c #313233",
"A  c #333232",
"S  c #323233",
"D  c #343232",
"F  c #323334",
"G  c #353434",
"H  c #363535",
"J  c #38383A",
"K  c #39393A",
"L  c #3B3C3D",
"P  c #3C3C3D",
"I  c #3C3C3E",
"U  c #3C3D3E",
"Y  c #3D3D3E",
"T  c #3C3C3F",
"R  c #3D3E3F",
"E  c #3F3E3E",
"W  c #403E3E",
"Q  c #403F3F",
"!  c #3E3E40",
"~  c #3F3F40",
"^  c #424141",
"/  c #404042",
"(  c #424143",
")  c #414243",
"_  c #424244",
"`  c #434345",
"'  c #444346",
"]  c #444446",
"[  c #444546",
"{  c #454547",
"}  c #464648",
"|  c #464749",
" . c #47484A",
".. c #48484A",
"X. c #48484C",
"o. c #49494C",
"O. c #4A4A4D",
"+. c #4B4B4E",
"@. c #4C4C4F",
"#. c #4D4D4F",
"$. c #514F4F",
"%. c #4E4E50",
"&. c #4F5052",
"*. c #525050",
"=. c #535151",
"-. c #505052",
";. c #505152",
":. c #505153",
">. c #515153",
",. c #515254",
"<. c #525355",
"1. c #535456",
"2. c #545557",
"3. c #555658",
"4. c #565759",
"5. c #57585A",
"6. c #58595B",
"7. c #5C5A5A",
"8. c #5D5B5B",
"9. c #585A5C",
"0. c #595A5C",
"q. c #5A5B5D",
"w. c #606061",
"e. c #606162",
"r. c #616263",
"t. c #68686D",
"y. c #6F6C6C",
"u. c #706E6E",
"i. c #716E6E",
"p. c #6F6F74",
"a. c #737070",
"s. c #767373",
"d. c #717177",
"f. c #777474",
"g. c #7A7777",
"h. c #7B7878",
"j. c #7C7979",
"k. c #7D7A7A",
"l. c #7E7B7B",
"z. c #7F7B7B",
"x. c #7F7C7C",
"c. c #807D7D",
"v. c #828289",
"b. c #83838A",
"n. c #84858B",
"m. c #86868C",
"M. c #87878E",
"N. c #8D8E8F",
"B. c #898990",
"V. c #8A8A90",
"C. c #8A8A91",
"Z. c #8E8E95",
"A. c #8F8F96",
"S. c #909092",
"D. c #9999A0",
"F. c #9A9AA2",
"G. c #9E9EA5",
"H. c #9E9EA6",
"J. c #A0A0A8",
"K. c #A1A1A9",
"L. c #A3A3AB",
"P. c #A4A4AC",
"I. c #A5A5AC",
"U. c #A5A5AD",
"Y. c #A6A6AD",
"T. c #A6A6AE",
"R. c #A7A7AF",
"E. c #A8A8B0",
"W. c #A9A9B1",
"Q. c #AAAAB2",
"!. c #AAAAB3",
"~. c #ABABB3",
"^. c #ADAEB0",
"/. c #ACACB4",
"(. c #B0B0B2",
"). c #C5C5C7",
"_. c #C5C6C7",
"`. c #C5C6C8",
"'. c #C6C6C8",
"]. c #C6C7C9",
"[. c #C8C9CB",
"{. c #D2D3D5",
"}. c #D3D4D6",
"|. c #D5D6D8",
/* pixels */
"  O > > 4 2 2 2 2 3 2 2 3 2 2 3 4 2 2 2 2 3 2 2 3 2 2 3 4 2 2 2 2 3 2 2 3 2 2 3 4 2 2 2 2 3 2 2 3 2 2 3 4 2 2 2 2 3 2 2 3 > O   ",
"O Z >.,.&.>.>.>.>.>.,.&.>.>.>.>.&.>.>.>.>.>.,.&.>.>.>.>.&.>.>.>.>.>.,.&.>.>.>.>.&.>.>.>.>.>.,.&.>.>.>.>.&.>.>.>.>.>.,.&.>.>.C O ",
"q ,.6.5.5.5.5.5.5.5.5.5.5.5.5.5.5.5.5.5.5.5.5.5.5.5.5.5.5.5.5.5.5.5.5.5.5.5.5.5.5.5.5.5.5.5.5.5.5.5.5.5.5.5.5.5.5.5.5.5.5.9.>.8 ",
"r 2.5.5.5.5.5.5.5.5.5.5.5.5.5.5.5.5.5.5.5.5.5.5.5.5.5.5.5.5.5.5.5.5.5.5.5.5.5.5.5.5.5.5.5.5.5.5.5.5.5.5.5.5.5.5.5.5.5.5.5.5.1.q ",
"* ) 6.6.6.6.6.6.6.6.6.6.5.9.6.6.6.6.6.6.6.6.6.6.5.9.6.6.6.6.6.6.6.6.6.6.5.9.6.6.6.6.6.6.6.6.6.6.5.9.6.6.6.6.6.6.6.9.6.6.5.9./ & ",
"  : k c c k z c c c c c c c c c c c c c c c c c c c c c c c c c c c c c c c c c c c c c c c c c c c c c c c c c v c k z c k ;   ",
"            i $.$.$.$.$.$.$.$.$.$.$.$.$.$.$.$.$.$.$.$.$.$.$.$.$.$.$.$.$.$.$.$.$.$.$.$.$.$.$.$.$.$.$.$.$.$.$.$.$.$.u             ",
"            D c.c.c.c.c.c.c.c.c.c.c.c.c.c.c.x.l.c.c.c.c.c.c.c.c.c.c.c.c.c.c.c.c.c.c.c.c.c.c.x.x.c.c.c.c.c.c.c.c.c.Z             ",
"            B z.l.l.z.h.g.h.g.g.h.h.h.h.h.g.h.h.h.h.h.h.h.h.g.h.h.h.h.h.h.h.g.h.h.h.h.g.h.h.g.h.h.h.g.h.h.x.z.z.z.B             ",
"            B h.l.l.f.D M M N M N N M M M M M B M N M N M M M M M N M M M B M M M M M M M B M M M M M M H f.h.z.h.B             ",
"            V z.l.l.u.K m.C.C.C.V.V.M.N.M.V.V.V.M.V.V.V.C.M.N.C.V.V.M.V.V.V.V.V.V.V.M.V.V.V.V.V.M.C.C.m.J y.z.z.z.B             ",
"            Z h.l.c.y.` Y.~.~.~./.!.!.~./.~.~.~.~.~.~.~./.!.~.~.~.~.~./.~.~.~.~.~.~.~./.~.~.~.~.~.~.W.Y.) p.z.z.z.B             ",
"            Z z.z.x.y.` Y.W.W.W.W.W.W.W.W.W.W.W.~.W.W.W.W.W.W.W.W.W.W.W.W.W.W.W.W.W.W.W.W.W.W.W.W.W.W.I.( u.c.z.z.Z             ",
"            D z.z.x.y.` L.W.W.W.W.W.W.W.W.W.W.W.W.W.W.W.W.W.W.W.W.W.W.W.W.W.W.W.W.W.W.W.W.W.W.W.W.W.W.I.) u.c.z.h.Z             ",
"            Z h.z.x.y.` Y.W.W.W.W.W.W.W.W.W.W.W.W.W.W.W.W.W.W.W.W.W.W.W.W.W.W.W.W.W.W.W.W.W.W.W.W.W.W.L.) u.z.z.z.B             ",
"            D h.z.x.y.` L.W.W.W.W.W.W.W.W.W.W.W.W.W.W.W.W.W.W.W.W.W.W.W.W.W.W.W.W.W.W.W.W.W.W.W.W.W.W.L.) y.z.z.z.B             ",
"            D z.x.x.y.` P.W.W.W.W.W.W.W.W.W.W.W.W.W.W.W.W.W.W.W.W.W.W.W.W.W.W.W.W.W.W.W.W.W.W.W.W.W.W.L.( u.c.z.j.N             ",
"            N z.x.x.y.` P.W.W.W.W.W.W.W.W.W.W.W.W.W.W.W.W.W.W.W.W.W.W.W.W.W.W.W.W.W.W.W.W.W.W.W.W.W.W.L.) u.c.z.z.D             ",
"            Z z.h.x.y.` P.W.W.W.W.W.W.W.W.W.W.W.W.W.W.W.W.W.W.W.W.W.W.W.W.W.W.W.W.W.W.W.W.W.W.W.W.W.W.L.) u.z.z.z.Z             ",
"            N z.x.x.y.` P.W.W.W.W.W.W.W.W.W.W.W.W.W.W.W.W.W.W.W.W.W.W.W.W.W.W.W.W.W.W.W.W.W.W.W.W.W.W.L.) y.z.z.z.N             ",
"            D z.x.x.y.` P.W.W.W.W.W.W.W.W.W.W.W.W.W.W.W.W.W.W.W.W.W.W.W.W.W.W.W.W.W.W.W.W.W.W.W.W.W.W.L.) u.z.z.z.Z             ",
"            N z.x.x.y.` P.W.W.W.W.W.W.W.W.W.W.W.W.W.W.W.W.W.W.W.W.W.W.W.W.W.W.W.W.W.W.W.W.W.W.W.W.W.W.L.) u.z.z.h.Z             ",
"            D z.h.x.y.` P.W.W.W.W.W.W.W.W.W.W.W.W.W.W.W.W.W.W.W.W.W.W.W.W.W.W.W.W.W.W.W.W.W.W.W.W.W.W.L.( u.c.z.z.B             ",
"            N z.x.x.y.` P.W.W.W.W.W.W.W.W.W.W.W.W.W.W.W.W.W.W.W.W.W.W.W.W.W.W.W.W.W.W.W.W.W.W.W.W.W.W.L.( u.c.c.z.B             ",
"            D z.z.z.y.) P.W.W.W.W.W.W.W.W.W.W.W.W.W.W.W.W.W.W.W.W.W.W.W.W.W.W.W.W.W.W.W.W.W.W.W.W.W.W.L.` u.z.z.h.B             ",
"            Z z.z.z.y.` P.W.W.W.W.W.W.W.W.W.W.W.W.W.W.W.W.W.W.W.W.W.W.W.W.W.W.W.W.W.W.W.W.W.W.W.W.W.W.L.) y.x.z.z.B             ",
"            B h.z.x.y.` P.W.W.W.W.W.W.W.W.W.W.W.W.W.W.W.W.W.W.W.W.W.W.W.W.W.W.W.W.W.W.W.W.W.W.W.W.W.W.L.) u.z.z.z.B             ",
"            B z.z.z.y.` P.W.W.W.W.W.W.W.W.W.W.W.W.W.W.W.W.W.W.W.W.W.W.W.W.W.W.W.W.W.W.W.W.W.W.W.W.W.W.L.( u.z.z.h.B             ",
"            B z.z.x.y.` P.W.W.W.W.W.W.W.W.W.W.W.W.W.W.W.W.W.W.W.W.W.W.W.W.W.W.W.W.W.W.W.W.W.W.W.W.W.W.L.( u.c.z.z.Z             ",
"            B h.h.x.y.` P.W.W.W.W.W.W.W.W.W.W.W.W.W.W.W.W.W.W.W.W.W.W.W.W.W.W.W.W.W.W.W.W.W.W.W.W.W.W.L.) u.c.z.h.Z             ",
"            Z z.x.x.y.` P.W.W.W.W.W.W.W.W.W.W.W.W.W.W.~.W.~.W.~.W.W.W.W.W.W.W.W.W.W.W.W.W.W.W.W.W.W.W.L.) u.z.z.z.B             ",
"            D z.x.x.y.` P.W.W.W.W.W.W.W.W.W.W.W.W.!.!.!.!./.!./././././././.~.W.W.W.W.W.W.W.W.W.W.W.W.L.) y.z.z.z.B             ",
"            N z.x.x.y.` L.W.W.W.W.W.W.W.W.W.W.W.R.v.t.t.t.t.t.t.t.t.t.t.t.t.b.W.W.W.W.W.W.W.W.W.W.W.W.L.( u.c.k.j.V             ",
"            D z.x.x.y.` L.W.W.W.W.W.W.W.W.W.W.!.d.! r.r.r.r.r.r.r.r.r.r.r.w.Y d.!.W.W.W.W.W.W.W.W.W.W.L.( u.c.j.k.V             ",
"            N z.x.x.y.` Y.!.W.W.W.W.W.W.W.W./.L.| (.|.}.}.}.{.}.}.}.}.}.}.}.~...J.W.W.W.W.W.W.W.W.W.W.L.( u.x.x.k.D             ",
"            Z h.k.x.y.' L.E.W.W.W.W.W.W.W.W.(.A.#.[.{.{.{.{.{.{.{.{.{.{.}.}.'.#.F.!.W.W.W.W.W.W.W.W.W.L.( u.x.k.k.N             ",
"            D z.x.x.y.` Y.W.W.W.W.W.W.W.W.W.W.Y.o.S.'._.'.'._._.).)._._._._.N.+.P.!.W.W.W.W.W.W.W.W.W.L.( i.x.x.z.Z             ",
"            D z.k.x.y.` L.W.W.W.W.W.W.W.W.W.W./.M.Y Y Y Y Y Y Y Y Y Y Y Y Y ! M.!.W.W.W.W.W.W.W.W.W.W.L.( i.x.k.z.D             ",
"            N x.x.x.y.` L.!.W.W.W.W.W.W.W.W.W.W.W.H.Z.Z.Z.Z.Z.Z.Z.Z.Z.Z.A.A.H.~.W.W.W.W.W.W.W.W.W.W.W.L.( i.x.x.z.N             ",
"            Z h.k.x.y.` L.W.W.W.W.W.W.W.W.W.W.W.W.W.~.~.W./././.~.~.~.~.~.~.W.W.W.W.W.W.W.W.W.W.W.W.W.L.( i.x.x.z.Z             ",
"            D z.x.x.y.` L.W.W.W.W.W.W.W.W.W.W.W.W.W.W.W.W.W.W.W.W.W.W.W.W.W.W.W.W.W.W.W.W.W.W.W.W.W.W.L.) u.x.l.z.N             ",
"            N z.h.x.y.` L.W.W.W.W.W.W.W.W.W.W.W.W.W.W.W.W.W.W.W.W.W.W.W.W.W.W.W.W.W.W.W.W.W.W.W.W.W.W.L.( u.x.l.z.Z             ",
"            Z z.z.x.y.` L.W.W.W.W.W.W.W.W.W.W.W.W.W.W.W.W.W.W.W.W.W.W.W.W.W.W.W.W.W.W.W.W.W.W.W.W.W.W.L.( u.x.l.h.Z             ",
"            N z.z.x.y.` Y.W.W.W.W.W.W.W.W.W.W.W.W.W.W.W.W.W.W.W.W.W.W.W.W.W.W.W.W.W.W.W.W.W.W.W.W.W.~.L.( u.x.l.z.N             ",
"            D z.z.x.y.` L.!.E.E.W.W.!.E.W.W.W.W.W.W.W.W.W.W.W.W.W.W.W.W.W.W.W.W.W.W.W.W.W.W.E.W.W.W.W.L.` u.l.l.z.D             ",
"            N z.z.x.y.` Y.!.!.E.!.W.!.E.W.!.!.W.W.W.W.W.~.W.~.W.~.W.W.~.W.~.W.W.!.W.W.W.W.!.W.!.~.W.~.L.` y.x.l.z.Z             ",
"            D z.z.z.u.b X.%.%.%.%.%.%.%.%.%.%.%.#.#.#.#.#.@.#.#.+.+.%.+.%.+.%.%.%.%.%.%.%.%.%.%.+.+.+.o.m a.z.z.h.B             ",
"            N z.z.c.j.9.*.*.*.*.*.*.*.*.*.*.*.*.=.=.$.=.=.>.=.>.=.=.=.=.=.=.*.=.*.=.*.*.*.*.*.*.=.=.=.=.8.h.h.z.z.B             ",
"            D z.z.z.l.x.x.x.x.x.x.x.x.x.x.x.x.x.x.x.x.c.l.x.x.x.c.c.c.c.c.c.l.l.x.x.x.x.x.x.x.z.c.c.c.c.x.x.z.x.h.Z             ",
"            Z z.h.z.l.l.x.x.x.x.z.z.x.x.x.x.x.x.x.x.x.x.z.z.x.l.l.l.l.l.l.l.l.z.x.x.x.l.x.z.z.z.c.c.z.z.z.x.h.x.z.Z             ",
"            N z.z.h.x.l.l.l.x.l.z.h.z.z.x.h.x.h.h.x.x.x.z.h.z.z.l.l.l.l.l.l.z.z.x.l.l.l.l.l.z.z.z.z.z.z.z.h.z.z.z.B             ",
"            V z.z.z.l.l.l.l.l.l.z.z.z.z.x.z.x.x.x.x.x.h.z.z.z.c.l.l.l.l.l.l.z.c.l.l.l.l.l.l.z.z.z.h.z.z.z.z.z.z.h.Z             ",
"            Z c.c.c.c.c.x.x.c.c.c.c.c.c.c.c.c.c.x.x.c.c.c.c.c.c.c.c.c.c.c.c.c.c.x.c.c.c.c.c.c.c.x.x.c.c.c.c.c.c.c.Z             ",
"            q Q Q Q Q Q Y ^ Q Q Q Y Q Q Q ^ ) ) ) ` ) ) ^ ^ ( ) ) ^ ^ ^ ( ) ^ ^ ) ) ^ Q Y ( Q Q Q Y Q Q Q Q Y ( Y q             ",
"            7 Z Z D H Z Z H Z Z H F F D 7 .                                         . 7 D F F F F F F H Z D F D Z 3             ",
"            j 5.9.6.9.9.9.9.9.6.9.9.9.9.v                                             v q.9.9.9.9.9.9.9.6.6.9.9.6.k             ",
"            j 4.5.5.5.5.5.5.5.5.6.6.2.[ q                                             r [ 4.9.4.5.5.5.5.5.5.5.5.4.f             ",
"            j 4.5.5.5.5.5.5.5.5.6.[ f @                                                 $ p | 5.5.5.5.5.5.5.5.5.4.f             ",
"            j 4.5.5.5.5.5.5.5.6.Y ;                                                         : ! 5.5.5.5.5.5.5.5.4.f             ",
"            j 4.5.5.5.5.5.5.6.` ;                                                             ; [ 9.5.5.5.5.5.5.4.f             ",
"            j 4.5.5.5.5.5.5.1.r                                                                 u ,.5.5.5.5.5.5.5.f             ",
"            j 5.5.5.5.5.5.9.Y X                                                                 O L 9.5.5.5.5.5.4.f             ",
"            f &.>.&.>.>.>.,.f                                                                     k ,.&.>.>.>.>.>.p             ",
"            $ 3 3 3 3 3 3 > O                                                                     $ > 4 3 3 2 3 2 O             "
};
