/* XPM */
static char *RQ__[] = {
/* columns rows colors chars-per-pixel */
"64 64 16 1 ",
"  c #558757",
". c #5E8B60",
"X c #679069",
"o c #709471",
"O c #789879",
"+ c #809C81",
"@ c #87A088",
"# c #8FA48F",
"$ c #96A896",
"% c #9DAC9D",
"& c #A4B0A3",
"* c #AAB3AA",
"= c #B1B7B0",
"- c #B7BBB6",
"; c #BDBEBC",
": c #C3C2C2",
/* pixels */
"::::::::::::::::::::::::::::::::::::::::::::::::::::::::::::::::",
"::::::::::::::::::::::::::::::::::::::::::::::::::::::::::::::::",
"::                                                            ::",
"::                                                            ::",
"::                                                            ::",
"::                                                            ::",
"::                                                            ::",
"::                                                            ::",
"::                                                            ::",
"::                                                            ::",
"::                                                            ::",
"::                                                            ::",
"::                                                            ::",
"::                                                            ::",
"::                    #;::::::::::::::::*O                    ::",
"::                   $::::::::::::::::::::O                   ::",
"::                  X:::::::::::::::::::::=                   ::",
"::                  #::::::::::::::::::::::                   ::",
"::                  $:::::::::::::::::::::;                   ::",
"::                  %:::::::::::::::::::::=                   ::",
"::                  %:::::::::::::::::::::O                   ::",
"::                  %:::::::::::::::::::*O                    ::",
"::                  %:::::::*                                 ::",
"::                  %:::::::*                                 ::",
"::                  %::::&@                                   ::",
"::                  %::;O                                     ::",
"::                  %:-X                                      ::",
"::                  %:o X#:::::::::::::*O                     ::",
"::                  %# #:::::::::::::::::o                    ::",
"::                  $.#::::::::::::::::::=                    ::",
"::                  oo::::::::::::::::::::                    ::",
"::                   *::::::::::::::::::::.                   ::",
"::                  o::::::::::::::::::::=                    ::",
"::                  #::::::::::::::::::::+                    ::",
"::                  $::::::::::::::::::*+                     ::",
"::                  %:::::::*                                 ::",
"::                  %:::::::*                                 ::",
"::                  %:::::::*                                 ::",
"::                  %:::::::*                                 ::",
"::                  %:::::::*                                 ::",
"::                  %:::::::::::::::::::=@                    ::",
"::                  %:::::::::::::::::::::#                   ::",
"::                  %:::::::::::::::::::::;                   ::",
"::                  $::::::::::::::::::::::X                  ::",
"::                  #::::::::::::::::::::::X                  ::",
"::                  X:::::::::::::::::::::;                   ::",
"::                   $::::::::::::::::::::#                   ::",
"::                    #;::::::::::::::::=@                    ::",
"::                                                            ::",
"::                                                            ::",
"::                                                            ::",
"::                                                            ::",
"::                                                            ::",
"::                                                            ::",
"::                                                            ::",
"::                                                            ::",
"::                                                            ::",
"::                                                            ::",
"::                                                            ::",
"::                                                            ::",
"::                                                            ::",
"::                                                            ::",
"::::::::::::::::::::::::::::::::::::::::::::::::::::::::::::::::",
"::::::::::::::::::::::::::::::::::::::::::::::::::::::::::::::::"
};
