/* XPM */
static char *_d024f44724f4f0d821322eb899e1ad7uiGYoLqeRxKMrHIx[] = {
/* columns rows colors chars-per-pixel */
"32 32 14 1 ",
"  c #D1A303",
". c #D0A51C",
"X c #CEA940",
"o c #CDAA4D",
"O c #CAB072",
"+ c #C9B27B",
"@ c gray65",
"# c #C7B385",
"$ c #C6B48F",
"% c #C5B699",
"& c #C4B8A2",
"* c #C3BAA9",
"= c #C2BBB2",
"- c #C2BDBA",
/* pixels */
"@@@@@@@@@@@@@@@@@@@@@@@@@@@@@@@@",
"@                              @",
"@                              @",
"@                              @",
"@                              @",
"@                              @",
"@                              @",
"@                              @",
"@                              @",
"@          o--------*X         @",
"@          &---------O         @",
"@          *--------*X         @",
"@          *---                @",
"@          *%o                 @",
"@          #o*------+          @",
"@          o---------.         @",
"@          $--------#          @",
"@          *---                @",
"@          *---                @",
"@          *---                @",
"@          *--------=X         @",
"@          &---------#         @",
"@          o--------=X         @",
"@                              @",
"@                              @",
"@                              @",
"@                              @",
"@                              @",
"@                              @",
"@                              @",
"@                              @",
"@@@@@@@@@@@@@@@@@@@@@@@@@@@@@@@@"
};
