/* XPM */
static char *_e1d8c0eceb84ffaa812a61e5eac9242RRgGIPcYyFEXpuw6[] = {
/* columns rows colors chars-per-pixel */
"64 64 108 2 ",
"   c #000000",
".  c #0B0C0C",
"X  c #0E0F12",
"o  c #0F1012",
"O  c #111315",
"+  c #141618",
"@  c #16181A",
"#  c #191818",
"$  c #251C00",
"%  c #382C01",
"&  c #222223",
"*  c #282523",
"=  c #252628",
"-  c #27292B",
";  c #2C2D2E",
":  c #312E2C",
">  c #2F2F30",
",  c #302F31",
"<  c #2F3030",
"1  c #343434",
"2  c #363837",
"3  c #373738",
"4  c #383738",
"5  c #373838",
"6  c #393A3A",
"7  c #413300",
"8  c #574500",
"9  c #5D4A01",
"0  c #6C5701",
"q  c #7B6301",
"w  c #3F3F40",
"e  c #403F40",
"r  c #3F4040",
"t  c #444545",
"y  c #4A4644",
"u  c #4D4946",
"i  c #474748",
"p  c #484748",
"a  c #474848",
"s  c #4B4B4C",
"d  c #4F4F50",
"f  c #504F50",
"g  c #4F5050",
"h  c #535454",
"j  c #575758",
"k  c #585758",
"l  c #575858",
"z  c #5B5B5C",
"x  c #665D58",
"c  c #685F59",
"v  c #5F605F",
"b  c #6A615C",
"n  c #5E5F60",
"m  c #605F60",
"M  c #5F6060",
"N  c #636465",
"B  c #676867",
"V  c #6F6964",
"C  c #676768",
"Z  c #686768",
"A  c #676868",
"S  c #6B6B6C",
"D  c #766E6A",
"F  c #7C746F",
"G  c #6F6F70",
"H  c #6F7071",
"J  c #737374",
"K  c #7B7572",
"L  c #777877",
"P  c #777778",
"I  c #78777A",
"U  c #777879",
"Y  c #7B7B7C",
"T  c #886E02",
"R  c #8C7000",
"E  c #947802",
"W  c #9B7D00",
"Q  c #7F807F",
"!  c #A08202",
"~  c #A98800",
"^  c #B79400",
"/  c #C49E00",
"(  c #CBA604",
")  c #D1AA01",
"_  c #DFB604",
"`  c #E8BC00",
"'  c #F3C500",
"]  c #FECE00",
"[  c #7E7F80",
"{  c #807F81",
"}  c #7E8081",
"|  c #838384",
" . c #8D8786",
".. c #878887",
"X. c #8E8987",
"o. c #868788",
"O. c #888789",
"+. c #878889",
"@. c #8B8B8C",
"#. c #8E8F90",
"$. c #908F91",
"%. c #8F9091",
"&. c #939495",
"*. c #969897",
"=. c #969798",
"-. c #989799",
";. c #979899",
":. c #989999",
/* pixels */
"5 1 & & & & & & & & & & & & & & & & & & & & & & & & & & & & & & & & & & & & & & & & & & & & & & & & & & & & & & & & & & & * < 4 ",
"5 5 1 ; 1 1 1 1 1 1 3 3 3 3 3 3 5 5 5 5 5 5 6 5 6 6 4 6 6 6 6 6 4 4 5 5 5 5 6 6 2 2 5 5 w 2 5 2 5 5 5 1 3 3 3 1 1 1 < 1 ; < 5 5 ",
"5 t p p s g h j l z j z z z z z M v z v m n n z n x z z n z n m x n n z n z z n n n n M n n n n n n n j j l l z h h s s p s i 5 ",
"5 a j z z z N N N A A A S S S S S S S S D G G S G G G G G S G G G G G G G G G G G G S H C S S S S S S S S S A A N N v z z l p 4 ",
"5 h C G J L I Y | | | o.....O.O.+.@.@.@.@.@.O.@.@.@.O.@.O.@.@.@.@.@.@.@.O.@.@.O.} %.@.@.+.@.@.+.o.o.@.O.o.o.} } Q Y L H S B f 5 ",
"5 j S L Y [ | O.@.%.&.=.*.*.-.:.;.;.;.;.;.:.:.=.=.=.=.=.:.:.:.-.:.=.-.-.:.:.:.-.;.;.;.;.=.=.=.;.=.=.&.&.&.%.%.#...| Q Q I J l 6 ",
"6 j S J J L I Y | O.+.@.@.@.@.@.@.%.#.#.#.#.#.@.#.#.#.#.#.#.#.@.#.#.#.@.#.@.$.#.@.@.#.#.#.@.@.@.#.#.#.@.#.@.o.o.Q L J J J S j 6 ",
"5 i s f s h j j z z n n M M M M z v v z v v n n n n n n n n n m n n m m m M n n n M n n n M n n n n n n n z l l l h f g f f t 4 ",
"5 3 1 < ; 1 1 3 3 3 3 3 5 5 5 5 5 5 5 3 3 3 5 5 5 6 4 4 5 5 5 5 3 6 6 3 3 3 5 5 5 3 3 3 3 5 5 5 5 3 5 5 4 2 4 2 2 3 1 ; < 1 4 4 ",
"5 r 6 5 6 w r t t i i i i p p s a a s s s s s a s p s s s s s p p p p s s s s p s s s s s s s s s p i i a a i i t r r 6 6 6 r 4 ",
"5 i d s h h j l z z z z n n N N N b N N M N N N N N N N N N N N N N N N N N N N N m N N M M N M N N z n z v z z l l l h g g a 2 ",
"5 s z N N A S S G J J L L J P P L L L L I I I I I L I I I I I I I Y I I P Y I I P P P P U U U U P L L L J J J J S S B N b z s 2 ",
"5 h S J I Y | | +.@.#.#.#.#.&.&.&.&.&.%.&.&.&.&.&.&.&.&.&.&.&.&.&.&.$.&.&.$.&.$.%.&.%.&.%.&.%.%.#.&.#.%.#.@.@.+.| } Y I H H g 6 ",
"6 z G I Y } | O.@.%.%.&.=.=.&.=.;.;.*.=.=.;.=.=.*.=.=.=.-.:.-.-.-.=.=.-.:.:.-.=.=.=.;.=.;.:.=.&.=.=.=.=.=.&.%.@...| | Y I H l 6 ",
"5 h N Z A S S J P I Y [ [ } } Y } } Y | | Y } { [ | [ [ | } | } [ [ [ [ { [ [ [ [ [ [ [ [ } [ [ [ | Y Y } Y I L J S S A A N g 6 ",
"6 6 t 6 6 t i a a s s s s s s s s s s s s s s s s s s p s s p s s d s s d d s s d s s s s s s s s s s s s s p a a i r w w r r 5 ",
"6 6 1 ; , 1 3 3 3 5 5 3 3 5 6 6 6 3 6 6 6 6 6 6 5 6 6 6 6 6 6 6 6 5 6 5 6 6 5 5 6 6 6 6 6 6 3 w 5 5 6 5 3 5 5 5 6 1 1 ; : 1 3 2 ",
"6 t i t i i p p h f d h h h h # # # # + # # # # # # # # # # # # # # # # # # # # # # # # # @ @ @ # # h h g h h s s s i i t i t 5 ",
"4 p h h j z n N N N N N C C # ] ] ] ] ] ] ] ] ] ] ] ] ] ] ] ] ] ] ] ] ] ] ] ] ] ] ] ] ] ] ] ] ] ] ] # N N N N N m z z k j h a 2 ",
"6 s m A S J J L Y Y Y | { # ] ] ] ] ] _ $             / ] ] ] ] ] ] ] ] _   7 ` ] ] ] ] ] ] ] ] ] ] ] # [ [ [ Y I L J S A N s 5 ",
"5 j G P I | | o.@.&.&.&.# ] ] ] ] ] ] ~               / ] ] ] ] ] ] ] ] )   7 ` ] W   T ] ] ] ] ] ] ] ] @ #.#.@...| | Y L H j 5 ",
"6 h G L I Y Y | O.@.#.%.# ] ] ] ] ] ] ~     ~ ] ] ] ] ] ] ] ] ] ] ] ] ] ] ] ] ] ] 7   $ ] ] ] ] ] ] ] ] @ #.#.O.| Q I I L S j 6 ",
"6 s h l z z M N C A S S # ] ] ] ] ] ] ~ q ' ] ] ] ] ] ] ~   ^ ] ] W   ~ ' ~ ~ ' $         q ] ] ] ] ] ] @ S N N N v z l l j p 6 ",
"5 5 1 1 1 3 5 5 6 w 6 6 # ] ] ] ] ] ] ) /           7 ' 8     ^ ) 7   W ~     ~ $       . q ] ] ] _ _ ` # e w 6 5 2 1 1 1 3 5 5 ",
"6 6 5 3 5 5 6 6 r w w w # ] ] ] ] ] ] )             7 ' )       $ ~ 8 ' ~     ^ ] 7 ~ ] ] ] _ _ _ _ _ _ # 6 e r e 6 4 3 1 4 6 6 ",
"5 i s p s g j j z l j z # ] ] ] ] ] ] ~     ~ ] ] ] ] ] ] /       ~ ' ] ~     ^ ] ^ ~ 8 _ _ _ _ _ _ _ _ # z z z j j h s s s a 6 ",
"6 p z z M N N N S S S S # ] ] ] ] ] ] ~     ~ ] ] ] ] ] ] _ R       / ] ~     ^ _ T     _ _ _ _ _ _ _ _ # S S A B N N v z l a 2 ",
"5 h Z G J Y Y [ | +.+.@.# ] ] ] ] ] ] ~     ~ ] ] ] ] ] _ $ ~       $ _ ~     ! _ 9     ) _ _ _ _ _ _ ` # O.+.| Q Y Y J S B h 6 ",
"6 k J P Y | | O.@.%.&.&.# ] ] ] ] ] ] ~               / 8   q ) ~     0 E     ! ` q       % _ _ _ _ _ _ # &.&.@...| | Y Y H l 6 ",
"5 j A S G J L I [ | | o.O.# ] ] ] ] ] _ $             / W   / ] _ E   E /   $ ( _ ) 0     q _ _ _ _ ` @ o.| | Y I L J J S S h 6 ",
"5 t p p p p d h h j j j j j # ] ] ] ] ] ] ] ] ] ] ] ] ] ] ] ] _ _ _ _ _ _ _ _ _ ` _ _ ` _ _ ` _ _ _ @ j j j h h h s p p p a t 5 ",
"5 6 , ; < 1 1 3 3 5 3 3 3 3 3 + # # # # # # # # # # # # # # # # # # # # # # # @ @ @ @ # @ @ # @ @ @ 5 3 3 3 3 3 3 1 < 1 ; < 2 5 ",
"5 w t 6 w t t i s s a s s s s g f s h s d g g g s f f f f f h s d d s f f d s f g g g d d s d g d d d s s s a p p i r r 6 r r 5 ",
"5 i g g h j l z n M M M M N N N N N N B C A N A C N C Z Z N N Z C C C Z C C C N M M C C C M M M C M M n M M M M z z l h h h a 5 ",
"5 s n N C S G J J P I Y Y Y Y [ Y Y Y Y Y Y Y Y Y [ { Y Y [ Y { Y Y [ Y { Y Y [ [ [ [ [ [ [ [ [ [ [ [ [ I I U J H S S B N M s 5 ",
"5 j G J Y Y | | +.@.%.%.&.&.%.*.&.=.&.=.=.;.&.&.&.&.&.&.&.=.&.=.=.=.&.=.=.&.&.=.&.&.&.&.&.&.#.&.#.%.&.#.%.#.#.+...| Q Y L S h 6 ",
"6 z S I Y [ } O.@.%.&.&.&.&.&.=.*.*.*.*.*.;.*.*.=.=.&.=.*.-.*.-.=.=.=.=.*.*.-.=.&.;.=.;.&.=.=.&.&.&.&.&.&.&.#.#...| } Y I H j 5 ",
"6 d z N N C A S H J J P P P I I I I I L I Y I I I Y I I I I I I I P I L I I I I U U U U I U U U I I I I P U J G S A N N N v s 6 ",
"6 6 6 6 6 6 w t t i t i i t t i t a t t p a a p i i i i t t t i t t t i i p i t i i i r i i t t i i i r i i i t t r 6 6 6 6 6 6 ",
"6 5 1 1 < 1 3 5 6 6 6 5 w 6 6 6 6 6 r 6 6 6 6 6 6 w 6 6 y y p u u p u u 6 e 6 6 6 w 6 w 5 w w w w 5 5 w 5 5 5 6 5 3 1 1 < 1 5 6 ",
"5 t p i p s f h h h h j j j l l z l l z l z z z z z k z c b c c c c b x z z k z k z z z l l l l z z j j j j j h h s s a a p t 4 ",
"5 p h k z z z N N C N C A A S S S S S S S S S A S S G P x u e * : y : : K G S S S S S S G A G A A A A B N N N N N N z z l h a 2 ",
"6 f N S G L I Y [ [ | | O.o.O.+.o.o.....O.O.O.+.O.O.@.X.3 @ .     #   #  .@.....o.O.O.O.O.o.o.+.O.o.| o.o.| | Q I L L J S B f 5 ",
"6 k G I Y } | ..#.#.&.&.&.=.&.=.;.*.;.;.:.;.;.=.-.:.-.X.&         X . ; X.-.-.=.&.=.=.=.;.:.&.&.=.=.=.&.&.&.%.O...| Q Y I S l 6 ",
"6 l S J L I Y | o.@.@.#.#.#.#.%.#.&.$.&.&.&.%.@.$.&.$.@.V b b b V b b F @.%.&.&.%.%.%.%.%.%.#.#.#.&.@.$.$.@.O.o.| Y L J J S j 6 ",
"6 p h h h j z z N N N N C C A Z N A N Z B B A A S A N A F K K K K K K K A B B B A A A C A A C C B N B Z N Z N N z z l j h h s 6 ",
"6 5 1 ; < 1 3 3 5 5 6 5 5 6 5 6 5 6 5 5 5 5 5 6 5 5 5 5 5 6 6 6 5 6 6 6 6 5 6 4 5 5 5 6 6 6 6 6 5 5 5 5 5 6 5 2 5 3 < > ; 1 2 2 ",
"- - = & = = - - ; - - = = = = - = = = = - - - - = - - - - - - - ; - - - - = = = - - = = = = - - ; - = = = - = = = = = = - - - - ",
"O O O O O + @ O @ O + O o o O O O o O O o O O O o O O O O O O + + O + O O o X O O O o O O O O O + + o o O O O O O O O O @ @ O X ",
"                                                                                                                                ",
"                                                                                                                                ",
"                                                                                                                                ",
"                                                                                                                                ",
"                                                                                                                                ",
"                                                                                                                                ",
"                                                                                                                                ",
"                                                                                                                                ",
"                                                                                                                                ",
"                                                                                                                                ",
"                                                                                                                                ",
"                                                                                                                                ",
"                                                                                                                                ",
"                                                                                                                                ",
"                                                                                                                                "
};
