/* XPM */
static char *result[] = {
/* columns rows colors chars-per-pixel */
"64 64 233 2 ",
"   c #1B1D1E",
".  c #271B18",
"X  c #3A1D19",
"o  c #2B221D",
"O  c #34241C",
"+  c #39251B",
"@  c #2D1D20",
"#  c #1E2424",
"$  c #1C2827",
"%  c #242525",
"&  c #2B2525",
"*  c #292826",
"=  c #252A2A",
"-  c #2C2B2B",
";  c #332424",
":  c #3D2324",
">  c #332A26",
",  c #3A2B26",
"<  c #332D2B",
"1  c #2E302F",
"2  c #34312D",
"3  c #3B332D",
"4  c #2D3232",
"5  c #343434",
"6  c #3B3533",
"7  c #363A37",
"8  c #3C3C3C",
"9  c #4B1A1D",
"0  c #6B1B1E",
"q  c #77191C",
"w  c #43271A",
"e  c #4A1E21",
"r  c #571F22",
"t  c #671D21",
"y  c #791D21",
"u  c #452626",
"i  c #4C2123",
"p  c #532224",
"a  c #47352B",
"s  c #593C2D",
"d  c #443A33",
"f  c #443A37",
"g  c #4B3C35",
"h  c #553D33",
"j  c #6D322F",
"k  c #484139",
"l  c #4B423C",
"z  c #53443C",
"x  c #594538",
"c  c #59453A",
"v  c #65422E",
"b  c #73442A",
"n  c #654433",
"m  c #6A4634",
"M  c #694837",
"N  c #644A3C",
"B  c #6C4B3B",
"V  c #764A37",
"C  c #724D3C",
"Z  c #6B513F",
"A  c #75513D",
"S  c #3E4141",
"D  c #424242",
"F  c #4B4744",
"G  c #4C4C4C",
"H  c #554A44",
"J  c #5B4B43",
"K  c #534D4A",
"L  c #5B524A",
"P  c #4F5052",
"I  c #515354",
"U  c #5C5655",
"Y  c #5B5B5B",
"T  c #634D43",
"R  c #6A4E44",
"E  c #764F40",
"W  c #6D5344",
"Q  c #6B554A",
"!  c #69564B",
"~  c #745444",
"^  c #775848",
"/  c #7C5C4B",
"(  c #645A56",
")  c #6C5C55",
"_  c #745D53",
"`  c #795E52",
"'  c #7B614E",
"]  c #6B615B",
"[  c #7C6253",
"{  c #74655C",
"}  c #7A665A",
"|  c #5B6061",
" . c #666464",
".. c #6B6462",
"X. c #6C6B6C",
"o. c #756964",
"O. c #7B6B62",
"+. c #746D6B",
"@. c #77716B",
"#. c #7D726C",
"$. c #6E6E72",
"%. c #757374",
"&. c #7A7574",
"*. c #787679",
"=. c #7C7B7C",
"-. c #940E14",
";. c #87171B",
":. c #99151A",
">. c #A61319",
",. c #AB1219",
"<. c #A8191F",
"1. c #B21219",
"2. c #881E23",
"3. c #971D23",
"4. c #B81B22",
"5. c #983034",
"6. c #B83439",
"7. c #CA171E",
"8. c #D7171F",
"9. c #C91A22",
"0. c #D51921",
"q. c #DA1921",
"w. c #E31921",
"e. c #E91D25",
"r. c #D32C33",
"t. c #F12A32",
"y. c #D53C42",
"u. c #F13B42",
"i. c #815D49",
"p. c #815F52",
"a. c #896349",
"s. c #836759",
"d. c #9D7458",
"f. c #836D62",
"g. c #84746C",
"h. c #887468",
"j. c #947968",
"k. c #827672",
"l. c #867B76",
"z. c #8C7C75",
"x. c #847C7B",
"c. c #937E75",
"v. c #7E807C",
"b. c #8A8179",
"n. c #8D827C",
"m. c #92837C",
"M. c #99857A",
"N. c #AE8974",
"B. c #BB927A",
"V. c #C7987D",
"C. c #777A80",
"Z. c #7D7C81",
"A. c #827E82",
"S. c #897F80",
"D. c #7D8083",
"F. c #848284",
"G. c #8C8483",
"H. c #85858B",
"J. c #8A8789",
"K. c #8C8A8C",
"L. c #948984",
"P. c #9B8C85",
"I. c #938C8B",
"U. c #9A8D89",
"Y. c #9B928B",
"T. c #8D8C92",
"R. c #8E8E9A",
"E. c #938E93",
"W. c #8E9196",
"Q. c #949293",
"!. c #9C9494",
"~. c #95959B",
"^. c #99979A",
"/. c #9C9B9D",
"(. c #A7948B",
"). c #B4998B",
"_. c #A79B96",
"`. c #A29D9C",
"'. c #A9A19E",
"]. c #BDA194",
"[. c #9798A0",
"{. c #9C9CA1",
"}. c #A29EA2",
"|. c #9EA1A7",
" X c #A3A3A4",
".X c #ABA6A4",
"XX c #A7A6A9",
"oX c #ACAAAB",
"OX c #B3ACAA",
"+X c #A1A8B4",
"@X c #ADACB2",
"#X c #B2AEB5",
"$X c #B0B2B1",
"%X c #B4B3B4",
"&X c #B5B4BA",
"*X c #B9B7B8",
"=X c #B9B6BB",
"-X c #BCBCBD",
";X c #CB9D82",
":X c #D6A589",
">X c #D5AC96",
",X c #E1B196",
"<X c #DFB7A3",
"1X c #C5BCBA",
"2X c #E4BDA9",
"3X c #C6C0BF",
"4X c #EAC3AE",
"5X c #E7C3B2",
"6X c #ECC8B6",
"7X c #EECAB9",
"8X c #F3CCB9",
"9X c #F8D1BE",
"0X c #B6B9C2",
"qX c #BCBCC3",
"wX c #C1BFC5",
"eX c #BFC1C6",
"rX c #C3C3C3",
"tX c #C3C4CB",
"yX c #C8C6C9",
"uX c #CBCBCC",
"iX c #C9CBD2",
"pX c #CED1D6",
"aX c #D4D4D4",
"sX c #D7D5D9",
"dX c #DCDCDC",
"fX c #F7D6C6",
"gX c #FFE5D1",
"hX c #D8DBE2",
"jX c #E4E4E4",
"kX c #E8E7E8",
"lX c #EAEAEB",
"zX c #F2F2F2",
"xX c #FEFEFE",
/* pixels */
"I I I I I I I I I I I I I I I I I I I I I I I I I I I I I I I I I I I I I I I I I I I I I I I I I I I I I I I I I I I I I I I I ",
"I H ( x.J.E.K.E.T.E.Q.G.k.l d Q.Q.G.x.J h B Q { ] } g.O.O.! Q h f x.G.K.=.z T x.S.S.Z.D.H.H.A.A.H.) 6 T.K.T.%.K ..A.Z.=.Z.Z.Z.I ",
"I L L.^.T.^.E.~.~.^.Q.G.} 3 +./.^.b.T c ! } f.} [ ^ [ { Q R N : ..=.n.&.J c #.Z.x.x.Z.Z.A.A.A.*.&.d Y Q.I.o.L o.J.H.F.F.Z.F.A.I ",
"I n.^./.H.+.J.Q.E.E.Q.G.) d b.K.@.T c o.O.] z 6 d k z z J c g < *.x.) c T o.x.v.@...k.n.x.F.Z.H.&.* *.A.( H %.F.F.K.k.&.A.A.*.I ",
"I Q.~.Q.F o ; K k.G.K.H.+.L._.#.) L L k 4 * & ; ; ; , 3 < < # - S F g  .k.g.l.J.F . > J g.k.*.Z.A.Q.Q.] o.x.K.H.Z.T.K - 8 Y =.I ",
"I ~./.x.k F.%.5 O ( b.Q.Q.k.) ) F = & i 0 ;.:.>.>.1.0.q.0.r.6.5.j u = = G X.x.l.f *.Y & , { x.%.=.^.&.+.G.J.H.C.A.A.G $.( < d I ",
"I /./.K.F =.%X}.U . z l.G.{ F = : q :.,.,.,.,.:.9.q.q.q.0.q.w.e.e.r.r.5.a $ 7 ] c @.[.K.G . ( &.=.F.%.J.D.H.D.*.*.A.( %.T.H.K I ",
"I [.|./.{ F }. X@X%.O l K 4 & q ,.,.,.<.>.>.i 3.w.0.q.q.q.q.q.q.q.q.q.e.t.6.j $ d H H.W.W.o.. U I.S.A.Z.%.=.F.%.C.F.o.K F.H.Q.I ",
"I }.^.`.x.z +.+X{.F.8 = * r :.1.>.>.>.,.,.e p q.q.q.q.q.q.q.q.q.q.q.q.q.q.w.t.6.< & ( [.R.^...% #.J.H.=.x.H.K.A.Z.Z.x.T ( H.H.I ",
"I }./.K. .F - 7 4 % : 0 :.,.,.>.>.>.>.,.q & 9.q.q.0.q.q.q.q.q.q.q.q.q.q.q.0.q.t.y.a - *.~.T.~.U < x.S.F.A.T.K.S.C.*.=.&.J %.H.I ",
"I [./.2 ; : e r 0 ;.<.,.,.>.>.>.>.>.>.>.; 3.w.q.q.q.0.q.0.q.q.q.0.q.q.q.q.q.q.0.t.y., 2 x.[.~.E.< H x.J.F.H.T.H.H.A.C.Z.+.( %.I ",
"I {.^.& ;.,.1.,.,.,.,.>.>.>.>.>.>.>.,.q p q.q.q.0.q.q.q.q.q.q.q.q.q.q.q.q.q.q.0.8.t.y.= d o.^.R.X.; k.J.H.H.H.K.H.H.$.C.Z.k...I ",
"I }.!.* q ;.0 :.>.>.>.>.>.>.>.>.>.>.,.0 4.q.q.q.q.q.q.0.0.q.q.q.q.q.w.w.w.w.q.q.q.8.u.j < T ( Z.F.2 ] F.A.K.A.H.K.A.*.*.C.$.o.I ",
"I ..< % 9 -.X : >.>.;.>.>.>.>.>.>.>.>.<.q.q.q.q.q.q.q.q.q.q.q.w.0.9.3.q y 4.q.q.q.8.t.u.& ( ! #.`.I...K.J.I.G.( 5 - D *.H.A.A.I ",
"I 5 *.X.* q -.q -.0 i >.>.>.>.>.>.>.,.9.q.q.q.q.q.q.q.q.w.w.4.q X % - 8 $ ; 9.w.q.q.q.u.j G A.#.&.I.J.n.z.#.6 ; ..=.8 %.H.T.A.I ",
"I oX0XE.5 . ;.-.;.% q ,.>.,.>.>.<.<.;.q.q.q.q.0.q.q.q.w.4.0 % 3 ! j.B.;Xj.6 X 4.w.q.8.t.5.7 R.R.J.F.G.n.` O I T.~.=.G A.T.K.T.I ",
"I @X#XU ! G & q 0 & :.,.>.>.>.>.,.;.: 0.q.q.0.q.q.q.q.2.  7 h.V.:X:X:X:X:XV.l % <.w.0.t.6.= K.~.Q.~.Y.T ; %. X{.{.K ..E.Q.Q.T.I ",
"I @XS.h c.}.Y % * e 1.>.>.>.>.>.,.;.i q.q.q.q.q.w.9.r $ s.;X:X>X<X5X6X7X2X>X;XL % 4.w.e.y.= H.~.!.Q.&.O +. X[.XX+.d A.Q.~.~.R.I ",
"I J.J _ g. XXXZ.= q ,.>.>.>.>.>.,.;.2.w.q.q.q.q.9.X 7 N.:X>X2X7X7X7X6X6X7X6X,X;XL @ 9.e.u.< F.~.~.b.3 ( }.~.XXF.a { Q.[.^.[.E.I ",
"I R Q U.`.XX XR.* :.,.>.>.>.>.>.>.>.0.q.q.q.q.0.w 7 B.:X2X7X7X7X6X6X6X6X6X6X7X,XV.8 e e.u.< A.~.~.! 6 `.Q.[.J.J T x.^.Q.^.~.Q.I ",
"I W h.!.!.U.'.=.; >.>.>.>.>.>.>.>.,.q.q.q.q.q.r 8 V.,X5X7X6X6X6X6X6X6X6X6X6X6X7X,XN.$ 3.u.& Z./.L., X.+X/.l.c _ I.E.E.Q.^.^.T.I ",
"I z.g.!.I.+.b...u >.>.>.>.>.>.>.>.,.0.q.q.w.2.# f N.2XfX9X7X6X6X6X6X6X6X6X6X6X6X6X,X[ : y.- H.{.@.o K.Q.{ x ] I.{.E.#.o.l.G.E.I ",
"I g.g.m.L * O 6 i ,.,.>.>.>.>.>.>.,.q.q.q.9.; 7 5 % 7 ( (.2X9X8X6X6X6X6X6X6X7X7X9X9X;X4 p 2 E.{.Q.b.G.! W s.G.~.H.G.K . & L @.I ",
"I } M.} ) G.b.- i ,.>.>.>.>.>.>.>.,.q.q.e.y = P P P S - % 6 O.].7X9X6X6X6X8XfX2X).#.f = % 5 ^.}..XY.} } #.G.I. .1 ) D D.%., : I ",
"I ~ ~ m C n.%X] i ,.>.>.>.>.>.>.>.<.0.q.7.; 7 I P G I I K S = % F M.5X9X7X>Xo.5 % 4 D D % o Q !.[.Q.Q.L.G.b.&.= Y - 6 &.&X|.I I ",
"I ~ ' ~ v s.M.H i >.>.>.>.>.,.>.>.>.7.e.3.$ 8 F F G G G G I I F 5 % F ).K = 1 D I I I P - I . ! !.~./.K.Q.I.5 | qXF.o H |.XX~.I ",
"I ^ [ / b A j.| i ,.>.>.>.>.>.>.>.>.1.7.r # - * = 1 5 8 8 D F G P S f o.= K P P G F G F 2 H.x.. } `.[./.`.G S  XoXuX$.% o. X{.I ",
"I W [ a.V j i.o.; >.>.>.>.>.>.>.>.>.,.:.% _ 6 Y U D 5 * # % 4 5 8 - ) c.- D 8 7 5 5 1 - = H.%X .+ n././.X.1 Q. XXX1XuXF 3 =. XI ",
"I W / / A i.b T ; :.>.>.>.>.>.>.>.>.,.;.- B.3 XXjXdXuX%XI.H.5 1 =   c.).  - 1 7 S 5 Y  .5 |.@X@X6 L `.S.= v.$X XXX3XuX/.& ! J.I ",
"I W ~ A A A V s % :.,.>.>.>.>.>.>.>.,.0 f :Xl *.lXxXxXxXaX .- F.=.f 5X2Xf T.rXpXdXI D.%X< F.oX&X=.& G.1  .XX'. X X-XrXuXD h ^ I ",
"I m m v v C A M * q ,.>.>.,.>.>.>.>.,.9 L ,Xs.S uXzXxXxXjX7 % *XG j.fX8XJ T.zXxXxXF D ^.o T O.^.[.2 f D '. X{.'.XX-XwXaXY K ^ P ",
"I s a a s n V C 2 i ,.,.>.>.>.>.>.>.,.9 F :X>X, $.dXxXxXxXzXdX=.< <X7XfXj.D uXxXxXdXuXG 6 [ B _ !.Y 8 #XoX{. XXX-XrX-XaXY | I.P ",
"I g { { v v V B h ; :.,.>.>.>.>.>.>.,.u # N.6XB.% I oXaXjXwXY @ ;XfXfXfX4Xc I -XkXsXY & D !.L.l.) * %XdX X X'.-XrXrX-XaX7 %.{.I ",
"I g.M.[ s v m V M - 0 ,.>.>.,.>.>.>.,.r . T 2X7XB.x < 7 6 < T ).>X).g.) M.B.T f D 2 [ O.8 './.Q.- D uXjX$X/.$XuXrX-XaXQ.7 ^. XI ",
"I s.M.W s b m ^ M d ; >.,.>.>.>.>.>.>.;.q % ).fX9X<XN.s.! J J 6 $ # #   # - f J [ B.gXY.7 oXoXF Y pXaXjX$XoX-XrXrXrX-X2 v.oX/.I ",
"I s.^ v V m m A C M - i ,.>.>.>.>.>.>.>.,.9 G >XM.) 8 < & = 1 7 8 S S 1 G G 8 1 - f _.&.F  XY 5 *XjXdXdXaX-XrXrXuXrX7 | `.XXQ.I ",
"I i.v v V V m V m A x % r ,.,.>.>.>.>.>.,.:.& % % = 5 8 S D D S D S S 7 G P P P G 7 = = ] v.1 $X-XsXdXdXjXrXrXXX XF G `./.XXQ.I ",
"I A j m m v m m m A B x * p :.1.>.>.>.>.,.,.q % 5 D D S D S S f S S S F P P P K G Y D - @.= Q.lXrXuXjXjXlXyXrX%X* F /.`.!.XX~.I ",
"I m V C v n v v m Z A A s % ; q >.,.,.>.,.>.,.q % 5 D S S S S S S D 8 D K P K I I G * Y S Y rXjXsX-XjXkXkXdXuXY 7 /./.Y.!..X!.I ",
"I C ~ A s x v n m M B B s x G $ : 0 :.,.,.,.,.,.q # 2 D D S D S D D 5 D I I G G 7 * l k o *.$XaXjXuXjXjXlXlX] - ^.@XG.} b.!.U.I ",
"I Z A N x + + s b m m m B b.z.T , = & e t 0 t ;.,.q + - 7 8 8 8 8 8 S S 8 5 1 * 2 & . - J.Q.{.rXjXdXaXlXlX%.5 G.`.I.I o : N f.I ",
"I N C v B c x w w s B W ` f.c N W M g < $ % u - ; u ; # $ % % * % % % % # 6 a s F U - *.XX X X$XlXkXuXjXv.- ~.{./.O.k K.@.3 u I ",
"I } ' m C ~ N W a w h T / } Q Q ^ ~ B a ; ;.,.:.& e p p e ;.;.;.;.3.t i p S ` a 1 % G oX'. XoX-XdXlXdXY - {.@XXX/.U.J I.&XoX..I ",
"I } } W n ~ ^ ~ C s + s R } } N R R z * ;.,.9.w.p 0 8.w.q.q.q.q.q.e.6.u 9.u f - X.=.& $.$X X-XrXuXzX~.* K.-X@X&X@X.XO.) %X0X@XI ",
"I { } f.c M s./ C Z N X h ` ` C T c * q 1.7.q.9.& ;.7.q.q.q.q.q.q.w.y.e 9.4.  %  .^.=.% X.uXrX-XaX}.% =.oX-X&X%X#X.XI.! =.qX@XI ",
"I m.{ b.l.B ~ s./ i.s.h + M A E N 6 % 0 7.w.w.y u >.8.8.q.q.q.q.q.q.u.a 3.r H f # Y H.*.% b.rXaX$X* X..X$X@X=X%X#X#X.XO.T _.=XI ",
"I U.m.M.b.} x / s.~ ~ R , a m ~ a < c 1 e 9.9.> q ,.0.q.q.q.q.q.0.8.t.j % g a.f & & - v.*.% F.*X4 , n..X@X@X-X=XqX%XoX_._ T I.I ",
"I G.k.z.z.P.) j i./ B W N + h d - = d i.z ; u e 1.t 3.w.q.q.q.q.q.8.t.j 1 i.d d a.a.> I W.*.1 - K O } Y.XXOXU.`.=X-X%X%Xm.! L I ",
"I } N J ) c.f.B s E i.i.` X a = c c 2 3 / ' * ;.,.<.9.q.8.8.w.e.w.q.t.5.2 3 , g W c # *  .K.%.= C.6 c U.XX Xn.L.P.n.I.@X=X X_ I ",
"I h : . g R W ~ B s V i.h.Q ; d c c a.d 2 k + :.>.;.9.w.w.w.1.;.<.9.2.j $ - 2 * & - a % *  .I - +.x._ (..Xm.} N > o f l.%X@XU.I ",
"I a ( G.h R M R C m n s B ~ > l d x a.a.Z % * * ; % i t 0 t 2 | 8 O # - * * x ^ N ^ i.< | * * ! h.z.!.I.P.[ : f K.XX8 k.%X%X{.I ",
"I U.!.n.h ^ ^ M m s.~ W M C a 3 x A a.a.a.a 3 c g x x k k $ D.jXyX8 n N.2 2 A ^ i.Z 2 G @XA.A.@Xh.k.I.m.W O ..0XsX/.3 !.qX&XXXI ",
"I I.P.^ n j.c.M C / / B M E B = x a.a.A d 3 3 N N ~ a.a.a.d P W.jXI x Z * % d d 3 * F Q.OXwX-X%XL.n.b.n O b.yXiXiXK ! =X0X=X XI ",
"I U.{ s B [ / A ^ s./ A ` a.B + = N a.d - % = * - 2 2 d d & G =.F.= % # S  .5 % > T Y.'.#XtX%XoXn.#.[ + b.=X%XyXF.a z.%XtX%XXXI ",
"I Y.x n ^ c.M.E ^ A A s.[ ^ p ! ( & 3 5 g < 8 8 k 8 5 % G 7 & 4 = 8 F 5 7 /.G > ~ h.'.-X&X#X=X%XY.#.+ X.tXtXeX^.a )  XqXqX=XXXI ",
"I ! s Z j.z.U.f.i.i.A / ' x c M.L.o.( J s 5 7 D I I G 5 wX%.- f G I I 5 % 5 o Z s.n.Y.@X-X%X=X=X!.N l eXeXtX{.J _ .XoX0X=X0X@XI ",
"I N f.(.s.s.s.' s.p.` ` C h g.M.U.s.A M Q 7 * - 4 5 4 D =X%.= 2 5 2 1 * 3 , N s.' h.l.'.*XoX*XqXz.; E.pXqXI.h f.*X%X%X=X=XyX@XI ",
"I f.(.1X} B s.j.} ^ } ^ M c P.c.O.N n s.z.2 k x h c f X.-Xz.* 3 3 x ~ l a N [ s._ T f.P..X`.-XyXl.< XX`.o.J z..XiXiX X`.#X#XOXI ",
"I b.'.h.c ; , x E ^ } M.} f.N.i.M M s.(.l.- x Z a.d.g T.wXY.6 h W i.d.J g _ ~ ^ L O O h n.'.-XtX!.l.G.{ #._.wX-XiX#XP & & L L.I ",
"I '.'.b.l XXm.+ X n R _.M.^ V V / M.P.Y.b., * , 6 f * g.*X`.I < 3 3 3 & ( g.} B T !.x.f , k.1XtX$X.XG.!.wXsXpXwXrX}.f $XQ.f O I ",
"I '.(.g.c Y.OXM.] O x ' g./ V ~ O..X.X!.h.C x ( ..X. .. R x.G.K f g l { L.z.M.^ m !.qX=Xo.. o.yXaX1X%X%XtXtXiXyXwX#XH .XxXlXS.I ",
"I _.(.z.~ _ 1X1X%X{ + N h.' i.h.s.(.OX(.s.~ m [ .XsXlX!.. h c.z.&.z.g.P.'.m.U.^ s O.-XqXiXG.. ) 1X#XwXsXyXyXtXwX1XdXl.H lXhXtXI ",
"I .X'.m.~ v M.lX1X.Xz.+ N A V i.W g.z.g.h.s.s M P.rXsXdXQ.@ T ` x.G.!.!.m.Y.U.} ` h #.tXqXwXI.+ T P.uXtX@XrXjXpXyXsX`.l x.tXiXI ",
"I I I I I I I I I L I I I I I I I I I I I I I I I I I I I I I I I I I I I I I I I I I I I I I I I I I I I I P I I I I I I I I I "
};
