/* XPM */
static char *result[] = {
/* columns rows colors chars-per-pixel */
"64 64 226 2 ",
"   c #1A1C1D",
".  c #261B18",
"X  c #361D1B",
"o  c #2A221D",
"O  c #33241C",
"+  c #39251C",
"@  c #1B1F20",
"#  c #2C1E21",
"$  c #182525",
"%  c #1C2524",
"&  c #242525",
"*  c #2B2525",
"=  c #262827",
"-  c #242A2A",
";  c #2B2B2B",
":  c #332425",
">  c #3A2324",
",  c #382A26",
"<  c #332D2B",
"1  c #2A312E",
"2  c #35322D",
"3  c #3C332D",
"4  c #2F2F30",
"5  c #2D3231",
"6  c #333434",
"7  c #3C3532",
"8  c #393A37",
"9  c #3C3C3B",
"0  c #421D1E",
"q  c #5A1C1E",
"w  c #691A1D",
"e  c #731B1E",
"r  c #7B191D",
"t  c #471E21",
"y  c #541E21",
"u  c #5C1E20",
"i  c #651D21",
"p  c #771D22",
"a  c #482223",
"s  c #552527",
"d  c #46352D",
"f  c #593B2D",
"g  c #443933",
"h  c #463C37",
"j  c #533D34",
"k  c #593E32",
"l  c #6F2C2D",
"z  c #44413E",
"x  c #4C423C",
"c  c #54433B",
"v  c #5A463A",
"b  c #674738",
"n  c #654B3D",
"m  c #6B4F3B",
"M  c #734C39",
"N  c #75523D",
"B  c #3F4243",
"V  c #424242",
"C  c #4D4744",
"Z  c #4C4C4C",
"A  c #544A44",
"S  c #574C46",
"D  c #5B4B43",
"F  c #534C4A",
"G  c #5A514B",
"H  c #504F51",
"J  c #515354",
"K  c #5C5655",
"L  c #5D5C5C",
"P  c #634D43",
"I  c #664F46",
"U  c #6C5245",
"Y  c #645248",
"T  c #6B564A",
"R  c #6E594D",
"E  c #745443",
"W  c #765949",
"Q  c #635A54",
"!  c #6C5B54",
"~  c #655B58",
"^  c #745C53",
"/  c #795F53",
"(  c #7B604E",
")  c #6A625C",
"_  c #74645C",
"`  c #7A6559",
"'  c #646464",
"]  c #6B6462",
"[  c #686768",
"{  c #6C6B6C",
"}  c #776864",
"|  c #746A64",
" . c #7B6B63",
".. c #746D6B",
"X. c #78716B",
"o. c #7D726C",
"O. c #6F6F71",
"+. c #757374",
"@. c #7B7574",
"#. c #797779",
"$. c #7D7B7C",
"%. c #920F14",
"&. c #87161B",
"*. c #8C161B",
"=. c #94161B",
"-. c #9C141A",
";. c #A61319",
":. c #AB1219",
">. c #B5131A",
",. c #871D22",
"<. c #941E23",
"1. c #A81C22",
"2. c #B81C22",
"3. c #903337",
"4. c #B6363B",
"5. c #CB161D",
"6. c #D6171F",
"7. c #D9171F",
"8. c #C91A21",
"9. c #DE1720",
"0. c #D41820",
"q. c #DA1921",
"w. c #E31921",
"e. c #EA1B24",
"r. c #CE2D33",
"t. c #F02C33",
"y. c #DB3D43",
"u. c #F03B42",
"i. c #815C4A",
"p. c #896348",
"a. c #83695B",
"s. c #997359",
"d. c #826D63",
"f. c #876F64",
"g. c #83746C",
"h. c #887468",
"j. c #987866",
"k. c #817673",
"l. c #847A74",
"z. c #8C7C75",
"x. c #837C7B",
"c. c #8A7D7A",
"v. c #937E75",
"b. c #F94047",
"n. c #7E807C",
"m. c #87817D",
"M. c #8B827D",
"N. c #92837C",
"B. c #98857A",
"V. c #B18B75",
"C. c #C4967C",
"Z. c #777A80",
"A. c #7D7C81",
"S. c #827E83",
"D. c #7E8083",
"F. c #848284",
"G. c #8B8484",
"H. c #8B8986",
"J. c #85858B",
"K. c #8A868A",
"L. c #8C8A8C",
"P. c #978B86",
"I. c #938C8B",
"U. c #9A918C",
"Y. c #8D8C92",
"T. c #8E8E9A",
"R. c #928E93",
"E. c #8E9196",
"W. c #939293",
"Q. c #9B9594",
"!. c #95959A",
"~. c #99989A",
"^. c #9C9B9C",
"/. c #A6938B",
"(. c #AF9689",
"). c #A69C97",
"_. c #A39D9C",
"`. c #A7A19E",
"'. c #9696A0",
"]. c #9C9CA1",
"[. c #A29EA2",
"{. c #9FA2A9",
"}. c #A5A5A7",
"|. c #AAA5A3",
" X c #A5A4A9",
".X c #ADABAC",
"XX c #B4ACAA",
"oX c #A6A8B2",
"OX c #ACABB1",
"+X c #B2AEB4",
"@X c #AEB1B2",
"#X c #B4B2B5",
"$X c #B5B4BA",
"%X c #B9B7B9",
"&X c #BCBABD",
"*X c #CB9D82",
"=X c #D5A589",
"-X c #CFAB99",
";X c #D8AB91",
":X c #E6B89F",
">X c #CCB6AD",
",X c #E2BBA7",
"<X c #C6C0BF",
"1X c #E7C2AF",
"2X c #F1C6AF",
"3X c #E9C5B2",
"4X c #ECC8B6",
"5X c #EECAB9",
"6X c #F3CBB7",
"7X c #F2CDBA",
"8X c #F7D1BE",
"9X c #B6B9C2",
"0X c #BCBCC3",
"qX c #C1BFC5",
"wX c #BFC1C7",
"eX c #C3C4CB",
"rX c #C7C6C8",
"tX c #C9CBD2",
"yX c #CED1D6",
"uX c #DAD9DA",
"iX c #F1D5CA",
"pX c #D8DBE2",
"aX c #E9E8E9",
"sX c #FBF8EF",
"dX c #F4F4F4",
"fX c #FEFEFE",
/* pixels */
"J J J J J J J J J J J J J J J J J J J J J J H H J J J J J J J H J J J J J J J J J J J J J J J J J J J J J J J J J J J J J J J J ",
"J A Q x.K.R.L.R.R.R.W.G.g.x g W.W.G.c.G j n R _ _ ` g.| } T R j g x.G.H.$.c Y c.x.S.D.D.J.J.J.S.J.~ 7 L.L.Y.#.A ] F.$.$.S.A.A.J ",
"J G I.~.Y.!.W.!.!.~.W.G.` d X.^.~.z.Y v Y ` d.^ _ ( ( _ R U m + ] $.G.@.D v o.A.x.c.$.$.S.S.A.#.@.g ~ E.L.| F | H.J.F.S.A.F.J.J ",
"J M.Q.^.J...K.W.W.R.W.G.Q g n.L.o.D v ` o.h.Y c v U U U U I v , #.c.! c D } $.n...| k.M.c.F.A.J.X.* #.S.Q S @.F.F.K.x.+.x.A.#.J ",
"J W.~.W.C & : S k.G.L.J...N.).o.! R o.z.g.! c , > f b n U E v G.)._ v _ l.@.l.H.V o : D o.k.#.A.S.!.W.) _ c.L.J.A.L.H * 9 ~ $.J ",
"J !.'.x.z F.+.4 O ~ c.W.Q.k.!  .M.k.l.o._ P ! X.) 3 + v n U ` } Y R _ l.l.l.c.l.h #.L ; , _ x.#.$.Q.#.o.F.L.J.Z.S.S.Z O.~ ; g J ",
"J ^.^.I.x x.#X{.K . c x.M.} d.l.z.m.c.|  .n n g.M.o.c > f b T ^  .} k.x.@.@.x.x.v X.].L.F . Y #.$.m.+.F.D.J.A.#.#.A.~ #.Y.K.H J ",
"J ].].^._ C [. XOX+.O c o.l.o.o.k.G.M.o. .Y v ( g.` ` D X d I } M.l.@.G.x.c.K.F.^ S D.T.W.| . K R.F.S.D.#.$.F.+.Z.G._ F J.D.!.J ",
"J [.^.^.$.c ..oX}.^.' . Q k. .z.k.k.l.o.! ^ b b f.g._ W v + v R o.l.| l.m.x.$.D.o.c ~ '.T.Q.[ & X.J.J.$.$.K.J.S.A.Z.c.D Q J.J.J ",
"J ].^.Q.I._ g m.OX].].G X _ | Q H Z z 9 h x c k W a.^ R ^ c + E g.l.H.H.H.c.] ] @.^ c $.'.Y.~.K , c.F.F.F.Y.Y.S.A.#.Z.@.G +.K.J ",
"J ].^.G._.I.! Y K. X].W.3 6 - % - < , < * % $ % , c ` W ^ R , d  .H.W.I.F.G.m.{ +.g.Y D x.!.!.W.< A c.H.F.F.Y.K.J.J.#.A...~ +.J ",
"J ].~.Q._.!.Q._ D l._.' % < l 4.y.b.u.b.b.y.4.3., & ; , < ; < & G M.W.L.F.m.X.{ [ [ X.D D | ~.T.{ : k.L.F.J.J.L.D.J.O.Z.$.x.~ J ",
"J [.Q.x.$.~.}.m.R P 8 & l b.b.u.t.e.t.e.t.t.4.l * & & ; = & & & = 9 ..m.m. .) ] O.Z.$. .U P ) $.J.2 ) F.S.K.J.J.L.A.+.#.Z.O...J ",
"J ] < o C S.[._.G.6 & 3.b.t.q.q.q.0.0.7.5.u @ < < 9 Z Z 9 ; F 8   = & ; 2 3 O . h ..K.m.l.} Y o.`.H.] L.G.I.G.Q 7 4 B #.K.S.A.J ",
"J 6 #.L.G x.].].Z = y.u.w.0.q.q.q.q.w.<.. - a.C.Y 8 J Z 9 4 rXaXL.@ x ) V ; ; H 7 ~ G.I.m.m.G.o.l.H.H.G.c.o.7 < ] #.9 +.J.Y.S.J ",
"J .X9XR.Z Q. X[ $ 4.u.q.0.q.q.q.q.9.,.$ h V.;X4Xd.; J Z 8 8 #XuXfXL.d 3XsX$.  & < } G.R.m.K.Y.R.H.F.M.M.( X J Y.'.#.F F.Y.Y.K.J ",
"J OX+XQ Q [.W.; l t.e.q.q.q.7.w.w.p $ G C.;X2X8Xv.- J Z 8 9 ^.}.fXdX7 B.7Xz 9 8 - 9 O.H.H.E.W.W.!.~.U.U : +.}.].].F ] W.W.W.Y.J ",
"J @XS.j v.[.L , y.w.q.q.q.q.7.w.p $ ^ C.;X4X7X8X(.= H Z 8 V J.$.fXfX[ ( B.% J J ; - o 5 { E.^.~.W.W.k.o X.{.'. XX.7 x.!.!.!.R.J ",
"J G.D ^ k.R.% 3.t.6.q.q.q.q.e.<.$ R =X;X4X5X4X7X-X4 Z Z 6 V A.{ uXsX[ T c 2 H K 9 ; ' L % 8 +.~.^.l., Q _.!. XG.d ) Q.!.!.!.!.J ",
"J I T U.^.' , y.q.q.q.q.q.8.l o x *X=X3X5X4X4X5X1X8 B H 8 V F.& K.aXJ P - C H H Z @ .XsX@XL - 8 +.g & [ K.'.K.c P M.!.W.!.!.E.J ",
"J U h._.I.1 l t.6.q.q.q.w.2.@ 3 V.=X1X5X4X4X4X4X6XG 6 F 8 V n.% rXW.3 D - J Z H H o J.dXaXuX&X' & & 9 & 1 Q D ^ I.I.R.!.Q.W.E.J ",
"J g.g.U.] - r.w.q.q.q.q.w.,.% B.=X,X4X4X4X4X4X4XiXd.; J 8 9 .X}.Y.% a.7 8 J J Z H ; ' aXrX&XyXuXH.; $.L 6 3 ! L.].R.o...c.P.Y.J ",
"J g.g.P.4 d t.8.q.q.q.q.w.p 8 *X;X6X4X4X4X4X4X4X8X(.% z 6 ; J V & s.V.% C J H H J 2 Z tX<X&X0XrX' B Y.{ ; ` G.'.Y.G.F . O G X.J ",
"J a.v.` - 3.e.0.q.q.q.q.w.r 8 C.=X4X4X4X4X4X4X4X5X1XC ; & 8 ^ f.*X8Xg.= H H H Z J 8 8 @XwXrXrX&X; { H.Z * ) I.Q.K.d.V D.O.3 > J ",
"J E E f - r.q.q.q.q.q.q.w.<.1 V.=X5X4X4X4X4X4X4X7X-XB.(.>X3X8X8XiX5XA = V Z H H H 9 4 F.K.L..X#.$ 8 6 = & & ] $.Q.c.h x.+X{.J J ",
"J E ^ g d t.6.q.q.0.q.q.w.;.- V.=X4X4X4X4X4X4X6X3X9 @ 9 ) -X8X4X5X1X8 - 4 6 V Z Z V & % % $ % % , l * G f.< & - V { Y S {. X!.J ",
"J W / < l e.0.q.q.q.q.q.w.2.@ V.=X1X5X4X4X4X7X8XV.@ V 6   c ,X7X5X3X9 6 B h V 6 6 V = < s 3.y.y.u.u., v s.d 1 V 4 * < g | }.].J ",
"J U W - 4.w.q.q.q.q.q.0.9.8.. ` =X,X5X4X4X4X5X8XZ 5 J z ; @ ; V.7X4Xx 6 B V V V V 6 : t.u.t.t.e.e.1.O 3 b , = J J V ; * & J !.J ",
"J U P ; r.7.q.q.q.q.q.q.q.q.> A C.:X7X4X4X4X7X(.& C Z 8 & }.O.  V.7XC 4 V V V V V 5 , 8.q.7.7.0.7.w.<.$ C B o Z J J ; T T ; K J ",
"J U c < q.7.q.q.q.0.q.q.q.w.p 5 C.=X4X4X4X4X7X) - J C 4 9 }.XXO.* ;XG 1 V V V 9 V 5 > 5.9.q.q.q.q.9.q ' pXtXB 6 J C = E s.< h J ",
"J M 3 a q.q.0.q.q.q.q.0.q.w.1.% B.=X2X5X4X7X-X= B J V & { [ ; yX4 f.Y 1 V V V V V 5 t 5.q.q.q.q.9.0.> @XuX$X#.; Z 9 < p.E * c J ",
"J f o l e.0.q.q.q.q.q.q.q.q.0.# n C.:X5X4X8Xo.% Z Z V @ H.Z   eXS.h P - V V V 9 V - y 5.q.q.q.q.q.7.+ ^..XC ' ; V 1 3 E c ; x.J ",
"J d 5 l w.q.q.q.q.q.q.q.q.q.w.p 1 C.=X6X7X,X6 8 Z Z 8 5 W.V [..XOX, P ; V h B B V - q 5.7.9.q.q.q.w.,.8 [ H 1 2 B = v m 3 Z {.J ",
"J h.; e 9.q.q.q.0.q.q.q.q.q.9.2.  a.=X,XiX(.% Z J C 5 C F.L fXdX%X< D ; B B 9 V V - e 5.9.q.q.q.q.q.8.& = , o ; ; = 3 g ; #.].J ",
"J f.- e 0.q.q.q.q.q.q.q.q.q.q.w.w 1 V.;X8X! ; J Z V = { [ ~.fXfX}.3 R - B B B V 9 & a 5.q.0.q.q.q.9.8.: m ( ; ' #.8 ; ; V  X^.J ",
"J a.- &.>.q.q.q.q.q.q.q.q.q.q.q.2.% Y =X-X< z H Z V % Y.[ uXfXsX$.3 ` & V h B V 4 $ a 5.9.q.q.q.q.9.8.* N W 2 ~ O.d g.Q.!.|.!.J ",
"J i.& *.;.;.q.0.q.q.0.q.q.0.q.q.w.,.$ j.a.& J H Z 8 ; ^.W.fXsXuXB U j.& 9 V V 8 & % u 7.9.q.9.w.w.w.5.; 2 c ; = = 8 [ ^.Q.|.R.J ",
"J N & *.:.y <.e.q.q.q.q.q.q.q.q.9.9.a 1 7 8 H H Z 5 z %XuXdXpX~.@ V.(.@ 9 V 9 % a : e 5.6.0.0.1.1.8.<.o < = - 8 ; 3 ; 6 +..X~.J ",
"J b & &.>.r - 1.w.q.q.q.q.q.q.q.q.9.8.> $ V J J C = K uXpXuX X- D :X-X& 9 h - > &.= i i > > : = & * & x N ; = - & W j.7 K |.!.J ",
"J N - &.:.:.s % 1.9.q.q.q.q.q.q.q.0.w.2.& 1 C Z B % ' 0X.X'   j ;X6X>X4 6 - * =.&.- % > s u p t 9 ` ; N p.N N m - m p.g G Q.P.J ",
"J m - r :.;.;.y $ 1.w.q.q.q.q.q.q.q.q.9.2.: $ 9 9 & & &   , a.:X7XiX2X8 @ : =.>.e $ p q.w.w.e.,.z p.1 N p.p.p.i.= n W < O n d.J ",
"J n & e :.;.;.;.w * <.e.q.q.q.q.q.q.q.q.9.8.s % - ; f.j.j.*X,X2X2X-X} - > =.:.:.y $ =.q.q.7.e.&.8 N ; N p.p.p.E & v n ; ' d > J ",
"J ` ; u :.;.;.;.:.=.y 1.q.w.w.q.q.q.q.q.q.w.q.,.* % Y V.=X=X=XV.a.;   u ;.;.;.;.: % &.>.>.5.7.p 3 ( ; m p.N m c & v v - oXOX) J ",
"J _ 8 a :.;.;.;.;.;.:.;.>.1.1.q.w.q.q.q.q.q.q.w.8.u @ % x ( Y 4   > *.:.;.;.:.=.* - a =.:.:.>.w 2 m * n v = j g & 3 < 2 +X9XOXJ ",
"J a.x : ;.;.;.;.;.;.;.;.;.r & , <.q.q.q.q.0.q.9.9.:.=.w > % $ % y -.:.;.;.;.:.e % g 5 * s e &.q 2 v = n v v v ; H K Z c o.0X.XJ ",
"J S.S - *.:.;.;.;.;.;.;.;.;.*.e e ;.5.5.6.0.0.q.>.;.:.:.;.&.w u w =.;.;.;.;.:.s < N E ] B - - = = 1 = 3 v v 6 9 +X+X|. .Y ).9XJ ",
"J U.z.5 i :.;.;.;.;.;.;.;.;.:.:.;.;.;.;.;.;.;.;.;.;.;.;.;.:.:.:.:.;.;.;.;.:.;.: j M M ^ I.}.W.M.< 3 A 1 = = 9 '.&X#X.X).^ P I.J ",
"K S.g.C > ;.;.;.;.;.;.;.;.;.;.;.;.;.;.;.;.;.;.;.;.;.;.;.;.:.;.;.;.;.;.;.;.:.e & E f.a.b R I.#X%X@.O ` P.$.F.P._.&X&X#X#XN.R G J ",
"H a.n h - r :.;.;.;.;.:.;.;.;.;.;.;.;.;.;.;.;.;.;.;.;.;.;.;.:.;.;.;.;.;.;.;.a < M h.U.f.E P ` |.oX2 v P.oX|.N.N.P.m.L..X9X_.^ J ",
"J k , . - u :.:.;.;.;.;.;.;.;.;.;.;.;.;.;.;.:.;.;.;.;.;.;.;.;.;.;.;.;.;.:.&.= + d m z.P.N.g.E T H.M.^ /.|.N.` n , o h x.+X#XU.J ",
"J d ~ G.< > ;.;.;.;.;.;.;.;.;.;.;.;.;.;.;.;.;.;.;.;.;.;.;.;.;.;.;.;.;.;.:.a ; R k l f._.+X[.B.a.d.z.Q.U.P.( > h L.}.9 o.#X$X[.J ",
"J I./.M.3 & *.:.;.;.;.;.;.;.;.;.;.;.;.;.;.;.;.;.;.;.;.;.;.;.;.;.;.;.;.:.&.= ~ a.b M v..XOX%XqX+Xh.l.P.M.T X ] 9XuX^.g Q.&X$X XJ ",
"J I.P.W k - p :.;.;.:.;.;.;.;.;.;.;.:.;.;.;.;.;.;.;.;.:.;.;.;.;.;.;.:.;.: z N.E b p.N.`.XXqX0X$XH.N.N.v O z.tXrXeXS Q $X9X$X.XJ ",
"J I._ f M ; y :.;.:.&.-.:.:.;.;.;.;.;.;.;.;.;.;.;.;.;.;.;.;.;.;.;.:.;.a - l.` v b W U.[.#XeX$X|.M.o.( + m.$X#XrXG.d z.#XwX#X XJ ",
"J U.v b W z a ;.;.:.e : e ;.:.:.;.;.;.;.;.;.;.;.;.;.;.;.;.;.;.;.:.:.u % ~ g.v b E h.`.%X$XOX$X#XU. ., X.rXeX0XQ.g ! `.wXeX$X XJ ",
"J T f N j.C t ;.:.;.;.u $ > &.:.:.:.;.;.;.;.;.;.;.;.;.;.;.;.:.:.-.a - C h.m f M a.N.W.@X&X#X&X&XQ.n x 0XwXrX}.A ^ _..X$X%X9XOXJ ",
"J n h.U.a.P : ;.;.:.;.%.w # % t r -.:.:.:.:.;.;.:.:.;.:.:.:.-.p : % Q a.b k E a.^ h.M.`.&XXX&X0Xz.: Y.yXqXI.j d.&X%X%X%X$XrXOXJ ",
"J d.(.>X/ h : -.:.&.q %.%.e = - & : a r *.=.-.-.-.-.=.=.,.y : % 9 k.} n k m ( a.R Y d.B.XX^.9XeXk.< .X_.] A z.XXtXtX}.Q.XX#X+XJ ",
"J M.).z.A * * -.;.* q %.%.0 < W k 3 ; & & * * : : * * = % ; h ~ d.W b m U ^ T W P O O j M.`.%XtXQ.k.G.} f._.qX&XtX+XF < : G G.J ",
"J _.`.c.x +.: ;.,.> %.%.t - f M W B.N.x._ d 7 F V * * Q I.Y.U.g.v b U ` g.d.a.M Y Q.x.h + l.>XwX#X|.G.!.>XuXyXqXrX^.9 +XW.h O J ",
"J |./.g.v ) > ;.%.%.&.q - j M E a.|.|.U.f.M m N.XX+XG.. Y z.Q.g.I ^ R g.P.S.B.W b /.0X0X} . } rXuX0X#X$XqXtXrXrXqX#XA |.fXaXF.J ",
"J )./.z.W c : *.%.w : - A / i.a. ./.XX/.a.E b p.|.uXaXW.. j v.z.k.z.o.P.|.v./.W f  .$X9XtXI.. R >X#XqXyXrXrXrXqXqXuXl.A aXpXrXJ ",
"J |.`.N.E d = : * & 6 : n E N i.E g.z.g.h.a.k b P.rXuXuXW.X P / c.S.U.).N.U.P.` ^ k o.eX0XqXP.+ P U.rXrX#XrXpXyXrXuX_.x x.rXtXJ ",
"J J J J J J 9 5 5 9 F J J J J H J J J J J J J J J J J J J J J J J J J J J J J J J J J J J J J J J J J J J J J J J H J J J J J J "
};
