/* XPM */
static char *Tg__[] = {
/* columns rows colors chars-per-pixel */
"64 64 16 1 ",
"  c #315B93",
". c #406496",
"X c #4D6C9A",
"o c #59749D",
"O c #647BA0",
"+ c #6F83A4",
"@ c #798AA7",
"# c #8291AA",
"$ c #8B97AD",
"% c #949EB0",
"& c #9CA4B3",
"* c #A4AAB6",
"= c #ACB0B9",
"- c #B4B6BC",
"; c #BCBCBF",
": c #C3C2C2",
/* pixels */
"::::::::::::::::::::::::::::::::::::::::::::::::::::::::::::::::",
"::::::::::::::::::::::::::::::::::::::::::::::::::::::::::::::::",
"::                                                            ::",
"::                                                            ::",
"::                                                            ::",
"::                                                            ::",
"::                                                            ::",
"::                                                            ::",
"::                                                            ::",
"::                                                            ::",
"::                                                            ::",
"::                                                            ::",
"::                                                            ::",
"::                                                            ::",
"::                  .&:::=+            @;::&o                 ::",
"::                  =::::::&          #:::::;X                ::",
"::                 @::::::::&        .;::::::$                ::",
"::                 %:::::::::#       O:::::::=                ::",
"::                 %::::::::::X      @::::::::                ::",
"::                 #::::::::::%      @::::::::                ::",
"::                 .-::::::::::X     @::::::::                ::",
"::                O o-:::::::::%     @::::::::                ::",
"::                %-o &:::::::::X    @::::::::                ::",
"::                %::O #::::::::%    @::::::::                ::",
"::                %:::o &::::::::X   @::::::::                ::",
"::                %:::-..-:::::::%   @::::::::                ::",
"::                %::::$ O::::::::X  @::::::::                ::",
"::                %:::::X %:::::::%  @::::::::                ::",
"::                %:::::% X::::::::X @::::::::                ::",
"::                %::::::. %:::::::% @::::::::                ::",
"::                %::::::# X::::::::X@::::::::                ::",
"::                %::::::=  %:::::::%@::::::::                ::",
"::                %:::::::. X::::::::#::::::::                ::",
"::                %:::::::+  %:::::::;::::::::                ::",
"::                %:::::::#  X::::::::::::::::                ::",
"::                %:::::::%   %:::::::::::::::                ::",
"::                %:::::::*   X:::::::::::::::                ::",
"::                %:::::::*    %::::::::::::::                ::",
"::                %:::::::*    X::::::::::::::                ::",
"::                %:::::::*     &:::::::::::::                ::",
"::                %:::::::*     O:::::::::::::                ::",
"::                %:::::::*      *:::::::::::;                ::",
"::                %:::::::*      o:::::::::::-                ::",
"::                $:::::::*       %::::::::::&                ::",
"::                #:::::::&       .-:::::::::@                ::",
"::                o:::::::#        o::::::::-.                ::",
"::                 %:::::;.         O;::::::O                 ::",
"::                  #:::-O           .#:::&o                  ::",
"::                                                            ::",
"::                                                            ::",
"::                                                            ::",
"::                                                            ::",
"::                                                            ::",
"::                                                            ::",
"::                                                            ::",
"::                                                            ::",
"::                                                            ::",
"::                                                            ::",
"::                                                            ::",
"::                                                            ::",
"::                                                            ::",
"::                                                            ::",
"::::::::::::::::::::::::::::::::::::::::::::::::::::::::::::::::",
"::::::::::::::::::::::::::::::::::::::::::::::::::::::::::::::::"
};
