/* XPM */
static char *c04e9fdee3e149c6f698ba9a9fe7b36eaFfFsRdf7A3EDqLZ[] = {
/* columns rows colors chars-per-pixel */
"32 32 17 1 ",
"  c #22426D",
". c #334D73",
"X c #42577A",
"o c #4F617F",
"O c #5B6A84",
"+ c #66738A",
"@ c #707B90",
"# c #7A8395",
"$ c #848B9A",
"% c #8C92A0",
"& c #959AA4",
"* c #9EA1A9",
"= c gray65",
"- c #A6A7AE",
"; c #AEAEB3",
": c #B6B4B7",
"> c #BDBBBC",
/* pixels */
"================================",
"=                              =",
"=                              =",
"=                              =",
"=                              =",
"=                              =",
"=                              =",
"=                              =",
"=                              =",
"=         .->:+    #>:O        =",
"=         @>>>>o   >>>&        =",
"=         O>>>>;  X>>>*        =",
"=         %+;>>># X>>>*        =",
"=         ;;O;>>:.X>>>*        =",
"=         ;>*O>>>#X>>>*        =",
"=         ;>>O%>>>O>>>*        =",
"=         ;>>%X>>>*>>>*        =",
"=         ;>>; $>>>>>>*        =",
"=         ;>>> .:>>>>>*        =",
"=         ;>>>  #>>>>>*        =",
"=         ;>>>  .;>>>>*        =",
"=         ->>:   +>>>>#        =",
"=         O>>#    +:>*.        =",
"=                              =",
"=                              =",
"=                              =",
"=                              =",
"=                              =",
"=                              =",
"=                              =",
"=                              =",
"================================"
};
