/* XPM */
static char *result[] = {
/* columns rows colors chars-per-pixel */
"64 64 212 2 ",
"   c #0A0605",
".  c #0D0806",
"X  c #090708",
"o  c #0E0C0B",
"O  c #130A06",
"+  c #1A0805",
"@  c #130D0B",
"#  c #180F0C",
"$  c #15100E",
"%  c #1B120E",
"&  c #0F0F10",
"*  c #141312",
"=  c #1B1613",
"-  c #1E1916",
";  c #171818",
":  c #1C1B1A",
">  c #200D07",
",  c #23140F",
"<  c #201612",
"1  c #231A15",
"2  c #2B1C15",
"3  c #231D1B",
"4  c #2A1E19",
"5  c #321D15",
"6  c #1F201E",
"7  c #25211E",
"8  c #2B221C",
"9  c #382017",
"0  c #33241D",
"q  c #3A241B",
"w  c #36291F",
"e  c #3D2A1E",
"r  c #1D1E20",
"t  c #211F21",
"y  c #1E2122",
"u  c #242423",
"i  c #2A2523",
"p  c #262827",
"a  c #2C2926",
"s  c #252729",
"d  c #292728",
"f  c #26292C",
"g  c #2B2B2C",
"h  c #322722",
"j  c #382620",
"k  c #332A25",
"l  c #3B2B23",
"z  c #332D2B",
"x  c #392E2A",
"c  c #3E3026",
"v  c #35312E",
"b  c #3B322D",
"n  c #272C31",
"m  c #2A2E31",
"M  c #312F31",
"N  c #2D3135",
"B  c #2E3439",
"V  c #333334",
"C  c #3B3533",
"Z  c #3D3935",
"A  c #32363A",
"S  c #3B3739",
"D  c #35393D",
"F  c #3B3B3C",
"G  c #40291F",
"H  c #432D23",
"J  c #422F28",
"K  c #433026",
"L  c #43342C",
"P  c #4A362B",
"I  c #55392B",
"U  c #413631",
"Y  c #4D3532",
"T  c #433A34",
"R  c #4B3C34",
"E  c #433D3B",
"W  c #4B3E3A",
"Q  c #523D33",
"!  c #5A3D33",
"~  c #4F4137",
"^  c #44403D",
"/  c #4B413C",
"(  c #534135",
")  c #5A4336",
"_  c #53443C",
"`  c #5B453B",
"'  c #55483E",
"]  c #5D483E",
"[  c #62483A",
"{  c #66503E",
"}  c #323740",
"|  c #363B41",
" . c #3A3E42",
".. c #403F40",
"X. c #3D4144",
"o. c #3E4349",
"O. c #434344",
"+. c #4A4543",
"@. c #4D4946",
"#. c #43464A",
"$. c #494749",
"%. c #45494D",
"&. c #4B4B4D",
"*. c #534641",
"=. c #534A45",
"-. c #5C4C44",
";. c #524D4B",
":. c #5A4E4A",
">. c #555246",
",. c #54514D",
"<. c #5B524C",
"1. c #464B52",
"2. c #4A4D52",
"3. c #4A4F58",
"4. c #514F51",
"5. c #4D5155",
"6. c #4E535A",
"7. c #515354",
"8. c #5B5553",
"9. c #5E5955",
"0. c #52555A",
"q. c #595759",
"w. c #55595D",
"e. c #5C5B5C",
"r. c #634D43",
"t. c #664D47",
"y. c #635146",
"u. c #62534B",
"i. c #695449",
"p. c #6B5A4E",
"a. c #705649",
"s. c #635652",
"d. c #645A54",
"f. c #6A5B56",
"g. c #6A5C54",
"h. c #645D5B",
"j. c #65625E",
"k. c #6B635E",
"l. c #76665A",
"z. c #72655D",
"x. c #565C62",
"c. c #5B5E62",
"v. c #635F61",
"b. c #5C6165",
"n. c #5D626A",
"m. c #656364",
"M. c #696463",
"N. c #6D6966",
"B. c #636469",
"V. c #686769",
"C. c #65696D",
"Z. c #6C6C6D",
"A. c #726662",
"S. c #746965",
"D. c #766967",
"F. c #7A6D64",
"G. c #756D6B",
"H. c #74726F",
"J. c #7B716E",
"K. c #676C73",
"L. c #6A6D74",
"P. c #6D7074",
"I. c #6C7279",
"U. c #747374",
"Y. c #7B7573",
"T. c #74767C",
"R. c #797878",
"E. c #7B7B7D",
"W. c #817066",
"Q. c #83746D",
"!. c #847A77",
"~. c #837C7A",
"^. c #8B837D",
"/. c #90807A",
"(. c #767782",
"). c #7B7D84",
"_. c #807F83",
"`. c #7C8187",
"'. c #7E838A",
"]. c #8B8582",
"[. c #898787",
"{. c #83868B",
"}. c #85898D",
"|. c #8A8A8C",
" X c #928788",
".X c #918D8D",
"XX c #848690",
"oX c #878B93",
"OX c #8D8D91",
"+X c #8F9296",
"@X c #949291",
"#X c #989595",
"$X c #95969B",
"%X c #9C9B9C",
"&X c #A2968E",
"*X c #A29D9D",
"=X c #979CA1",
"-X c #9C9CA2",
";X c #9EA2A5",
":X c #A5A5A6",
">X c #ADA8A6",
",X c #A4A6A9",
"<X c #A6AAAD",
"1X c #AAAAAB",
"2X c #B3AFAF",
"3X c #ACAEB3",
"4X c #ADB1B7",
"5X c #B4B5BC",
"6X c #B6B8BA",
"7X c #C2BFC2",
"8X c #BFC1C3",
"9X c #C1C6CA",
/* pixels */
"7.7.7.7.7.7.7.7.7.7.6.5.7.7.7.7.5.7.7.7.7.7.7.7.7.5.7.7.7.7.7.7.7.7.5.7.7.7.7.5.5.7.7.7.7.7.7.7.7.7.7.7.7.7.7.7.7.7.7.7.7.7.7.7.",
"7.N m s 3 : : f B m N B s o * 3 7 8 i p g g g V z v V F v 8 h Z %.%.%.5.O.3 4 R =./ / ~ =.9.s.j.j.d.h.m.k.` ] k.U.H.H.H.G.P q 7.",
"5.N f s t : = ; d n m N f r   $ 7 7 7 i g a g g v V A A v 0 0 k ..%.%.%.5.O.= 4 ~ ~ P R _ >.i.j.h.k.g.V.M.-.) r.k.Y.Y.H.H.z.l 7.",
"7.N f f d t = = : f N n n N :   - 1 1 i a m V V g v A V V k 0 w b O.5.%.%.7.Z $ 8 L R ~ _ ] y.d.s.d.d.N.M.M.u.I i.l.N.H.J.J.z.7.",
"7.m g f f s t 1 - 6 f N n N n & . = 1 u g N N z z z z A V v k 0 w b O.%.#.&.7.h % H P P =.-.r.u.s.8.d.k.k.j.j.( [ a.l.W.G.S.Y.7.",
"7.f f s s s f u - - : u f f n s . # 1 a g z f g g g v z v v v z 0 q C E O.&.;.$.< 2 c L +.<.-.<.<.<.:.u.u.k.j.p.! I a.l.l.G.H.7.",
"7.p y 6 6 s n n u : = - 7 f N f $ o 3 d g g i p k a a 8 8 a C Z x j j k b / ;.7.u 1 l Y -.:.-.-.-.` -.' _ s.p.k.a.! I [ a.F.J.7.",
"7.: $ o * : s m f s 7 - - 7 s f y * 3 i p p i 8 7 8 - % = 8 k v b C k 0 l P / 7.+.8 j +._ =.=.y.` P l 8 8 W -.u.p.t.) I I { l.7.",
"6.* & & o * : m n n n u : - u g m f s s i 7 1 < % $ * ; = 1 8 k z b C L l l b _ u.~ l +.=.( _ P H 2 8 g a h Q s.g.s.r.t.) I ) 7.",
"7.y n N * $ 7 n n N N n s s 7 3 u g g p 7 < % @ $ y A D 7 < 8 k x C C E ^ Z L l G P / @.=.K q 5 8 C e.Z.@.b _ i.y.y.y.r.y.r.[ 7.",
"7.} A s $ = u m N n B N m f d s d s i i 1 $ @ 3 z A X.V - 1 w v b C C C ^ ^ T R U b ~ ~ H q 2 k *.j.Z.m.C T u.s.u.u.t.' ' -.{ 5.",
"5.A B * * : f N N n n N m f f s m d 3 1 @ @ 7 V A A D u % 8 k b b C C S E U c U ^ T P e 5 4 T 9.9.s.M.@.0 Q :.9.>.:.<.d.-.-.] 7.",
"7.A r o ; f m N N N n f N f s s g u = # % 7 i i a V z ; 1 h v v v b S F E C x Z U K H 5 4 +.e.q.8.h.q.l H ! :.q.>.-.s.M.d.d.-.7.",
"7.p & - s m m f n N s f f d u 6 s 3 @ $ 7 7 7 8 g p 1 - i k v v v v b S E U c T c e 5 1 T <.8.<.<.7.C l Y -.8.h.<.<.s.m.m.s.~ 7.",
"5.= $ p n f N f N n f m f u 7 : 3 * O s f 3 7 i p 4 - 7 k a v v x x V b Z Z b Z c q , C &.;.;.<.>.P e P *.<.:.q.8.8.e.m.m.9./ 7.",
"5.= : f m f n f m N m g f s u 7 - @ : V p i i 7 4 < 7 i 8 a a v v b x z k l L F b 2 8 +.&.,.,.=.R G P R *.@.:.8.9.e.e.e.e.9.<.7.",
"7.7 p N n f m g N N f f f g i ; % $ f D g a 7 4 < 1 a k 8 i h k v v k l w w b T h 1 b &.,.;.+.U H H Q *.+.4.q.e.v.c.e.c.e.e.s.7.",
"5.p n N f u p f m g s s f s s = O * A m s 1 < < 1 7 g M i 4 7 k x z z k k k 0 j 1 8 F 2.O.C k l H W ;.;./ *.8.c.b.c.e.c.e.w.<.7.",
"7.m m N y * $ : u i s u s g s - * 6 f 3 1 , < 7 7 7 i p 7 % $ - i h k k 0 0 8 8 8 C ..C h x b l L +.&.@./ h i C &.q.q.q.5.q.,.7.",
"7.V p u ; o * . . = 3 u u g g s m p - - % < 1 3 3 7 1 4 3 - * O @ = 7 h 0 h h w b U z 4 k E O.L U =.+.E E : t - % 8 W :.;.7.,.7.",
"7.N g : ; y N y ;   o - 3 s N N s - < 1 1 3 4 3 1 7 1 - 1 7 a V u O @ 1 8 k k k k k h v +.$.&.E ^ ;.2.@.C z 4.&.F 1 @ l T =.4.5.",
"7.N N s : : } B B N *   = 3 s d g i u u p 7 7 7 i 7 1 - 1 7 g F D V 1 @ , 2 k V v C S %.2.1.2.O.O.5.6.;.S x $.x.w.%.v % 2 L ' 7.",
"7.B B V u ; g | B } N :   o 3 s p s f s u 4 1 7 7 u 7 7 < 1 i V F A V 3 O % 8 k g V F %.#.O.1.$.O.2.2.&.O.k x w.7.5.7.O.- , c 5.",
"7.D A V g : : N D D B N y   $ 3 p s f p u s p 3 u 7 u 8 - % 7 g | A V z i % % 8 a F ..%.#.#.#.1.&.&.%.$.&.C k  .w.5.5.7.#.: , 7.",
"7.A D A M i = u D | A A A u X * 7 u u u 7 s g u u u 3 u 7 - % 7 A D M z V u O * z F O.#.#.%.1.#.O.X.O.%.O.v l a ^ 6.%.5.&.O.* 7.",
"7. .| D D g u - s  . .B | A r X 1 u u 7 3 s g u 1 3 7 s 7 - , - u V V a z  .f @ 7 F X.o.o.#.%.%.#.O.#.#...E E z a O.5.&.&.1. .7.",
"7.o. .| D D M 1 - u A D }  .D * O 7 i i 4 4 8 u 3 u 7 u u 7 3 1 1 u N S V  . .: O g F X.#.X.O.%.#.%.%.E F Z F b v z O.$.O.$.&.7.",
"7. . . .|  .| i 3 - u A  .|  .n   % 7 7 7 7 p g d s 7 7 f N N p 1 1 3 m A A  .z @ : g X. . .X.O.o.o.%.F v E  ...b l b A X.%.%.7.",
"7.F  .D A  .X.| V u 1 3 g A  .| ; . 1 7 7 7 s g g s - - u N B m p 3 , - u V D  .: o u F  .F  .X.X.X.O.S z V E X.F b w l v F #.5.",
"7.i 3 : s g F o.X.V i 1 1 u m A : O 8 g 7 7 g g u - = O * 6 g m N p 1 1 1 7 g V : $ 7 V D  .F F F V a 7 : d V S V z a 8 0 k V 7.",
"7.* @ * @ u A o.X.X.V i 3 3 3 a A p u v 7 i z 7 % O o & o * : u p f s u 3 1 u a V g g D  .| F z 7 % o * o : g v V Z V v k h h 7.",
"7.m #.%.: : F #.o.o.D V g i 7 7 g v v g a 8 : $ @ : s N : & - u s s i f 7 8 u 3 i V A | F V p = @ - N o.p = z z D F A F F V a 7.",
"0.6.w. .@ g #.%.%.#.o.F V g M a g g v V 8 $ o : A X.A g * * u s g s u u u i u g g V V D V 1 $ ; m o.o.X.* : z A F D A S D D F 7.",
"7.6.2.t : F 2.1.%.#.#. .F F V a S F a i - $ s o. .| A 3 % 3 g g g f 7 s u s g g m V g g : O :  .X.| o.g $ i A  .D F D A A D A 7.",
"7.x.S @ k O.6.6.1.%.#.#.#.%. .S A v i % $ V 1.o. .X.g = - d g N N f 3 7 u 7 g f N N a - O s X.| D X.A * - z D D D D D A A D A 7.",
"7.#.* 3 ..#.6.6.5.%.#.1.1.%.$.#.O.i % * a O.1.o.%.D - % i a s m N N s u u s m m V N - . s } D D | F : * f A A D D A A D A A V 7.",
"7.3 1 C %.5.w.0.6.5.#.%.2.#.2.2.O.: @ g F F 2.#.D 7 % 1 a V m V D N g g s f m f g 7   y D D A D D y * u V V A A A A A D N V N 7.",
"7.u S 4.5.6.w.0.0.6.5.7.2.6.6.$.z % s 2.X.#.5.X.u % 4 a V | A A D A N B g f f i 7 O * B A B D A u * 7 g A B B A A A A N V N B 7.",
"7.+.e.w.w.w.w.0.c.x.0.0.0.0.&.E 1 = %.c.5.1.F 7 1 i V V F F D D | D B A N g f u ; . s | D B m 3 = 7 M A A A B A B N N V m B B 7.",
"7.c.L.b.e.b.e.B.n.w.w.0.c.q.+.z % u c.x.O.a 7 2 k S X.F V V V F  .| D A N g i 7 $ & N } m y = = 3 g A B B N B A A N m A N N m 7.",
"7.B.L.L.%.A V O.4.8.c.e.c.4.T k 3 g %.C 8 4 k C O.#. .D z : = s V D D D M m a t * ; s r * * : s g N B A N y r y g N B m m m g 7.",
"5.P.C.w.g : 3 @ * z ;.e.q.+.@.+.+.^ k 8 k S $.1.1.%.F x s * & o O : v V m g g d d d : * : s g m N B B m u & & & & : d n n g m 7.",
"7.L.Z.e.: ^ Z.$.a . 1 E q.;.q.v.@.b l L / 7.w.5.1.#.F k 3 f  .A 3 o @ u i g g m g u 6 s m m B N m B B n : o n s : o o : i m m 7.",
"7.P.P.b.v D +X}.).c.3 @ C s.4.q.+.T / U E 5.x.x.6.&.F C i i %.6.#.A *   = a A A V N g g N m B N B B m g r * n D N n ;   * i m 7.",
"7.U.T.E.q.; Z.$XoX'.B.d + k U ;.;.E ,.$.O.q.n.n.c.w.%.O.z < V 2.1.1.o.u X ; M | D D B B A B B N N B m m i = : B N N m r X @ t 7.",
"7.L.|..XM.k k OX{.I.`.T.C O 9 ` <.&.&.;.,.b.K.b.w.6.1.#.Z 8 7 F 3.o.#.%.f X 1 g V B B A B B B N N B B n s = % s A m n m u o @ 7.",
"7.{.$XOXU.<.8 ^ {.{.}.{.P.k > J =.<.+.&.7.c.b.c.w.5.%.5.^ k 1 p #.1. .1.%.f X - g V D } A A B B B m N n 3 : : ; f B n m n s X 7.",
"0..X;X}.{.].E k 7.=X|.).}.,.2 < T ,.=.,.q.7.x.c.x.w.w.0.4.S h 2 f  .%.1.#. .: o u g A A } B B B m N N n u u 7 = : n B m m N u 7.",
"7.OXOX{.|.OXm.R b <.}.XXE.Z.m.3 1 *.j.m.7.q.n.B.c.n.c.0.4.2.C 8 4 a F %.1.o.F * o z A B B A B N B B m m u s f 3 : : s B N N N 5.",
"7.$XOX%X$X{.OX~.R x +.].-X{.R.E + K M.R.h.q.B.c.c.x.2.;.7.#.F z 4 8 z E o.X.#.N . - M A } D B N m B m f u u s s : : ; p f N N 7.",
"7.|.*X;X|.-X<X,XY...J x h.Z.h.v.i 4 ;.U.q.q.V.c.e.7.^ E ^ %.2.O.z 8 8 8 f  .o.o.= @ g  .D D B N m m g u s s s f i : - 3 u s n 5.",
"7.N.u.;.q.T.,X3X|.Q.u.R L ` :.V.v = :.M.;.e.L.V.,.T k 8 i T O.+.%.C i 1 8 a g D ;   s D N A A N g s : ; : : s s s u 3 - : : s 7.",
"7.2 @ * a ;.Y.$X,X#XA.-.P Q ~ ;.h.:.*.h.;.,.m.q.Z < @ & * 1 z O.2.#.F z 7 8 i g m u n D B A A g 7 * o X & * : 7 u s s u 1 = 7 5.",
"7.8.|.%XV ;.D.;X4X|.N.s.i.Q ( ' :.s.h.M.<.*./ 4 % a 6.n.N % h ^ %.o.O.F x i 8 i V V | X.D N g * X * y N r o - u : u 6 s u 7 - 7.",
"7.<X5X|.% 9.@X5X;X|.^.A.u.-.z.G.h.8.h.h.' j , u c.I.I.w.7 8 T O.%.O.X.F S F C V m A o.| N 7 o o u A B B * * u m s u u u s s p 7.",
"7.;X:XW 0 G.>X1X=X;X[.k.S.Y.S.R.Y.j.d.Q w < C I.`.K.K.C % k &.w.5.O.O.%.A S V V A A | D u   ; D | B B s o * : f n y s s s f m 7.",
"5.8XJ.q Q !.:X,X3X<X.X~.@X#X!._.Z.d.` q 1 7.'.T.K.L.,.8 2 b O.7.5.#.%.#.F F F D D A D 7 O : D X.o.X.N * $ 6 s f s s s p s n m 5.",
"7.*X7 P l.2X5X3X6X6X.XQ.F.f.A.J.Y.f.x 2 @.).(.L.T.m.a 1 L +.+.O.#.#.&.2. .V X.X.D V u . u | A B X.| ; @ 7 g f s s s p s f f m 7.",
"7.>.H {  X5X3X2X9X6X.Xl.F.r.a.!.f.Y 2 #.E.T.T.T.K.S 2 c @.7.x.c.5.#.#.5.%. . .X.A a & ; D A B N | y o : g N m f s s y f n n m 7.",
",.c a.A.[.$X8X7X6X<X@XJ.Q.i.t.g.Q 0 U _.).`.'.L.E 2 k / ;.2.b.e.6.%.X.&.O.F X.F g $ * | } D A B y o : s f f m f N m s g m f n 7.",
"5.i./. X!.].>X1X2X>X*X$X.XD.r.! K w m.oXT.R.B.C 4 c +.;.&.7.7.%.%.%.%.%. .V F F i O g X.| } m : * : f N f n m f m B N g g m n 5.",
"7.Q.*X>X!.W.&X:X1X@X%X5X-X[.Q.[ e W {.'.P.;.x b _ 8.v.4.+.@.7.$.#.%.5.6.#.F F V ; $ A X.A f * $ ; N | B N f s s n n f n n n f 7.",
"7.^.>X*Xp.L l.~.!. X>X5X-X#XY.[ e >.E.m./ e Q N.Z.V.c.%.S 8 z E $.5.5.w.2.X.F V : ; B m : * = u n A | B g r * : s s m n n m s 7.",
"7.7.7.,.7.7.7.7.7.7.4.0.4.7.7.4.7.7.7.7.7.7.7.7.7.7.7.7.7.7.7.7.7.7.7.7.5.7.7.7.7.7.5.7.7.7.7.7.7.7.7.7.7.7.7.7.7.7.7.7.5.7.7.7."
};
