/* XPM */
static char *b116ea58236445bff2487275b67bf82eWLZKudOPRuULErsY[] = {
/* columns rows colors chars-per-pixel */
"32 32 17 1 ",
"  c #037A65",
". c #1D7F6C",
"X c #318473",
"o c #418979",
"O c #4F8D7F",
"+ c #5C9286",
"@ c #68968C",
"# c #749B92",
"$ c #7D9F97",
"% c #88A49C",
"& c #92A8A2",
"* c #9BACA7",
"= c gray65",
"- c #A4B0AD",
"; c #ACB4B2",
": c #B5B8B7",
"> c #BDBCBC",
/* pixels */
"================================",
"=                              =",
"=                              =",
"=                              =",
"=                              =",
"=                              =",
"=                              =",
"=                              =",
"=                              =",
"=            o%>>>*#           =",
"=          O->:#%>>>;o         =",
"=         +>>>>>#@>>>:X        =",
"=        .;>>>-## #>>>*        =",
"=        @>>>-    .:>>>X       =",
"=        %>>>+     &>>>@       =",
"=        *>>>X     #>>>#       =",
"=        *>>>X     @>>>#       =",
"=        $>>>+     $>>>@       =",
"=        +>>>%     ;>>>X       =",
"=         ;>>>%  X*>>>&        =",
"=         +>>>>>>>>>>:X        =",
"=          +>>>>>>>>;o         =",
"=           .#;>>>*#           =",
"=                              =",
"=                              =",
"=                              =",
"=                              =",
"=                              =",
"=                              =",
"=                              =",
"=                              =",
"================================"
};
