/* XPM */
static char *result[] = {
/* columns rows colors chars-per-pixel */
"64 64 170 2 ",
"   c #120A07",
".  c #1B0D06",
"X  c #150D09",
"o  c #1A0E0A",
"O  c #1C120C",
"+  c #1E180F",
"@  c #1D1511",
"#  c #1E1913",
"$  c #1F1818",
"%  c #23150D",
"&  c #2A160D",
"*  c #271A0F",
"=  c #2C1A0F",
"-  c #231612",
";  c #241B14",
":  c #2C1C13",
">  c #241D19",
",  c #291E18",
"<  c #331E14",
"1  c #311F1A",
"2  c #232317",
"3  c #2C2016",
"4  c #25211B",
"5  c #2B231B",
"6  c #342216",
"7  c #3C2416",
"8  c #34251B",
"9  c #3B2619",
"0  c #36291E",
"q  c #3C2A1D",
"w  c #2E2720",
"e  c #2D2923",
"r  c #322721",
"t  c #342B23",
"y  c #3C2D22",
"u  c #372F29",
"i  c #392F29",
"p  c #353026",
"a  c #3D3125",
"s  c #36322A",
"d  c #3C342B",
"f  c #3C392C",
"g  c #3D3631",
"h  c #3F3B33",
"j  c #422515",
"k  c #432718",
"l  c #432C1D",
"z  c #4B2E1D",
"x  c #43301F",
"c  c #4B311F",
"v  c #422E21",
"b  c #4A2F21",
"n  c #422E28",
"m  c #443224",
"M  c #4A3324",
"N  c #4B3827",
"B  c #44352A",
"V  c #4B3629",
"C  c #453A2D",
"Z  c #4B3B2D",
"A  c #513524",
"S  c #523A26",
"D  c #51372A",
"F  c #523C2C",
"G  c #593F2E",
"H  c #443C32",
"J  c #4C3E32",
"K  c #523E31",
"L  c #5A3E32",
"P  c #4E402E",
"I  c #53402F",
"U  c #454035",
"Y  c #4C4235",
"T  c #474439",
"R  c #4B453A",
"E  c #4E493D",
"W  c #534335",
"Q  c #5A4434",
"!  c #564837",
"~  c #5B4937",
"^  c #534639",
"/  c #5A463A",
"(  c #534A3D",
")  c #5B4B3C",
"_  c #5E503F",
"`  c #624C3D",
"'  c #63513E",
"]  c #4A4440",
"[  c #4E4C42",
"{  c #544D42",
"}  c #5B4E41",
"|  c #554D49",
" . c #5A4F48",
".. c #555144",
"X. c #5C5244",
"o. c #565249",
"O. c #5C554A",
"+. c #5D594D",
"@. c #515354",
"#. c #5E5A51",
"$. c #614D42",
"%. c #635345",
"&. c #695346",
"*. c #655847",
"=. c #62564A",
"-. c #69574C",
";. c #635A4C",
":. c #6A5B4D",
">. c #615750",
",. c #645D52",
"<. c #6B5D52",
"1. c #615E59",
"2. c #725E53",
"3. c #6D604F",
"4. c #666155",
"5. c #6B6255",
"6. c #656159",
"7. c #6C645A",
"8. c #6E6A5D",
"9. c #716255",
"0. c #716857",
"q. c #72655A",
"w. c #736A5C",
"e. c #7A6C5D",
"r. c #7B725F",
"t. c #6A6760",
"y. c #6D6A61",
"u. c #6D6E68",
"i. c #746D63",
"p. c #796E62",
"a. c #766F6A",
"s. c #767166",
"d. c #7A7265",
"f. c #757269",
"g. c #7B746B",
"h. c #7E796E",
"j. c #7E7671",
"k. c #7D7972",
"l. c #807464",
"z. c #847C66",
"x. c #82766C",
"c. c #82796D",
"v. c #837C73",
"b. c #897F73",
"n. c #847E79",
"m. c #7F8079",
"M. c #8C836D",
"N. c #858175",
"B. c #8A8276",
"V. c #85827A",
"C. c #8A857C",
"Z. c #948C7E",
"A. c #8B8681",
"S. c #948C85",
"D. c #938E88",
"F. c #959186",
"G. c #9C9285",
"H. c #95918C",
"J. c #99938C",
"K. c #9A988F",
"L. c #9B9891",
"P. c #A19A8D",
"I. c #A29C94",
"U. c #ACA49B",
"Y. c #AFAB9F",
"T. c #B4AD9F",
"R. c #ADAAA2",
"E. c #B3AEA5",
"W. c #B5B2AA",
"Q. c #BAB4A9",
/* pixels */
"@.@.@.@.@.@.@.@.@.@.@.@.@.@.@.@.@.@.@.@.@.@.@.@.@.@.@.@.@.@.@.@.@.@.@.@.@.@.@.@.@.@.@.@.@.@.@.@.@.@.@.@.@.@.@.@.@.@.@.@.@.@.@.@.",
"@.e.V V K F K B B V m m q y } W ^ C 8 q Z P ^ _ a Y ! X.;.4.4.;.W 0 2 f +.! J y 6 9 y F Z B B ) X.5.8.;.i.g.8.f 4 b.b.y.J g O.@.",
"@.:.a 8 M Z Q D m J J v 8 N _ Q M 8 6 M Y ! ' V * ; 0 ! ..8.0.*.! y # C ! C q 6 6 v m M D a : 5 Z ^ 5.,.p.v.p.f u 7.{ H H -.b.@.",
"@.H 5 > @ - 9 l M m %.) Z ~ I z 9 9 M ~ %.Y C 0 2 O   , ! ;.0.4.! f ) P q 9 6 v y m a l x 0 ; o O 0 } 5.i.n.s.<.q.>.| =.l.G.A.@.",
"@.=.5 g.w.0 . = v q %.9.P l k l x I ) Y X.! 9 6 W =.C O   p *.X.{ ! Z 6 6 q v V W Y Z N 7 a ;.+.f o 5 } d.n.f.d.7.O.2.b.D.I.H.@.",
"@.^ r <.g.%.} + & q M C P l z x N _ 5.*.( Z z 9 m X.*...U   , P ! ( U 0 v y m Z Y ! ( ! l q X.y.i.5.; % { B.B.C.g.a.n.n.J.D.J.@.",
"@.^ M K d.X.e.4., & m F ! b M N Z ! ;.X.%.V l 9 x ! X.0.M.R   3 y ! ( B Z B B Y ;.Y ^ W q 9 J w.7.g.i.5   ^ B.S.v.n.A.A.D.D.H.@.",
"@.%.D v e.G.M.5.X.: & V N c M G Z Z 3.X.^ Z m 9 7 m 5.e.r.r.E X : C C C ( Y ^ ( %.) X._ q 9 y ;.s.f.v.g.r . $.9.g.A.I.S.H.L.H.@.",
"@.&.b z m Z.Z.l.w.3., : M z z b b m ! Z Y Z K 9 6 q ( 0.r.e.r.U X 0 y C ^ R X.X.W ) X.( C Z q 6 w.h.f.h.g.3 < C p.G.S.n.A.U.W.@.",
"@.%.A z A X.S.B.e.w.J . l z z N V m W V I m Z m 7 6 x ( +.8.0.0.t O 6 W X.( X._ *.Y ! ! ) ( V 0 H g.x.s.V.1.% q -.x.S.L.I.E.Q.@.",
"@.=.Z A z b %.c.5.) ;.a & z z M z M P V y a x x q 7 7 B X.0.*.( ;.o 3 ^ ( ( J C B m C W K W ) C a ( g.f.c.b.C % / y.L.Q.T.E.Q.@.",
"@.4.0.&.D M B %.:.:.9.=.- 7 z z z M N S M q l 9 x q 7 q C _ ( X.,.d O m B ( Y m B m Y Z m W { X.m q E s.N.v.t.; y g.D.U.U.Y.H.@.",
"@.h.h.-.` Q z F ' &.%.:.y = z z z M z I I V q l x y x 0 8 N W *.5.O.o 5 y P W J _ Z M m Z ) e.e.F m m Y d.n.b.] , q.n.n.S.K.A.@.",
"@.| i.7.&.Q F M S Q &.&.B & k z c M z 9 x q 9 6 m N C N 6 7 y P X.+.4 : 9 a Y U ^ V m y y H 5.w.<.*.V M B  .d.1.O >.b.A.I.J.U.@.",
"@.> R >.&.Z ` S c A G ` ~ 7 k z c c z k 6 * O : 0 q P B q 0 9 q 0 f f 0 0 Z ! Z B q 3 O o u J 5.6.4.%.L v V / =.H  .x.A.R.S.x.@.",
"@.[ g { &.-.:.Q S z z l S G z M A l 9 6 % : a t : q Z ! P B a y 0 a _ Y ( Y N m 8 * + e H 5 r :.,.d.5./ K J V -.x.y.b.n.P.x.i @.",
"@.t.t O.p.x.<.J F S S D M b A A z k : : q Z %.a = l N W :.P P ! Y a Y _ X.P 6 6 o t ;.w..., q _ 7.c.q.X.7.e.&.%.<.V.S.b.b.n > @.",
"@.| a p.g.x.<.<.` F A F A A z z l : 6 C F K &.5 7 l m W :.;.*.X.*.( W P y 9 = O Y X.5.d.U & J *.p.e.w.<.i.7.7.c.j.d.x.J ; 0 I.@.",
"@.u { h.a.h.i.8.=.` V D M A z z : 0 W Z N ! C 6 7 M Z W P ! :.( ( X.C 0 8 3 O E 0.X.w.d.; l ) ;.7.7.7.7.i.0.>.g.d.2.) 6 B B.I.@.",
"@.n 2.j.n.v.i.q.&.~ D F z z z < r ~ Q F S N 9 7 x m N V Y V ~ _ B P N 7 6 + R w.5.X.0.H : J &.;.p.i.h.5.w.w.w.<.<.} 6 B g.D.J.@.",
"@.-.i.k.n.d.i.5.&.~ W D M z 7 < *.%.! Z Z v 6 k S Y F P ~ S z q Z m q 8 . U z.r.0.4.( 3 q ^ 5.e.w.c.v.g.N.d.5.5.} y r x.S.I.A.@.",
"@.7.V.V.C.v.g.<.&.%.W F z k < / 0.%.! W V k 9 l ! ) W W m l x x M 0 x = 5 0.e.;.;.X.8 q B O.5.:.5.7.h.N.s.5.a.9.D & 7.A.v.S.S.@.",
"@.k.k.C.h.x.b.i.=.=.X.S z j y $.) ' ` I k 6 x M W W W ! Z S m a m x 7 * U *.r.=.X.m 8 Z =.,.=.,.d.d.c.c.c.7.e.) 8 B b.n.k.H.q.@.",
"@.A.v.b.a.7.c.i.-.%.Q A z 9 W V Y %.Z l 7 z N Q D ! W Y Y 3.*.! Z 7 6 8 X.5.4.W m 6 z X.;.%.} { 5.i.g.c.s.5.-.F , ,.n.v.f.-.K @.",
"@.m.<.2.q.q.q.0.=.$.Q M l y :.&.! Z q 9 M I F M q N Z :.e.3.+.' m 7 6 C +.5.W q 9 9 W 3.O.^ K W *.;.s.s.y.w.$.v , D.D.v./ V Q @.",
"@.i.J B J -.2.%.) ) Q M l Z X.) N k x D M Z W m 3 6 x 3.0.3.! ! 6 9 8 f H d 9 7 N Y ~ :.( y 5 B C X.7.5.p.a.2.q y a.>.J M D 9.@.",
"@.{ g 4 , 1 B / ) ) ` V Q ' ~ M l 7 M b N ! Z 0 5 @ . 5 _ W N q q 9 Y ^ Y B a Y ;.( ( ^ d 5 # X % y ( w.7.7.<.%.e.&.K / F ` e.@.",
"@.) s u.t.g - 9 M V ) ` W M M A D z M m F ` Z 8 C X.U # o 6 x q x N I P ! X.*.-.:.*.^ ~ m 5 ,.4.d . 3 &.5.7.i.<.` S $.2.-.-.p.@.",
"@.$.i 1.A.v.#.; < v Z ) M M G F Z V S W W Y V y r +.5.X.0 % 6 9 a a Y ) _ #.4.O.X.( ! ) B 6 } s.g.#.# ; ^ ,.a.<.$.&.&.-.,.<.d.@.",
"@.:.K H x.a.g.<.3 % m M S F Q W W Z N Q X.! K l 9 Y 4.:.~ 8 . < 7 m 3.*.4.0.5.4.5.X.W R J m H i.s.g.y.2 O J :.2.7.:.<.<.<.e.k.@.",
"@.p.L K =.a.d.i.5.8 : b M F X.W / ~ J K ) Y W S l a X.X._ ^ a o = q ^ 4.0.3.0.4.4.:.) X.X.U B +.M.h.B.C.d O Z / <.5.:.;.<.p.j.@.",
"@.g./ D $.a.h.q.<.O.> 1 z N X.Q ~ ~ W W ) ! ! Z 7 l R ;.O._ ^ 8 O 6 x ( +.+.4.4.5.*.| X.X.=.N p 8.s.c.F.n.- 9 Q &.w.i.9.-.q.g.@.",
"@.q.$.A L -.g.u.,.8. .. 7 V _ W ! W Q %.W W Z W N q M _ ( Y P N * * x ( O.+.;.*.;.%.;.*.X.0.Q 0 s i.a.V.J.+.X B Q q.q.<.;.5.g.@.",
"@.-.&.` b Q =.i.8.6.<.g & M ~ X.-.Y W %.~ U ( ! x q k N P m M ~ N % 7 _ O.4.4.+.X.( ( ( X.,.} Z 0 ( y.i.v.j.H : L &.9.<.<.q.h.@.",
"@.-.` ` D A K { i.7.#.o.- q Q _ 4.X.W } X.! ( ! m M l l I c M C P 8 % N _ +.4.X.X.^ ^ C ) +.,.} M y E i.i.g.a.- v $.<.:.-.q.i.@.",
"@./ &.$.L A m K %.-.5.<.i : M ) 4.-.X.( W ~ W B W I x x k A M C ( Y O 9 I +.3.X.X.X.} ! W ;.4.,.} m a ^ e.V.k.H : K &.:.:.q.x.@.",
"@.W $.:.Q ` M z Z ) %.;.H * m %.#.4.X.) Z S M a Y ^ W m 7 k x Z ~ ^ 2 6 ) 4.X.) ( _ ~ Y B ( 8.8.8.) M M F =.h.#.; L $.<.<.p.p.@.",
"@.r J } / ` ` A b b F %.&.B B O.1.;.X.W a : + ; Y Y Q W C m q z I I s a ( X.( ! ) Y 0 O # d } q.8.5.X.K V F / { B W $.;.<.x.<.@.",
"@.] n B K W ) Q W V b V ) e.X.4.<.{ M 8 O ; s 0 6 a Y X.! ^ q < 7 l _ X._ E P N t ; o 0 s 2 J =.4.>.7.&.L D D $.%.;.<.<./ &.V @.",
"@.t.y Z L } X.} %.$.$./ W o.5.,.X.Z * + U O.6.p 3 M E _ ! Z N m I x y ( .._ N 8 X 0 O.4.O.4 B <.8.8.i.=.} %.` b J q.e.-.L 1 > @.",
"@.| y L Q X.=.=.>.O.X.=.{ =.+.} B : , o.4.;.o.: 9 Z ( Y m M N C ! U I ) Y m = O C 4.;.+.h : J =.7.8.6.<.,.6.;.:.%.$./ L < t u.@.",
"@.H n / } -.;.=.%.^ ,.<.+.+.%.M & r ;.#.+.;.a 2 C W ( Y M N x N ! ! ! P N : O T 4.;.;.O.5 J } O.6.6.;.;.4.;.=.7.%.F b < C k.n.@.",
"@.i L <.,.X.;.} { =.,.>.o.X.H = t ;.;.+.+.{ 5 a _ ( ..! Y N m M M W E P 6 + Y ;.+.+.;.d , ! %.O.1.<.,.=.-.X.) / ) Z 1 i i.v.j.@.",
"@.n =.q.=.-.,.=.;.<.>.O.=.} 8 1 O.;.+.+.+.t 6 Y ....o.( ! Y Z q m W Y N % s ;.+.+.+.T , B { X.;.<.4.;.%.;.;.X.%./ l ; i.g.a.v.@.",
"@.| ,.7.,.<.<. .X.,.<.O.} J ; R ,.#.+.+.C 5 J ( ..[ { ( ( ( W W V M N 1 : ..O.O.+.{ 5 t X.X.X.O.1.6.5.X.-.7.8.) b 1 ] j.a.i.v.@.",
"@.<.<.7.7.>.-.} } o.>. .K ; w ,.#.O.+.C 8 C } ....( Y Y ^ Z N P U B x O U O...+.( r 3 ^ X.X.X.%.#.1.,.O.,.4.;.! 8 y f.a.v.v.#.@.",
"@.7.7.<.9.5.o.%.=.O.O.} B - R #.#.+.H y V ( ..[ ( ( ! ^ I m x B B Y 9 # ..O.O.E 0 8 B X.o.o.X.O.#.#.O.=.=.X.$.K > o.a.f.a.| n @.",
"@.i.<. .~ ^ ) ^ $.$.{ W q ; +.+.( d y M ( ......E ! E I Z N Z P W N % p +.( f 5 t W _ ..O.+.} { +.;.X.X.X.=.%.v $ y.a.7.K n J @.",
"@.7.J n n K / V L { } J , $ { H y l B Y { | X.( C f H W x l B ^ Z y + p U a p C ! ( ( o.o.R f C ^ =.) ) =.>. .9 w o.Y B K V } @.",
"@.] B i ; , y v V K } ) J O.( C b W / ( ..[ ^ 2 # 4 @ 6 j 7 N P Y M J Y C U Y ^ { ..E } H 2 > 5 , y F ) %.+.;.} =.{ n B ` -.>.@.",
"@.R J 6.#.u % < b V { +.<.=.B Z ^ X.( E ( ( Y 5 5 E d @ % 7 7 x C W ! Z Y Y ( | | { ( { H t ( [ e o 1 S / X.o.;.%.K V } ,.,.<.@.",
"@.{ C #.i.t.{ > , q W %.R K { X.X.( ..{ ( ..Y 0 4 [ O.E 8 O 6 q P W Y E E ( E { [ ( ( ( R 3 U #.#.R @ < v W ,.+.) } =.<.<.7.7.@.",
"@.^ V | t.1.7.O.: : B W )  .} X.....( ( ( [ R N : h ..E ( a O < Z ^ E ( [ E [ [ ( { E { T 0 f O.O.+.o.; % m %.>.;.+.,.,.>.<.<.@.",
"@.-.C J +.7.>.O.( 3 ; m ^ O.o.( ( X...( R E ( J 8 2 { ..( ( a o t R E E E E ( E E E E { ( m y J +.O.O.O., % Y O.+.#.,.+.o.,.#.@.",
"@.<.K n C >.#./ %.{ , 1 K { o.{ { { { { E T E R m 8 s ( E E ( f + C ! T E E E { E E ( ( { ^ m t | +.O.+.X.@ : / ;.#.>.;.O.,.1.@.",
"@.O.K V n ^ ;.{ -.;.U % y ) o.{ { ..{ ( E T E E Y M 2 C E E E ( ; # ! E E E E E E E E E E ( J y t o.o.X.O.[ o m +.O.+.o.+.1.6.@.",
"@.,.-./ n V } } %. .+.s * Y } { ..{ { { E E T E E Y 0 5 T ( E E U @ a R E T E E E E E E E E ^ C 0 C X.O.O.+.t + ^ } X.O.O.,.,.@.",
"@.+.=.,.J v ~ $.} O.+.o.@ 0 ^ { { ..{ ( E E R T T Y Z a 2 U E E E 5 - H ! E E E E E ( ^ E E E ^ M m H X.X.O.o.# y { X.| +.>.#.@.",
"@.O.} >.>.K V V W X.+.>.s : W ^ ( E E ( E E ! T T R Y Z m 0 f E [ U + C R R E E E ^ ^ R R W E ( W m 0 C X.O.+.u ; ^ { | +.>.#.@.",
"@.] | >.-.} D l J W ( +.H # m ^ ( [ ( ^ E E f H ( E E Y C y 5 0 Y T 2 t R T U U R Y Y R C C E E ( J q m Y Y X.H - C / X.O.o.+.@.",
"@.e { o.} >.%.N v M b f U a d ! ( E E P a 5 # 5 E T T Y T a x q y s e C U Y H U Y J y > > f J R E E Z 9 m y 5 d t U } } o.{ { @.",
"@.H d V { $.=.} K m M a W 5.T ( ( E C 8 X # e $ t U T T Y Y P C a a X.O.U E Y U H > X 4 e 4 y ^ ( E W V y m y Y 5.{ | { ( { u @.",
"@.#.t C } ) | } } ^ ^ M b Y { { T B : + f [ ..t 0 U E T Y T T Y N B C Y T E C a - 4 H ] T , f Y ( { ^ J V J C C ( | { { Y 5 @ @.",
"@.@.@.@.@.@.@.@.@.@.@.@.@.@.@.@.@.@.@.@.@.@.@.@.@.@.@.@.@.@.@.@.@.@.@.@.@.@.@.@.@.@.@.@.@.@.@.@.@.@.@.@.@.@.@.@.@.@.@.@.@.@.@.@."
};
