/* XPM */
static char *result[] = {
/* columns rows colors chars-per-pixel */
"64 64 86 1 ",
"  c #060403",
". c #0B0605",
"X c #0E0906",
"o c #0E0A09",
"O c #110A07",
"+ c #130D0B",
"@ c #190F0C",
"# c #16100E",
"$ c #1B120E",
"% c #110F10",
"& c #161212",
"* c #1C1512",
"= c #1E1816",
"- c #191719",
"; c #1E1A1A",
": c #20140E",
"> c #211714",
", c #221916",
"< c #281913",
"1 c #231D1C",
"2 c #291F1B",
"3 c #26201F",
"4 c #2A211E",
"5 c #31231D",
"6 c #38281E",
"7 c #1F1E20",
"8 c #221F20",
"9 c #252223",
"0 c #2A2524",
"q c #2D2827",
"w c #2A2728",
"e c #2D2A2B",
"r c #302724",
"t c #322925",
"y c #322D2D",
"u c #3A2E2B",
"i c #36302E",
"p c #3A312E",
"a c #2F2D30",
"s c #312E30",
"d c #353234",
"f c #3A3534",
"g c #3D3837",
"h c #363538",
"j c #393639",
"k c #37393C",
"l c #3D3A3B",
"z c #413028",
"x c #423730",
"c c #423832",
"v c #493B36",
"b c #423D3D",
"n c #483E3B",
"m c #43403E",
"M c #4C423E",
"N c #51423A",
"B c #3E3E40",
"V c #413E41",
"C c #454244",
"Z c #4A4544",
"A c #474946",
"S c #4B4946",
"D c #464549",
"F c #494649",
"G c #4C4A4C",
"H c #514745",
"J c #524C4C",
"K c #584E4B",
"L c #5B5049",
"P c #4E4C50",
"I c #514E51",
"U c #515354",
"Y c #5A5555",
"T c #555559",
"R c #5A565A",
"E c #57585B",
"W c #5D5B5D",
"Q c #60544F",
"! c #645B59",
"~ c #5E5D61",
"^ c #625E60",
"/ c #636165",
"( c #686364",
") c #656469",
"_ c #686568",
"` c #6A6B71",
/* pixels */
"UUUUUUUUUUUUUUUUIUUUUUUUUUUUUUUUUUUUUUUUUUUUUUUUUUUUUUUUUUUUUUUU",
"U/^L6:C(^E~J,4bFDFVVBlkfdhdr1+,yswa0*+>891;1791,;7;*+o+;88;8&++U",
"U(!u$b/^W^Yr<cZDDVVBBljjffs2+;sseee1+>1881;398;;11*#O%;8188-++&U",
"UQv$j_~E~Ey,uVFCDVVBBjfdhsq$&sdaye8+#,-;1188;1;>;>$+o;811;;+++&U",
"UN<4/(W!Rf,uVGFCCCCBljffsr>+esyse1#$>22,*;9;;,>>*-+X-8111*&+&**U",
"Uz$Z`)WJu4zZJGFFDCBljhjhs2@7hsye1*>,2111;3;;;;>*>&o&8,*1*#@#>,&U",
"U4,/`Ucq5zHPPGZCZCVlbjhfd1+ahe9*$<2409111;1**>>$#@o;1-*$&@$*,*&T",
"U40Al44ubZPPPCyeyjbVkjfsy2&w9,*>,33901&+#**$*,>*$@#,1**@@@$;;*#U",
"UKSprunHJJPPDu&-&&8pgdsfssu8,,1249008>$ooO++@>*$@>2;#$@@$$*;>**U",
"ULMzNJIYIIPPV0%lh9%+2yuffsq<8r8e09921>>1-%+O+@*$$*&#@@$$:#***&*U",
"UYJJJIITIIIFny,BGVd,X>ydsseqrrq80022<>>,11*%X+@$>**#$$$$*$**>$*U",
"UW~TTRTTIJGDbp20DVBj0O@0usseeyew003,1>@>,11,*OX+$*==,>$@$*$**$#U",
"ULUTRIIIPGPFVp4<sVbfjq+%qtsseeeq03211>::,111,*+o@$,,,&@@$*$$$$@U",
"UZJTRIITPFFFbu552jVhjhyX@8yyeeew031,<<:@>11-*1*oX#*;>$$::$:$$*$U",
"UuZITTIGFFFCbyut22hBffjqX*8yeeeq812>*,*@@1,*>,;*XO**@$$@**>$*$$U",
"U@nKGPIGFFCVbyffr88sjdhs1X<ywwee412,,,>*@:<,,;;;+O@@>$:@:@$$$$$U",
"U+5ZJIJACVCVfyssf421efdda+@8rye881111,>>:@$>1;==;+O#*:$$:@$$@$$U",
"U1$mTJIFCVVcuuuusu4<4qydd;o,r8ey2<>>>>>,>$@@$,1,,&O@$$@$>$:$$$#U",
"U1XiGCFFVgu012eyyy02,210e1X*88e8,>>$@@&>>$#$+$,,1>++@@*>@$$@+++U",
"UgylJDFFgy*oO%&20quyr,<4qr81re88>@+XXO+#$*#$@$@#>1,@@>>@@$@OOO+U",
"UvVGIFbc,+&ek0+2r88qq02,12q0w90,@OO&1;++:$*$$*#@@$>>*>@:@OO+$*+U",
"UcVYPbr%&eVCV*&qfrr8qqqqq0qww8*+o&129=+#$*>>$$**$:>>,>@+O#=,,&+U",
"UVVZVrO-FGBCe+,0sd0qreeye0ee9*oo80111#@$#**$:*****>>*$+O$2,>,$$U",
"UVVVt+0CGIGl**4qyy0qeeeae8q1*O&ww809&O$$,,$$$*=*>;**$O+-1,1,$##U",
"UVbqO0CBlPC1#4pyrer0eeee081>+&we813;+@$*,***$,,=13*$OO=092,>#$$U",
"UltO;CVlkVq+2yfdsyq8eeeee,-+oeew99=$#$*=**,*#,,*,1*++*33332$$$$U",
"Tu@*VVbbj0+,yesdesseyeaww,@o7aaw01#@$*1;***,,,,**>#O*30312*$$*>U",
"I8OyDBld8+8shseieyfseeew8,O&ewe9*&$#*11=,*,2,,21,$+#00432*$$*>>U",
"T,#lChy*@,flhse0eyyweeew1&o9w93*+@*,3=$*1,*31=;1,*O;w991>:::,>$U",
"U--ie;&=9slVjs9&,8qewaww,&&91;##$&=11=##$*>100;;*$*391=$$:>>>,*U",
"Ue91*,0ysddVs8&oOo*9wew9981&&*&*$*11,*#oXO+*30393;03=**>,43,*,=U",
"Uby0yygdyaajy*&ww&oo;0ww099;1;;1,,11=#&;;+OX#,0w003*>;20100,$=2U",
"RVbabVVjaadjj-*ska7& &9ww9180098,;11=$*1w9;#X#30003;300q000,1>,U",
"TGVbdVVVhBjdV0+-dade*.o;399w99781=11=##=ww0e;XO;3330090000q341*U",
"IVVbjhVJVVVdbu>$0sade9.o=;w9w7981;11=***3wwee3oo>,3000000000eq1U",
"UubVhVVVVFVlhk8@*edaae; #;8w99981,1112>$*we00w8oO$13003q000qee3U",
"U1bVhhVVFVVVlVe-&2edaae; #;9e999313111=$:,0q00q3X+*3004004qeye0U",
"U+shhadjVhafe0q,##,waeea& =9e9973911122,:*33qqqe;X$40404400eeeyU",
"IX2usaaseayw9118,#&*9eae7.#;99999111=,,2<$>30qqe0#o3q0qq0q4tytyU",
"U+%8sayee8qwe0,00=&&*;waw&X=39w931,=>,1343>$300qi8o$3qeq040rqrqU",
"U%o9yaewe0,,-%&9011=&*-;3- #;79901**$*=4402,$>45s9o#4qqq4q4r213U",
"U81eaeee0*+XXO%*1991,,**18-=13931,@OX%&*2341,,>44q030qq444<#o#=U",
"U00eusw8%X+-8&%@*19w99;**;379931#XO&;;+$140344<143yissi4<#+=qa;U",
"Uw9088>Oo;ww0*+#;;9ww9871183w31#X&0001+:<300qq34540yqq5,+*qfle*U",
"Ier81@XX8e901$$*87999w9811331*oo,w009*#>404qeeyqqyeq54$@4dkgl3*U",
"T828*X*,ey98%+$,979989997;;1&o%9e000;#,<0qqqyyeesyi44$$qgddle*3U",
"U81$O*w8800,+$*,79w99899111=o#wew9w1##12qqqqweeesiy4$*eggglh13qU",
"Y8<++181891+@2899998w7998;=&o399ww9**34qqqqeedieset<$qkgdlg3,tpU",
"T1@O112801+@,q09099977933;#X7wwwq3**3qqeqeaysassiq3$3glggg0,4ggU",
"U>O*81q0;+@*8w8907ww73731=O&e9ww7#$=3qqqeeyysadaii3=ilkgf3,4xglU",
"U++9809*+@>89w9833999971,#O8ew3=#*30qq9qaqeyaadyys34kkftq4tflmgU",
"UX%90,##@*89991*;77993331&%343&#=30qeq3;3qqysisdys79dt44ticmmMgU",
"U*&**$@**7998-&ooo-;;7331;71*#=13q3344=#o#1qpiiyif4-=4tiglgllmiU",
"U93*#*;119898*o;&o %*379344=**3300332=&;1%o#4iiifggitpgllmmgmi3U",
"U3;*<189;99;1;%9w9-oo#=991==333wq0004=;qks9#o3iiiiipppmmlmmmggtU",
"U9;*>,,,,99991%&w9q9% +;88333334q00q33;;aiki;O=ifdfkgmllclmmmxpU",
"U11,**=;;87898=+399q9- %=39999w9q9q99q3;qiskk3o=iggllBllmlmmmMuU",
"U,88,,1,189877;#&39999-o#399999w9qe9qe4;;eddikqo;dggllBmmmmAASxU",
"U*111,;99998881=#%7999w-o&3999wwwwwwaqq4,1edssk3+0fdgkmbmmmAmAMU",
"U+,11;1;18711888=%&39999%o39997wwwweqqeq4,;qkkkg1#idgglbmmmAAAAU",
"UX&,1;81189;;7793&&&79997o&39wwwwwwweeeeeq31ekfkd&1dllbmCCmASSSU",
"UoO;1988777997;777=&&;999&o399wwwwwqqqeaayt413skB3&dlmmCCCZSSSZU",
"Uo.&91;878;;;99777;;=&-;7; =99w99wqq9qsseaiy440qfqoqlmCCmASZCgMU",
"UUUTUUUUUUUUUUUUUUUUUUUUUUUUUUUUUUUUUUUUUUUUUUUUUUUUUUUUUUUUUUUU"
};
