/* XPM */
static char *_5d485484a0546b5feddfa6938e10126mYBBb45GWFBcSR0b[] = {
/* columns rows colors chars-per-pixel */
"32 32 15 1 ",
"  c #7F020E",
". c #841B24",
"X c #892F36",
"o c #8E4045",
"O c #914D51",
"+ c #965A5E",
"@ c #9A6669",
"# c #9F7174",
"$ c #A88587",
"% c #AC8F90",
"& c gray65",
"* c #B3A1A2",
"= c #B7A9AB",
"- c #BBB2B2",
"; c #BFBABA",
/* pixels */
"&&&&&&&&&&&&&&&&&&&&&&&&&&&&&&&&",
"&                              &",
"&                              &",
"&                              &",
"&                              &",
"&                              &",
"&                              &",
"&                              &",
"&                              &",
"&            +%;;;;=#X         &",
"&           #;;;;;;;;-         &",
"&          X;;;;;;;;;#         &",
"&          #;;;@               &",
"&          #;;#@#X             &",
"&          O;;o;;;-#           &",
"&           %;@;;;;;*X         &",
"&            #+-;;;;;*         &",
"&             ..#$;;;;+        &",
"&                 #;;;#        &",
"&          o;;$###*;;;#        &",
"&          $;;;;;;;;;;X        &",
"&          @;;;;;;;;;@         &",
"&           O#-;;;;#o          &",
"&                              &",
"&                              &",
"&                              &",
"&                              &",
"&                              &",
"&                              &",
"&                              &",
"&                              &",
"&&&&&&&&&&&&&&&&&&&&&&&&&&&&&&&&"
};
