/* XPM */
static char *result[] = {
/* columns rows colors chars-per-pixel */
"64 64 43 1 ",
"  c #0F0B06",
". c #0F0D09",
"X c #140E05",
"o c #120E0A",
"O c #16110C",
"+ c #19140E",
"@ c #171111",
"# c #1C1611",
"$ c #1E1811",
"% c #1A171A",
"& c #1B181C",
"* c #201712",
"= c #241C15",
"- c #291F17",
"; c #271E19",
": c #291F19",
"> c #272017",
", c #2B2117",
"< c #272018",
"1 c #2D2219",
"2 c #32251C",
"3 c #38271E",
"4 c #35281E",
"5 c #3A2A1E",
"6 c #25232F",
"7 c #352721",
"8 c #372920",
"9 c #3B2C21",
"0 c #3F3023",
"q c #262431",
"w c #292634",
"e c #2C2836",
"r c #2D2939",
"t c #412F23",
"y c #433125",
"u c #4A3425",
"i c #433228",
"p c #36344E",
"a c #373552",
"s c #393755",
"d c #41436C",
"f c #4F5485",
"g c #505689",
/* pixels */
"o...o.o.ooo oo oo.oo . ..o..o...ooXoo ooooooooo oooooooooooooooo",
"ooooO+++oo++++OO++OO++$$$@+++@++@o++++o+O++**+*#++++++oOO+Oooo@o",
" ooo@+O+ooOO++OO++O@++$$@$+O++@o++++++@Ooo$$+#*#+++o##oo@OoO+ooo",
"ooo *=<1  1:3224+@oO===---$=--221:--=-##+O-,2::2::====#+:2@@o@oo",
"ooo ==11oo::2222@#OO==----$$:-2111---=+*OO,,1111-2===-++2:oooooo",
"o ,-:-<1oo==22--*;Oo*=-,=-$$==22=--=22**OO,11=1---2-==++2222**o@",
"oo--:111@o==22--**oo==----==;;2::=--12**OO11=1::--22==++2222**@o",
"Oo11**@+oooX22--==Oo*=--,,=*==22-:,-22==OO77-=11--23==++-=22::O@",
"+o2-*=+Oo oo27:1==OO*=--1,*=-=22----22*;oO74--11--23==++:222::++",
"+O,,=+o ddqqo.11-=Oo=*:-21*==-22:---42*;Oo77--22-=32==*+--12::o+",
"+o,2+=oodd6qOo12==OO==1121*===22----23;=OO33--22--34==++:-22::+@",
"**22*+oo@@%%.o44:1++=$1<42===-22--1122==OO98:;42--44==++,22222o+",
"**2,$*oo%@&&O.44:1++==--22==>=44--1142==+O97,,22-,33==++1:71--++",
"$+,2**o@ooo.,,211:++==-2,,,,==22--:244==OO84=-24--43>-=+111722++",
"**22**OOooO.1122-:++==--,,,2=-22-:1:78==OO591-42--44--=+112222##",
"+O--43==++2122122,====2,,,1:-,24-:1238==#+94,:44--44=-*=1-2278++",
"++--33==++22222211*==*1,,,11:=44-:2149==++88-:23=:481;=*112275+$",
"++--23,2+O222222,,:-1:,12,21::24-12173=-**99-=2:2247=;==,12478#$",
"++,-4412+O222224-,--:,1,,112:-34-:2193===*582-:22237=1==112244$$",
"*+--22--+O325522---=,1,11:21:-22112288-=**33,-2-2444;:<<112784##",
"#+:-22:-+O225922-:-=:1,1,211,,22112253=-=$44,2-:2248-1<=117288$$",
"##--2122$$249911::-21-1-1,22,,,,12223311=$33:-2-2454=;==111780+$",
"++--2222$+2459221--:2--11,22,,,271273311==53:2-22274;;==117199$$",
"#+--2222==229012-1---1:-,112,,211171441,+$55--2-2235=;==111798$$",
"++--2222*=329922:1---2-2-222111141177411$$33:12-2233;:=;212289#$",
"#+,,2222=*129922-,;;-2-,-,;=111114724411$$4211-22234;:*=221105$>",
"##1-2222=*22t911:1=;----11::11,141743411=$24112-2243;:==221155$>",
"##==2222-=2299222:==222211:-1111247244>1$=4411-21147;;;=421155==",
"#+*=2222=-31tt:2--==22::11=:1111244443,,=*4411121142;1=;331155==",
"++==23-2:-1,t522:2==22-221;;111,24782,1,=;1221111<22=1<;551159==",
"++*=27:-=:21tt,2:-==22:-11;;11,1449521<1;=2111111,12-=,>55,105==",
"++**212:::,15t,22--:44:222;;211:225511;;;:1121111,21=,,155,255==",
"+O=*211,--2,tt-211=142,121;;11<<225012>1;<1211111122-=223511t5==",
"OO==2311-=2299-,,1==241122;;1111424411=><<1112141121;:11051150==",
"++=*2211--,,tt,22,==441122;<12<<224511>,<;11122211211=21591150==",
"++*=1-12--2,55,2111<242247;1111;724411;1112221771,121111991150==",
"@@==2-21-::25511,111442244;;2,,1244421;<1<2121241122::2150,200$=",
"+@=*-2,1-:2-55112,11242447;;121,744411111121112211111112502255==",
"++=*2,2,-2--55221111442274;:22<1275411111112<12211221171052,55=,",
"++-2,-22::,222,1212:447444:;211<227711<1111122441112111155,2t0==",
"++2,1121;1112212-221444444::22<1228811<<<171124411121141552250=>",
"#+,21,12111112122,11991178::2211228212<7117124991121<<2255,2yy=>",
"++1,,,2211212211,221992,77::22-1224212<<111144881122;11250,200=>",
"@+221222111112211:--952179::22,,227822111114740911211=27052,y0==",
"++,21122,1112212111:t922971:1411228422<<111274901112--225522yy>>",
"==2211122111222111::992,871:11112124211<1141899911221=4435,,00==",
"=$22212112,,2122<1::5t,278111111222221<17<1299991122>,44352200>=",
"==2211212421221111:-552,99111411222422<<=;7189901<221,55552200>=",
"==22,2,25222222,11<;991195122111224422=11<22070711721<89992200>>",
"$$22222,25,2,225<11<9947991111,,222242==211287007<221<0y994500==",
"$$222,2,55,,,22211:<9978991112,,214727==2171800011221<0098550y>>",
"$$22,2,2,,,>222211;;99884412=>22224471==211798998880<1i000ii55*$",
"$$22,2,211>>222,111,99974412=,22228822$=272289908800<100iyuu45$>",
"$$22,2221,>>225521<<99794822==22112222<><<42097788$=++OO==yyyy>>",
"$$222,2211>>225211<,99788344==12<24244=,1<22908988$$O+OO,>uyyy>,",
"$$52222221==222221,>98i939221144224255-><<22007880+#wwrrOOtt00>,",
"$$74142111==242222,-85yy9522,125222294>>>,22059889++eqeeoOytty,1",
"@O1-414411$$215522,>229t0t22>122225995>>OO44507788+XapfgXouu89$=",
"++,,124412**2222221,420t00421,52219955>>+X54004799O+safgXXuu93==",
"O+++==52,,XO222222=>12t95524Oo950022>>>>XX22974244**OOXX$+9912Oo",
"@O$@==42,1OO222212,,22yy9944O.950022>,>,OX34834444$=o+OO**9944OO",
"+O@O$+*$+$OX$$>>,=>=OX==>,=-OO42$$#$>>$$OO$$=====-,=11OO--##O@OO",
"OOO@$#=$+$OO$>==>>>,OO>=,1,>XO44$$$$=>$>OO****=-,=--22O+1,$$++++",
"OOO+oOoOOOX+XX+XoOOOXOOOOXOOOOOOOOX+OOOXO+XOOOOOOOOOOOOo+O+OO+OO"
};
