/* XPM */
static char *result[] = {
/* columns rows colors chars-per-pixel */
"64 64 67 1 ",
"  c #0F0B06",
". c #0E0D0B",
"X c #140E05",
"o c #120E0A",
"O c #16110C",
"+ c #19140E",
"@ c #141313",
"# c #1C1511",
"$ c #1E1811",
"% c #1A171A",
"& c #1C1C1C",
"* c #201712",
"= c #241C15",
"- c #291F17",
"; c #271E19",
": c #291F18",
"> c #272017",
", c #2B2117",
"< c #20201F",
"1 c #2D2219",
"2 c #32251C",
"3 c #38271E",
"4 c #35281E",
"5 c #3A2B1F",
"6 c #242424",
"7 c #2F2720",
"8 c #292827",
"9 c #25232F",
"0 c #2A2A2A",
"q c #352721",
"w c #362921",
"e c #3B2C21",
"r c #332E2B",
"t c #392E28",
"y c #3E3024",
"u c #34312F",
"i c #3C322B",
"p c #262431",
"a c #292634",
"s c #2C2836",
"d c #2D2939",
"f c #343433",
"g c #3A3633",
"h c #3D3936",
"j c #3C3B39",
"k c #412F23",
"l c #433125",
"z c #4A3425",
"x c #42352C",
"c c #44382E",
"v c #413732",
"b c #443B35",
"n c #423E3B",
"m c #483F3A",
"M c #44413E",
"N c #4B423C",
"B c #36344E",
"V c #373552",
"C c #393755",
"Z c #464341",
"A c #4B4541",
"S c #4D4945",
"D c #514A47",
"F c #534E49",
"G c #41436C",
"H c #4F5485",
"J c #505689",
/* pixels */
"o  .o ooo o o oooooo    . .  .;&@%&&&<666000f=Xoooo   oooo..oooo",
"ooooO##OooO#++#oo#o###$$#$@#O#@Z.%%&<<660000f=+$+$O+#+oOOOOOoOoo",
"o ooOO++ooO#OOoO#O@O++####++o#O$j.%&&<666000j$$$++O+#+Oo@OOOoOOo",
"ooo ==>1  ::3233O#OO=*--=-=$-:72i6@&&<<60000B111----=-#+2:O@OOoo",
"ooo ==:1 o::2223##oO==----=$--211D@%&<<66000f111>---=-+O::OOOOoo",
"o ,-::1>oO==22=-*=oo*=----##==12>>f.%&<<6000M:>-,-11==#O3222##OO",
"o >:::11@o==22--*=oX==,---==-;12;-b%@&<66000n-,-,,1>==O+22q1**.o",
"OO11=$@+oooo22,-==@X*=-:-:=*==22;>>Z@%&<6800r-12>-33==++:-1q::OO",
"OO11**#+X ooqq::==oO=$:,,,*=-=22--:>g@&<6800m=11-:32==++:,12:,OO",
"OO11$#  GGpp .12-=oO==::22*==-22----0@&66800r-22-:23==++,,22::O+",
"OO21$$oXGG9p O21--O+==::22*=-=22-,,-n@&6680s4>22--33==*+:,q2:1O@",
"**12#*ooO@%%O 33:>++$=::22====22-:1>j@&&6000r>22--23==++,,22,1O+",
"**2,**oo@%&&..441:++==:122===-24--2:f@&66600f722:-33==++:2q111O+",
"*#21**oOoo. 1,12::++==1,,,,,>=22--:2n &&<6006M44--42=-**::1q22+#",
"**22**OoooO ,,22-:++==,,,,,1=-22-:1:vuO%<60000Zi:-34=-**1:2122+*",
"+O-=3q;=#+2122222,====1,,1:1-,25-:21wxf%&6880u0h--44--==1122qq+*",
"++--35==++12222211====-,1111-=42-:21we76%686000g--34->$$>122w4##",
"++--3211++222222,>---:111,21:-24-,214wA@&69808gv2234;;;-11q2ww#$",
"#+,-2312+X222422,:--:,:12,12::34,:21wb6%666888A12244=;-=113244#$",
"#+--22,,++325522::--1,:,::21::22>1223A@&&6888Z1,224w---=1122e4+$",
"##--22,,++22ee12::--:,1,,211,,22112qN%&<6600nq:142e4->--11w2ww#$",
"##-:1222$$22ee12:::1,::11122,,,,221wj@&<6600b1::4244;:=&111qyw#$",
"O+-,2212+$425e12:,,,,,:1>112,,2,122S.&<6606S112:22w4-;==1121w4#$",
"*+-:2222==245y22:,::,,1:1122,,1,22b&@&<600fx,,:12243-===1241yy$$",
"+O,,2222*=33ke22:,::::1,1122,112q1j@&<660fm4,1,12233;;==1122ee#*",
"*O,,2222**21ee21,,--:211,,--11112N%%&6606M2311:22243;;==1411e5=-",
"*+,,2222==21ee:2::;=:,1,>1--1111tf@&<600f;2411112233;:==42>153==",
"+*=*3222==22ee222::*221111-:1111F.&&6800g=421,2,112q;:;=441153$=",
"*+=*qq22--225k22:1*-22:,11::1111B.<<606M==2311111144-;--442155==",
"++==22-1--2,5k:22:==22:222=;111,N.&6600j1=1111211>21=-;;54,,k5==",
"++==2q:1:-12kk,2:1==22::11;;1211i8@<600fr=121212>,22----452,55==",
"OO**22::::1,k5:21,--32:222;;11-:4D.<<600n:1111111,21--1255,255==",
"+O**22,,,-1,kk:21,;-421112;;211:2N&&&600j>1112111122--12331255=-",
"++-*22,2-,12kk:1,--=441122;;,2<124u@&660f11211241111--11e5,255==",
"OO=*22,1--115k,11,--44>122;;121>24F.&<600h122241,122--2,ee2155==",
"+@=*,:,2=-1:551,11>>422223;-21>>42N@&<608M1111441,21::21ee1155=-",
"+O*=112,::,,e52,11>1442432;;11,,44yh@&<88j7112441122::21552,5y==",
"##**,122,,1155,21121422234;;22,,224F.&<600M11>22>1121112y522y5=-",
"##:*,112:11135,2211:44223w>:221>224h6%<606S11124111116215y,255=>",
"##111122::,2221,:12144w43w;:22<>22wwS.&<60jw124412221122552,kk==",
"++2:1122>11122122:214444w3;;2211424cZ@<6600n12441121112155225y=>",
"#O:211,21121222,1111k51133::22>1MMh<@&<6800M44551112>,22y5>2yy=>",
"#@21,,22>12122121211k5114w:>25bh&.@&<<<6600fy2e51122>>115522yl==",
"OO122,221111212111:,5k11qw1vM8@@%&<<<668000ji4ee1122>>445522yl==",
"++2212221112221111>>kk,,4wt<.@&<<<668080ujhv44ee1114,>245522ll>>",
"==,2112,121>2242>11;5k11wwh%%&<6668800jhu112eeee1141>>4455,,yy==",
"==22111211,,221211:;kk21wwZ@&<6660fghr1,>122weee1114>,445422kk=,",
"==221211231,222111--5512eeM@&<68fMw422,,1>21ewie11w1,,555422ky==",
"==,222,222,2222,11<;ee11eeg%&<0uM14422-->,21e5ee111w>>55we22lk=>",
"$$22,22,252,,2221111eeq2eeMO&66j414422==1142w3ie1741,,ylee44yl=>",
"$$222,2,25,2222211>;e533eeS.<68f224422==2122eeie111w,>kkwy44yl=,",
"$$222,222,,,2,25>1;-eeee44Z@<68M12ww1q==1422weeewwee,,lillll45$$",
"$$22,2,222=,222211,>eewwwth@680b224444==11445eeeweyy1>xyllzl45$>",
"$$22,222,,>=,25521>,eeeeNh%6<80h122424-=1141ekeeww$$++OO,>llll,,",
"$$2222,212>>225211,>werh&@<6000i212242-:>>42etwwww=$O+O+,=zlll>>",
"$$52222211==222221-,4Nj@%<6606ji242254-:>>41tlwwe5++aasdOOkkky>,",
"$$44122212==222222>>N<.&66686Mc4222255>>>>22eywwee++apssoOzkkl,,",
"#+>-2244,1$$2252227M@&<<686uM,44145555>>OX34yeqwe3OOCBHJoozl35$=",
"++,,222411$$222222<.&<6860bi1>44215555>>XO345ewwwe+OCVJJXXzze5==",
"@O#+=$52,,OO222222%%&<60jN42OOy4yy22,>>>OO42ee3223**OOXX*$5e11OO",
"O###>=22,,XO222222M.<660be43XO45yy14,>>,OXq3we2322$=OOoO=*ee42OO",
"+XOO$#$$#$OO=$,==>wu@<60h,->OX42$$$$-==$X+$#$$-=-->>12#o--##O@O+",
"OO@O##$$##OO$==,-=>M@&66j1->OO44$$$$>=$=+X*+=$-=>,,-21o+,,**o+++",
"OOOOOOOOOXXOOOXXOOO+j@<68hXOOOOOOOXOOOOO+X++OOOOOXOO+o+X+OOO+++O"
};
