/* XPM */
static char *f187761b1df8419b87f329747dfde349MppKdyaG6URqG4xJ[] = {
/* columns rows colors chars-per-pixel */
"64 64 215 2 ",
"   c #020202",
".  c #090706",
"X  c #0A0806",
"o  c #00040B",
"O  c #0C0B0B",
"+  c #110E0D",
"@  c #15110D",
"#  c #0A0E14",
"$  c #0D131E",
"%  c #141313",
"&  c #1A1716",
"*  c #1C1A16",
"=  c #1C1C1C",
"-  c #27180F",
";  c #251714",
":  c #251B16",
">  c #2D1D14",
",  c #231D1C",
"<  c #2B1E19",
"1  c #331C14",
"2  c #311F1B",
"3  c #27211C",
"4  c #33221C",
"5  c #3A251A",
"6  c #0E1621",
"7  c #121722",
"8  c #111923",
"9  c #151A2A",
"0  c #171C2C",
"q  c #19232F",
"w  c #1A2531",
"e  c #1D2B35",
"r  c #262525",
"t  c #2C2523",
"y  c #2E2A24",
"u  c #2D2828",
"i  c #322B25",
"p  c #3C2C23",
"a  c #392B27",
"s  c #342E2B",
"d  c #36312B",
"f  c #3A342D",
"g  c #213339",
"h  c #343333",
"j  c #3D3A32",
"k  c #3D3937",
"l  c #4A2E1E",
"z  c #442E24",
"x  c #472F26",
"c  c #423026",
"v  c #4E3225",
"b  c #43332D",
"n  c #4C352B",
"m  c #4E382E",
"M  c #533426",
"N  c #593627",
"B  c #54362B",
"V  c #55392D",
"C  c #5B3C2E",
"Z  c #473631",
"A  c #443B35",
"S  c #4C3B34",
"D  c #433C3B",
"F  c #4B3E39",
"G  c #533C33",
"H  c #5B3E32",
"J  c #553E39",
"K  c #613B2C",
"L  c #623F32",
"P  c #29423F",
"I  c #424037",
"U  c #45433A",
"Y  c #4C443C",
"T  c #4D493E",
"R  c #5C4135",
"E  c #54433C",
"W  c #594338",
"Q  c #5B443B",
"!  c #64412F",
"~  c #624334",
"^  c #63463A",
"/  c #64493C",
"(  c #68493B",
")  c #423F40",
"_  c #294341",
"`  c #2D4B47",
"'  c #2F564A",
"]  c #355D51",
"[  c #376352",
"{  c #474747",
"}  c #4D4342",
"|  c #4F4B40",
" . c #4D4B4A",
".. c #534642",
"X. c #5B4642",
"o. c #514C42",
"O. c #5D4B43",
"+. c #554D4C",
"@. c #5B4F4A",
"#. c #4F5044",
"$. c #59564B",
"%. c #5C514C",
"&. c #4F4F50",
"*. c #515354",
"=. c #5C5553",
"-. c #5A5757",
";. c #5B5759",
":. c #5E5B5C",
">. c #634C42",
",. c #684E43",
"<. c #624F4A",
"1. c #655246",
"2. c #63534B",
"3. c #67544A",
"4. c #6C554C",
"5. c #715448",
"6. c #73594D",
"7. c #635653",
"8. c #645756",
"9. c #645955",
"0. c #6D5C55",
"q. c #645C5B",
"w. c #695E5C",
"e. c #735C53",
"r. c #43735D",
"t. c #67625C",
"y. c #6C615D",
"u. c #77645A",
"i. c #73625C",
"p. c #625D62",
"a. c #6C5F61",
"s. c #437562",
"d. c #656264",
"f. c #6B6464",
"g. c #676669",
"h. c #6A6669",
"j. c #6D6A6C",
"k. c #726663",
"l. c #7A6763",
"z. c #756964",
"x. c #7B6A65",
"c. c #746B6B",
"v. c #7A6D6A",
"b. c #797567",
"n. c #7D716D",
"m. c #6C6970",
"M. c #746E71",
"N. c #747273",
"B. c #7B7374",
"V. c #7E7976",
"C. c #767379",
"Z. c #7C767A",
"A. c #7D797B",
"S. c #806F6C",
"D. c #83736E",
"F. c #827675",
"G. c #867976",
"H. c #827B7B",
"J. c #8A7C7B",
"K. c #4C826A",
"L. c #549473",
"P. c #5BA47D",
"I. c #86827E",
"U. c #8B827E",
"Y. c #7F7D83",
"T. c #837D81",
"R. c #8A7F83",
"E. c #5FB381",
"W. c #68BC8A",
"Q. c #69C38D",
"!. c #70CE94",
"~. c #858284",
"^. c #8A8384",
"/. c #868588",
"(. c #8A858A",
"). c #8D898C",
"_. c #96898A",
"`. c #918D8E",
"'. c #938D92",
"]. c #988E93",
"[. c #939393",
"{. c #979090",
"}. c #9B9394",
"|. c #969399",
" X c #9B969A",
".X c #9A9A9A",
"XX c #9D9A9D",
"oX c #A4948D",
"OX c #A19A9D",
"+X c #9C9CA2",
"@X c #A29DA2",
"#X c #A4A3A4",
"$X c #ABA5A9",
"%X c #AEACAD",
"&X c #B1ABAC",
"*X c #B1AFB0",
"=X c #B5B3B4",
"-X c #BAB6B7",
";X c #B9B6B8",
":X c #BBB9BA",
">X c #C1BABA",
",X c #C5C3C4",
"<X c #C8C6C7",
"1X c #CCCACB",
"2X c #D0CFCF",
"3X c #D3D1D2",
"4X c #D8D6D7",
"5X c #D9D7D8",
"6X c #DAD8D9",
"7X c #DBD9DA",
"8X c #E0DEDF",
"9X c #E1DEE0",
"0X c #E4E2E3",
"qX c #E4E3E3",
"wX c #ECEAEB",
/* pixels */
"*.*.*.*.*.*.*.*.*.*.*.*.*.*.*.*.*.*.*.*.*.*.*.*.*.*.*.*.*.*.*.*.*.*.*.*.*.*.*.*.*.*.*.*.*.*.*.*.*.*.*.*.*.*.*.*.*.*.*.*.*.*.*.*.",
"*.A ..f.c.M.M.M.M.M.N.k.w.b s B.N.k.f.S p W Q @.X.2.9.2.2.E Q x d f.h.c.y.A F a.d.f.g.g.j.g.d.g.j.X.d m.m.c.q.D %.d.d.d.d.d.g.*.",
"*.Y z.Z.M.C.M.C.Z.Z.N.k.2.i =.Z.B.i.Y b W 1.2.O./ Q O.@.E G m 4 +.t.h.9.Z S 9.p.d.f.d.d.d.d.d.p.w.i  .m.c.=.A 7.j.j.d.h.d.g.g.*.",
"*.k.B.Z.h.=.c.M.M.B.M.c...a t.p.X . . . X O X . X . X X . . . . O O X . . O O O X O X O O O O O k , t.d...D 9.h.d.c.q.8.f.p.p.*.",
"*.N.B.N.k , , F w.k.c.h.=.k.=.&.#X.X.X.X.X.X.X.X.X.X.X.X.X.X#X#X#X#X.X.X.X.X.X.XXXXX.X.X.X.XXX).;._ B.+.%.t.j.g.d.m.) , s ..p.*.",
"*.C.Z.d.s f.:.t : ..f.N.B.@. .}.wXqX8XqXqXqXqXqXqXqXqXqXqXqX#X/./.XX9XqX0X0X0X0XqXqX0X0XqXqXqX7X@X}  .9.f.j.g.p.d.g.k ;. ., s *.",
"*.A.Z.c.j p.).T.} ; b y.k.. .XwX6X6X6X6X6X6X6X6X6X6X6X6X7X8Xh   . & 4X6X6X6X6X6X6X6X6X6X6X7X7X7X4X}.X h.f.h.d.:.p.d.X.;.M.j.D *.",
"*.A.A.H.@.j H.T./.-.: f 9.+ [.qX6X6X6X6X6X6X6X6X6X6X6X6X7XqXh % r = 4X6X6X6X6X6X6X6X6X6X6X6X7X7X3X).O d.:.d.g.:.p.g.2.D d.g.C.*.",
"*.T.V.A.q.b =.~.~.A. .& ..+ [.qX6X6X6X6X6X6X6X6X6X6X6X6X7XqXk     r 3X9X6X6X6X6X6X6X6X6X6X6X6X7X3X'.O p.q.j.m.g.d.p.a.S T h.m.*.",
"*.A.Z.B.v.%.a y.(.A.A.F < O [.qX6X6X6X6X6X6X6X6X6X6X6X6X6X7X>X*X*X:X6X6X6X6X6X6X6X6X6X6X6X6X6X7X3X'.O d.f.M.j.a.p.:.p.8.D 8.m.*.",
"*.A.Z.c.H.c...E j.~.Z.B.i O [.qX6X6X6X6X6X6X6X6X6X6X6X6X6X6X8X8X0X7X6X6X6X6X6X6X6X6X6X6X6X6X7X7X2X'.O j.d.j.M.j.m.h.:.g.-.} :.*.",
"*.A.Z.B.Z.B.B.@.Z w.H.^.:.. [.qX6X6X6X6X6X6X6X6X6X6X6X6X6X6X6X6X6X6X6X6X6X6X6X6X6X6X6X6X7X7X7X7X3X).O c.d.j.g.j.g.g.;.p.d.w.+.*.",
"*.H.B.f.d.Z.T.i.Q G 7.v.N.X [.qX6X6X6X6X6X6X6X6X6X6X6X6X6X6X6X7X6X6X7X6X6X6X6X6X6X6X6X6X6X6X7X7X3X`.X h.p.c.d.h.j.g.:.:.p.-.@.*.",
"*.+.t * f d.T.A.c.@.F ..v.+ [.qX6X6X6X6X6X6X6X6X6X6X6X6X6X7X7X7X7X7X7X6X6X6X6X6X6X6X6X6X6X6X7X7X3X`.O j.c.v.c...u r h q.j.g.g.*.",
"*.u q.c.Y a.A.A.Z.n.k.%.E + [.qX6X6X6X6X6X6X6X6X6X6X6X6X6X6X7X7X7X7X7X6X6X6X6X6X6X6X6X6X6X6X6X7X3X`.O k.w.8.s < +.p.s ;.j.m.g.*.",
"*./.|.M.D B.T.T.H.B.c.b.f.+ [.qX6X6X6X6X6X6X6X6X6X6X6X8X4Xh r 3 r r h 3XqX6X6X6X6X6X6X6X6X6X6X6X2X`.O k.>.; D M.C.p.D d.M.c.j.*.",
"*.(.).} ..H.T.R.Z.z.v.H.h.+ [.qX6X6X6X6X6X6X6X6X4X6X9X<X=.@.5.$.$.| * { .X3X7X7X6X6X6X6X6X7X7X7X3X`.# Q ; 8.T.Y.C.D +.M.N.B.M.*.",
"*.).f.b e.R.~.A.T.F.n.T.h.+ [.qX6X6X6X6X6X6X6X6X4X9X<XS.* v.D.L.L.t.y   g.<X7X7X6X6X6X6X6X7X7X7X2X`.X : =.T.Y.T.8.t a.C.C.C.M.*.",
"*.j.Z Q 9.H./.T.T.B.v.H.v.+ '.qX6X6X6X6X6X6X6X6X8XwX).  o.T T T V 5 y   N.,X7X7X6X6X6X6X6X6X7X7X3X`.. } T.C.R.k.a X.M.C.C.Z.C.*.",
"*.J W n.F.^.T.T.H.z.c.H.k.X [.qX6X6X6X6X6X7X4X1X<X4XL.. U U U U j i y   j.<X7X7X6X6X6X6X6X6X7X7X3X).. A.M.T.m.Z S i.Z.C.Z.C.N.*.",
"*.W 0.F.B.v.J.A.z.f.c.B.%.. [.qX6X6X6X6X6X9X:X* + + O   . . . X @ i y   j.,X7X7X7X6X6X6X6X6X6X7X3X`.O E.F.e.B X.M.M.M.B.B.B.N.*.",
"*.0.8.n.n.=.i.n.v.y.k.7.n O [.qX6X6X6X6X6X9X:X. y f f P f b P i 3 y r   N.:X:X:X:X:X1X7X6X6X6X7X3X`.O B.2.c ) m.Z.n.8.%.q.z.M.*.",
"*.0.0.k.I 3 3 Z <.1.2.2.n + [.qX6X6X6X6X6X9X:XO U $.T T T I P c y i y   N.;X%X%X%X%X,X6X6X6X7X7X3X`.# T D 2.l.T.m.k.D & , F 8.*.",
"*.,.u.2.X.k.t.a : B 0.i.Q O [.qX6X6X6X6X6X9X:XO U T T T T i y y y y y   N.:X*X*X=X%X,X7X6X7X7X7X2X`.X Q 6.l.M.S.k.8.s h.-.t 4 *.",
"*.R H N C k.`.U.%.; F i.W . [.qX6X6X6X6X6X9X:XO _ o.T T T y y y y i y   N.:X=X&X*X%X,X6X6X6X7X7X3X).O k.k.k.c.M.B.f.f 8.).Y.) *.",
"*.Q / R M ( u.e.).9.: b G . [.qX6X6X6X6X6X9X:XO S o.T T T i y y y i t   N.=X%X=X*X%X,X6X6X6X7X7X3X[.O c.c.N.Z.A.A.v.J F T./.C.*.",
"*.^ ,./ M K 6.B.V.v.@.- z O [.qX6X6X6X6X6X9X:XO I T o.o.T y 4 y y y y   N.:X=X%X*X%X,X7X6X6X6X7X3X'.# A.H.A.Z.T.A.k.X.n =.T.Y.*.",
"*.W >./ K N ( S.G.D.1.p 1 O [.qX6X6X6X6X7X7X:X  i j f f f i i y y i y   N.:X*X*X=X%X,X6X6X6X6X6X3X).O Z.H.H.A.Z.A.c.k.Q m q.T.*.",
"*.W / / ~ K N ~ e.e.Q W 4 X [.0X6X6X6X6X6X7X1XC.* * i y y y i y y i r   N.:X*X*X&X%X,X6X6X6X7X7X3X`.+ Z.T.T.A.A.H.N.c.0.R Q z.*.",
"&.R ~ R R ~ N M ~ 6.,.>.c . [.qX6X6X6X6X6X7X9X9X:.y 3 y y y y y y i y   N.=X*X*X=X=X<X6X6X6X7X7X3X`.O ~.T.~.H.c.c.v.v.v.i.Q Q *.",
"*.V B M M ! ! V M R 5.,.O.. [.qX6X6X6X6X6X6X6X6XwX*.. d i i i 5 y i y   N.:X*X%X=X1X7X6X6X6X6X7X3X`.O A.A.H.F.z.7.Q @.z.A.w.Q *.",
"*.v 4 5 5 B C C M v M ~ 0.+ [.qX6X6X6X6X6X6X6X6XqX*.+ T T T T P 3 i y   N.:X*X*X4X6X7X6X6X6X6X6X3X`.O H.c.f.4.S < * s @.V.Y.v.*.",
"*.z @.@.l v C V B H G B v O [.qX6X6X6X6X6X6X6X6X0X*.O #.| T T j y i y   N.;X*X*X6X6X6X6X6X6X6X7X3X`.+ /.k.W 4 u q.M.f G B.T.H.*.",
"*.0.x./ l M N V V R W G G O [.qX6X6X6X6X6X6X6X6X0X{ O $.| T T T P i r   N.;X=X<X6X6X6X6X6X6X6X8X3X`.+ b.V > } (.|.M.p >.H.T.T.*.",
"*.3.x.R l B N ! V W W 5.1.+ [.qX6X6X6X6X6X6X6X6X7XXX#.i T T | #.W i y   N.=X:X7X6X6X6X6X6X6X6X7X3X`.O X.4 t.~._.'.U m v.^.(.A.*.",
"*.( R v K N B ! H C / / R + [.qX6X6X6X6X6X6X6X6X6XwX[.  o.T T | I 4 y   N.:X:X6X6X6X6X6X6X6X6X6X2X`.O 3 q.).A.U.9.s 7.H.Z.^.M.*.",
"*.( v M K C B C B C R B C O [.qX6X6X6X6X6X6X6X6X6XqX).  #.T T | U y y   N.:X:X7X6X6X6X6X6X6X6X7X3X`.X +./.~.^.N.p 2.B.H.Z.R.N.*.",
"*.~ M N N M M B B C ! C N X [.qX6X6X6X6X6X6X6X6X6XqX`.O | | | | U y y   j.,X7X7X6X6X6X6X6X6X6X8X3X`.X ^.^.).c.S V k.Z.V.F.T.A.*.",
"*.B N C M M M M M R R ! N . [.qX6X6X6X6X6X6X6X6X7X6X3X[.O y d d d i r   j.,X0X6X6X6X6X6X6X6X6X7X2X`.O /.I.k.b M 0.H.V.n.F.I.B.*.",
"*.C ~ H z z v M M m V M M X [.qX6X6X6X6X6X6X6X6X6X6X7X6X^.O         O t.%X4X6X6X6X6X6X6X6X6X6X7X3X`.+ V.X.m O.i.A./.f.1.i.B.v.*.",
"*.H ! m c > 4 5 M N B M V + [.qX6X6X7X7X7X7X6X6X7X7X7X7X7XA.N.N.N.N.N.,X6X7X7X7X6X7X6X6X6X6X6X7X3X`.+ Q Q l.B.B.H.n.D , < m 4.*.",
"*.G C v G m c 4 1 M V W >.+ |.qX6X6X7X8X7X8X6X8X7X6X7X0X7XwXwXwXwXwXwX7X9X7X7X9X7X9X9X7X8X6X6X7X3X`.O @.G.(./.Z.F.=.f c.;.a 2 *.",
"*.1./ M C R V W 5 1 z R Q O [.qX6X6X1X1X1X1X1X1X<X1X1X,X1X<X<X1X1X1X1X1X<X1X1X<X1X<X1X1X1X6X6X8X3X`.O F.(._.).T.A.v.F c.'.(.+.*.",
"*.@.>.R M R ^ R C l > p W O [.qX7X<X= % % % % % % % & % & & % % % % % & % % & % % % % % h 3X7X7X3X`.O H.^.[.).)./.J.2...).'.).*.",
"*.2.2.2.m B 5.~ R R n > c O [.qX8X<XO # 8 8 8 8 8 8 8 $ $ $ 8 6 $ $ 8 6 6 6 6 8 8 8 8 # = 2X7X7X2X`.# A.^.[.'.).).R.x.Y q. X(.*.",
"*.k.X.i.w.G Q ( / / 1.c 4 O [.qX7X,X# 8 w w w w q 0 ` L.L.L.g ] s.8 w K.` w w w q q e $ q 3X8X7X3X`.+ I.).).'._.).).J.2.S F.|.*.",
"*.v.k.x.0.2.n ^ / ~ R W 4 X [.qX8X,X# $ w q q q q 9 ] !.L.!._ r.Q.' w W.[ 9 q q q q q $ = 3X7X7X3X`.O U.^.).].'.].).^.J.X.J c.*.",
"*.k.0.i.i.v.W M / ^ M W m X [.qX8X,XO 8 w q q q q 9 [ P.q W._ r.!.L.' W.[ 9 q q q q q 8 = 3X8X7X3X`.. n./.^.v.F.].].)._.k.W F *.",
"*.2.m m X.i.<.V v C ( ~ X.. [.qX7X<X# 8 w q q q q 9 [ W.g Q.` r.P.g E.!.] 8 w w q q w $ = 3X9X7X3X`.X v.^.I.i.k.z.y.c.(.'.G.>.*.",
"*.b < : b J J ~ B v N ^ e.+ [.0X9X,X+ 8 w q q w q 9 ] Q.W.!._ s.P.0 g W.[ q q w q q w $ 0 5X7X6X2X`.X n.H.k.1.W < 3 h q.).).v.*.",
"*.p ..g.b V V H C V V v C O [.0X7X<XO 8 w w w w w w g ` ` ` g g _ q w _ g q w w w w w $ 3 3X6X6X3X`.O n.x.>.4 s c.T.s 9.).).T.*.",
"*.x.B.k.c H Q V B ^ W H B O [.0X9X,X.   o o o o o o o o o   o o o o o   o o o o o o o   & 3X0X7X3X`.O i.Q ; +.'.$XZ.s B.'.'.~.*.",
"*.v.x.Q v e.u.B R / ~ R V O [.0X7X1X:.*.+.&.&.&.+.&.&.*.&.&.*. .&.*.&.*.&.&.$.&.*. .*.&.h.5X6X6X3X`.X n > y.OX@X+XA W '.|.'.T.*.",
"*.v.O.x C >.Q C ~ / / R ^ + [.0X6X6XqXqXqXqXqXqXqXqXqXqXqXqXqXqXqXqXqXqXqXqXqXqXqXqXqXqXqX7X6X6X3X`.X 4 f.[.).XXf.p f._. X'.^.*.",
"*.n.n M ^ S.u.~ ^ L K ,.^ O [.0X6X6X6X6X7X6X6X6X6X6X6X6X6X6X4X6X3X4X5X6X6X6X6X6X6X6X6X6X7X6X7X7X2X`.X -.XX XXXF.a X.H. X X'.T.*.",
"*...z R 6.e.v.3.^ ^ C ^ ,.O [.0X6X6X6X6X6X6X6X6X6X6X6X6X6X8X&.* 7 k 4X6X6X6X6X6X6X6X6X6X6X7X7X6X3X`.o |.|.XXH.Z X.J.~.[.`.'.).*.",
"*.S 0.x.,.5.1./ 1.( ^ ^ C . [.0X6X6X6X6X6X6X6X6X6X6X6X6X6X9Xh O , & 4X7X6X6X6X6X6X6X6X6X6X6X6X6X2X).O #X Xc.b 2.).`.`.`.].OX(.*.",
"*.4.D.oX>.G ,.6.1.Q >.Q V . .XwX6X7X6X6X6X6X6X6X6X6X6X6X6X0Xh   O * 4X6X6X6X6X6X6X6X6X6X6X6X6X6X4X|.. H.%.Z i.J.@X@XT.F.).).).*.",
"*.u.G.0.A < 4 n L Q ,.S.<.A h.:XqX6X6X8X8X8X7X8X8X8X8X8X8XqXB. .*.h.6X8X6X0X9X6X8X6X8X9X9X9X8X5X=Xd.D 2.7.J.OX'.@X(.D r < F x.*.",
"*.H.J.i.f U.k.1 1 n G D.x.^ i  .2X<X,X,X,X,X<X,X,X,X,X,X,X,X<X2X2X<X,X,X,X,X,X<X,X,X,X,X,X,X,X=Xg.u k.D.}.$X@X XXXH.s /.N.s : *.",
"*.^.D.e.Z n.^.l.+.> v / 3./ C E & & & & % % + & % & & O % % & & @ % % % & % & % + & & = % + % & ;.'._.). X@XOX@X]._.A ^.<X:Xa.*.",
"*.G.b.i.~ X.oX}._.$.> m 3./ ^ 5.2.S.U.v.1.R M 1.~.$X>XB.; z w.y.9.i.7.l.J.k.v.W v 2.'.'.@Xv.@ Q }._. X$XOXOX X X].&Xw.A -X&X+X*.",
"*.U.U.z.~ M u.-X{.U.y.4 V ~ ! ^ W 0.u.0.0.1.v B v.OX$X&XN.< G <.y.k.B.G.l.v.v.2.>.x 9.+X X Xc.3 G n.OXXX).OX&X$XOX$XG.f y.@X@X*.",
"*.*.*.*.*.*.*.*.*.*.*.*.*.*.*.*.*.*.*.*.*.*.*.*.*.*.*.*.*.*.*.*.*.*.*.*.*.*.*.*.*.*.*.*.*.*.*.*.*.*.*.*.*.*.*.*.*.*.*.*.*.*.*.*."
};
