/* XPM */
static char *ef97e67017ce4563db3cf1a5f2071e2cvwg7JEVi5unrRqxy[] = {
/* columns rows colors chars-per-pixel */
"64 64 219 2 ",
"   c #020201",
".  c #090606",
"X  c #0A0807",
"o  c #0C0B0B",
"O  c #110E0D",
"+  c #12110E",
"@  c #1E100D",
"#  c #170D14",
"$  c #131212",
"%  c #1B1915",
"&  c #1B1B1A",
"*  c #27180F",
"=  c #251714",
"-  c #251B16",
";  c #2D1D14",
":  c #22101D",
">  c #231E1B",
",  c #2B1E19",
"<  c #331C14",
"1  c #311F1B",
"2  c #25231D",
"3  c #2A221D",
"4  c #32221B",
"5  c #3A251A",
"6  c #220F21",
"7  c #241223",
"8  c #291524",
"9  c #2E1728",
"0  c #2F1828",
"q  c #321A29",
"w  c #341B28",
"e  c #2C2523",
"r  c #282524",
"t  c #2F2A24",
"y  c #2B2A29",
"u  c #322B25",
"i  c #3C2C23",
"p  c #342E2B",
"a  c #392928",
"s  c #38312D",
"d  c #372830",
"f  c #343433",
"g  c #3D3734",
"h  c #3D3A32",
"j  c #4A2E1E",
"k  c #442E24",
"l  c #423026",
"z  c #4E3225",
"x  c #43332D",
"c  c #4C352B",
"v  c #4E382E",
"b  c #533426",
"n  c #593627",
"m  c #54362B",
"M  c #55392D",
"N  c #5B3C2E",
"B  c #462432",
"V  c #5A2C32",
"C  c #433631",
"Z  c #4C3731",
"A  c #453A34",
"S  c #4C3B34",
"D  c #433C3B",
"F  c #4B3E39",
"G  c #533C33",
"H  c #5B3E32",
"J  c #553E39",
"K  c #613B2C",
"L  c #673B35",
"P  c #424137",
"I  c #46433A",
"U  c #4B453C",
"Y  c #4E4A3F",
"T  c #564135",
"R  c #5C4135",
"E  c #54443C",
"W  c #5B443B",
"Q  c #5E483F",
"!  c #64412F",
"~  c #624334",
"^  c #63463A",
"/  c #68463B",
"(  c #64493C",
")  c #694A3B",
"_  c #423F40",
"`  c #434141",
"'  c #4D4342",
"]  c #4E4B40",
"[  c #4D494A",
"{  c #534642",
"}  c #5B4642",
"|  c #514D42",
" . c #5D4B43",
".. c #554D4C",
"X. c #5B4F4A",
"o. c #545144",
"O. c #59544B",
"+. c #5D514C",
"@. c #5B5B4D",
"#. c #4F4F50",
"$. c #515354",
"%. c #5D5553",
"&. c #5A5757",
"*. c #5B575A",
"=. c #5E5B5C",
"-. c #634C42",
";. c #684E43",
":. c #624F4A",
">. c #7C4141",
",. c #655246",
"<. c #63534B",
"1. c #67544A",
"2. c #6C554C",
"3. c #715448",
"4. c #73594D",
"5. c #635653",
"6. c #645756",
"7. c #645955",
"8. c #6D5C55",
"9. c #645C5B",
"0. c #695E5C",
"q. c #735C53",
"w. c #6C615D",
"e. c #6A665C",
"r. c #77645A",
"t. c #73625C",
"y. c #71705F",
"u. c #625D62",
"i. c #6C5F61",
"p. c #656264",
"a. c #6B6464",
"s. c #676669",
"d. c #6A6669",
"f. c #6C6A6B",
"g. c #726663",
"h. c #7A6763",
"j. c #756964",
"k. c #7B6A65",
"l. c #746B6B",
"z. c #7A6D6A",
"x. c #767167",
"c. c #7D716D",
"v. c #6C6970",
"b. c #746E71",
"n. c #747173",
"m. c #7B7374",
"M. c #7E7976",
"N. c #767479",
"B. c #7C767A",
"V. c #7D7A7B",
"C. c #824244",
"Z. c #8D4645",
"A. c #984C49",
"S. c #9E524D",
"D. c #A14F4C",
"F. c #A3514C",
"G. c #AE5851",
"H. c #B85C53",
"J. c #806F6C",
"K. c #83736E",
"L. c #827675",
"P. c #867976",
"I. c #827B7B",
"U. c #8A7C7B",
"Y. c #C56357",
"T. c #D2675C",
"R. c #8A8779",
"E. c #8B827E",
"W. c #93927D",
"Q. c #7F7D83",
"!. c #837D81",
"~. c #8A7F83",
"^. c #858184",
"/. c #8A8384",
"(. c #868588",
"). c #8A858A",
"_. c #8D898C",
"`. c #96898A",
"'. c #928B8C",
"]. c #938D92",
"[. c #988E93",
"{. c #959295",
"}. c #9B9394",
"|. c #969399",
" X c #9B969A",
".X c #9E9E9E",
"XX c #9F9F9F",
"oX c #A4948D",
"OX c #A19A9D",
"+X c #9C9CA2",
"@X c #A29DA2",
"#X c #A3A1A2",
"$X c #ABA5A9",
"%X c #ACABAB",
"&X c #B1ACAD",
"*X c #AFACB2",
"=X c #B1AFB0",
"-X c #B1B1B1",
";X c #BAB6B7",
":X c #B8B6B8",
">X c #BBBABA",
",X c #C0BDBD",
"<X c #C1BFC0",
"1X c #C4C3C4",
"2X c #C8C6C7",
"3X c #C9C7C8",
"4X c #CCCBCC",
"5X c #D1CFD0",
"6X c #D5D3D4",
"7X c #D8D6D7",
"8X c #D9D7D8",
"9X c #DAD8D9",
"0X c #DBD9DA",
"qX c #E0DEDF",
"wX c #E1DFE0",
"eX c #E4E2E3",
"rX c #E8E6E7",
"tX c #ECEBEB",
"yX c #F4F3F3",
/* pixels */
"$.$.$.$.$.$.$.&.$.$.$.$.$.$.$.$.$.$.$.$.$.$.$.$.$.$.$.$.$.$.$.$.$.$.$.$.$.$.$.$.$.$.$.$.$.$.$.$.$.$.$.$.$.$.$.$.$.$.$.$.$.$.$.$.",
"$.A { a.v.b.l.b.b.b.N.g.7.x p m.n.j.w.I l M W  .| <.7.5.O.E W l p a.d.l.e.A F i.a.s.s.s.s.s.s.s.d.} u v.v.l.9.D +.p.p.u.p.p.s.$.",
"$.U j.B.b.N.b.N.B.m.n.g.<.u %.B.m.e.T P T <.<. .-.W -.} E T m 3 ..e.a.7.C S 5.u.w.a.p.p.a.p.p.u.9.u [ n.l.%.A 5.f.f.d.d.i.s.d.#.",
"$.g.m.B.f...l.m.N.b.n.l.{ a e.[ X .   X o o . . . . . . . . .   X X . . . . o o X X . o o o o . r > =.a.{ D 6.d.p.l.9.6.p.i.u.$.",
"$.n.N.n.g > > F 9.g.l.d.+.j.D d.#XXXXXXXXXXXXXXX.X.X.X.XXXXX%X%X%X%X#XXXOX.XOXXXXXXXXXXXXXXXXX}.p.f m...O.e.f.s.p.b.h 8 y ' u.$.",
"$.N.V.9.s a.=.e - { a.m.m.D d.1XtXeXeXeXeXeXeXeXeXeXeXeXrXrX).s.p.n.9XrXrXeXeXeXeXeXeXeXeXeXrXwX>Xp.D %.a.f.d.p.s.s.h *.[ r a $.",
"$.V.V.l.g u._.Q.' = C 0.j.X >XrX7X9X9X9X9X9X9X9X9X9X9X9X9XeXy   X X 3X0X9X9X9X9X9X9X9X9X9X9X0XwX6X$Xo d.a.d.p.=.u.p...*.b.f.D $.",
"$.B.V.I.X.C I.!.).&.- s 7.$ %XeX9X9X9X9X9X9X9X9X9X9X9X9X9XwXf $ y o 3X9X9X9X9X9X9X7X9X9X9X9X0X0X6X#X$ s.=.p.p.=.u.s.X.A s.s.B.$.",
"$.!.M.V.9.x %.(.!.V...% { O =XwX9X9X9X9X9X9X9X9X0X0X0X7X0XwXI o X & 2X9X7X0X9X9X7X0X7X0X9X9X9X0X6X#X$ u.9.d.s.s.p.u.a.F Y d.v.$.",
"$.V.B.m.z.+.i a.).V.V.D - O -XwX9X9X9X9X9X9X9X9X7X7X0X0X0X0X1X>X>X<X9X9X0X9X0X9X0X9X0X9X9X9X9X0X6X#X$ a.a.b.b.a.u.=.u.7.F *.v.$.",
"$.B.B.l.L.l.{ F l.^.V.m.a o =XeX9X9X9X9X7X9X9X9X0X0X7X0X0X0X0XwXwXwX9X9X7X0X7X0X7X0X7X0X9X9X0X0X6X#X$ f.d.f.b.f.v.d.*.s.%.{ =.$.",
"$.V.B.m.B.B.M. .Z 9.I.^.=.o -XwX9X9X9X9X9X9X9X9X7X7X0X0X0X0X0X0X7X9X9X9X0X9X0X9X0X9X0X9X0X0X0X0X6X#X$ l.d.d.d.v.s.d.*.=.u.0.| $.",
"$.I.m.a.p.B.!.t.W F +.c.n.o -XeX9X9X9X9X9X9X9X9X0X9X9X9X7X0X0X0X9X9X7X9X9X9X0X9X9X0X9X9X9X9X0X0X6X#X$ d.i.s.d.f.v.u.u.=.i.&...$.",
"$...e % s a.!.V.j.X.E E x.$ -XwX9X9X9X9X9X9X9X9X9X9X9X9X0X0X0X0XwX9XwX9X7X9X9X9X0X7X9X9X9X9X0X0X6X#Xo l.l.z.g.' t r f 9.v.s.d.$.",
"$.y 9.l.D a.V.V.V.c.t.X.E + =XwX9X9X9X9X9X9X9X9X9X9X9X9X0X6X6X4X6X5X5X9X0X0X0X0X9X0X9X0X9X9X9X0X6X#X$ j.t.5.u 8 ..u.f *.f.v.s.$.",
"$.(.|.n.D m.~.!.I.m.n.n.w.+ =XeX9X7X9X9X9X9X9X9X9X0X7XwX6Xr & & & & & XX6X0X0X0X0X7X0X7X9X9X9X0X6X#X$ g. .- I b.N.u.g a.b.l.f.$.",
"$.)._.' { U.!.~.B.l.z.I.f.+ &XeX9X9X8X9X9X9X9X9X9X7XeX4X$.@.@.@.@.@.& f {.4X9X9X9X9X9X8X0X9X0X8X6X#X$ G , *.!.Q.B.g ..z.n.N.b.$.",
"$._.a.x q.!.!.Q.~.m.z.V.d.$ -XwX9X9X9X9X9X9X9X9X9XeX%X#.2 e.y.x.y.@.p   f.3X0X9X9X9X0X9X9X9X0XwX6X#X$ - 5.!.B.!.%.u a.b.N.N.b.$.",
"$.g.C W 7.I.).I.!.m.c.I.z.O =XeX9X9X9X9X9X9X9X9X9XrXN.  Y Y Y Y h 2 t   n.<X5X9X8X9X8X0X9X0X0X0X7X#X+ ' I.N.(.a.i  .n.N.B.N.N.$.",
"$.J W c.M./.!.!.L.z.l.I.g.o =XwX9X9X9X9X8X9X9X9X9XrXV.. Y Y Y Y I t u   n.:X=X8X9X9X9X9X9X8X0X0X6X#XO V.b.N.l.C F g.B.N.N.b.N.$.",
"$.J 8.M.m.z.I.V.j.a.l.b.O.o =XqX9X9X9X9X9X9X9X9X9XeXV.X Y Y Y Y I t t   n.-X:X9X0X9X0X9X0X8X9X0X6X#X$ (.B.9.A } z.z.b.N.m.m.n.$.",
"$.q.6.J.c.%.t.K.c.w.g.5.c o =XeX9X9X9X9X9X9X9X9XeXf.r P Y Y Y P u t t   n.:X-X9X9X9X0X9X9X8X0X0X6X#X$ b.<.k } l.Q.b.6.+.0.k.b.$.",
"$.8.8.g.D > 3 Z ,.,.:.5.c + -XeX9X9X9X9X9X9X9X9XeX] % Y Y Y Y P t t t   n.;X=X;X6X9X9X9X0X0X9X9X6X#X$ E T ,.j.N.f.g.A & - F 5.$.",
"$.,.r.<.} g.e.u = m 8.t.W O %XeX9X9X9X8X9X9X9X9XrXo.% Y Y Y Y h t t t   n.>X=X&X5X0X9X9X9X0X9XwX6X#X$  .7.g.z.m.g.5.f s.=.e 3 $.",
"$.R H n N g.'.E...= F t.E O &XqX9X9X9X9X9X9X9X9XtX#.+ Y Y Y Y h t t t   n.:X=X%X3X8X9X0X9X9X0X0X7X#X$ l.g.a.b.z.m.a.s 9._.Q._ $.",
"$.~ ( R b ) r.r._.6.- x G O -XeX8X9X9X9X9X9X9X9X4X$.2 O.Q Y Y P 3 t u   n.:X-X-X%X3X0X0X9X9X0X0X6X#X$ l.z.b.B.V.!.l.J F !.(.B.$.",
"$.^ -.-.b K 4.m.M.z. .* k o =XwX9X9X9X9X9X9X9X6X2 @.W.R.R.R.P 3 t t t   n.:X-X=X%X3X0X9X9X9X9X0X6X#X$ V.I.V.V.!.B.a.} c %.!.V.$.",
"$.T ;.( K n ) J.P.K.<.i ; o -XeX9X9X9X9X9XeX-Xy y.W.W.W.W.I u t t t u   n.:X=X=X&X4XwX0X9X9X9X9X6X#X$ B.I.I.B.V.B.z.g.W Z 6.!.$.",
"$.T ( ^ ~ ! n ~ r.4.-.E 3 o -XwX9X8X9X9X9XeX%X  @.e.e.e.@.u t t t t u   n.:X-X-X&X>X3X9X9X9X0X9X6X#X$ V.V.!.V.m.B.N.l.8.W W l.$.",
"$.R ~ K R R n b ~ 4.;.-.k o =XwX9X9X9X9X7XeX%X. h Y Y Y U u t t t t t   n.:X-X%X=X%X>XwX9X9X9X9X6X#X$ !.^.^.V.n.z.z.z.z.t.W W $.",
"$.b m b b N K N j R 3.( -.o =XeX9X9X9X9X9XeX$X  P Y Y Y Y t 3 t t t t   n.:X-X-X=X=X:X6X9X9X9X9X6X#X$ I.B.I.m.j.<.E X.l.I.w.~ $.",
"$.z 5 u i b K N n z b ^ 4.O -XwX9X9X9X9X9XeX$X  P Y Y Y Y t t u t t t   n.:X=X-X-X-X%X:X9X9X9X8X6X#X$ U.n.t.8.Z , > p  .V.B.l.$.",
"$.k +.-.j b N M m H G m z + =XeX9X9X7X9X9XeX%X  P Y Y Y Y t t u t t t   n.:X-X-X=X=X%X:X8X9X0XwX6X@X$ /.z.T 4 t u.b.s G m.Q.I.$.",
"$.8.h.-.j b b N m W H G G o =XwX9X9X9X9X9XeX%X  I o.Y o.Y p t u u t u   n.>X%X-X=X=X*X:X0X8X0X0X6X@X$ J.m ; ' (.|.b.i -.P.~.!.$.",
"$.2.r.R b b b ~ M R T 2.,.O -XwX9X9X9X9X9XeX$X  + + % 2 & + o o % t t   n.:X-X-X=X=X=X:X0X9X9X0X6X#X$  .1 w.!.`.].U c l./.(.B.$.",
"$.-.W z N n b ! N G ( ;.R O -XwX9X9X9X9X9XwX1Xe.=.p.f   & & 2 & 2 t t   n.<X,X%X=X=X%X:X0X9X0X0X6X#X$ , 9.).V.E.=.a 5.U.B.~.N.$.",
"$.) b z K N b N M ! N b N O &XeX9X9X9X9X7X9X9XrXeXyX^.  o.o.o.o.I t t   f.3X9X:X;X:X-X<X9X0X9X0X6X#XO X././.).n.i <.m.I.m./.n.$.",
"$.K b M n m b n M N T ! N o &XeX9X9X9X9X9X9X9X9X9XeXQ.+ I ] Y ] I p t   f.3X9X9X0X9X9X0X0X9X0X9X6X#XO /./.).j.G v j.V.L.L.^.B.$.",
"$.n n N b z m b b R R ! b o -XwX9X9X9X9X9X9X9X9X9X9X6XXX$ I ] ] ] ] p   f.3X0X0X9X9X0X9X0X8X0XwX6X#X$ _.^.a.x b 8.I.m.c.m.E.B.$.",
"$.H ~ K k k z z b M M b b o =XwX9X9X9X9X9X9X9X0X0X9XqX6X X$ .   .     (.3X6X9X9X0X9X9X9X0X0X9X0X6X#X$ B. .G -.w.V.).a.<.t.m.k.$.",
"$.H R m k ; < i b b n n G $ =XeX9X9X7X9X9X9X9X9X7X8X8X0X8X!.N.N.N.M.V.5XwX9X9X9X9X8X9X8X9X9X9X0X6X#X$ ( Q g.M.c.L.m.D - 4 Z 2.$.",
"$.G N b T S k 4 < b G H -.o -XwX9X9XwXwXwXwXwXwXqXqXwXwXwXtXtXrXtXtXtXwXqXwXwXwXwXwXwXwXwX9X8X0X6X#X$ X.P./.).B.L.+.s f.*.u 4 $.",
"$.<.( b H R M R 5 < z G } O =XwX9X6X>X:X:X:X:X:X:X;X:X:X:X:X;X;X:X>X>X:X:X:X:X:X:X:X:X:X>X6X9X9X6X#X$ L./.]._.!.V.z.F l.]._...$.",
"$. . .T b R ^ T M z ; i G + -XeXwX<X+ . o o o o o o o o o o o o X X X o X o o o o o o . O <XwXqX6X#X$ I./.].'._.).E.<.{ ).]._.$.",
"$.:.<.5.v m 3.~ N M v < x o -XwXwX<Xo $ 7 8 8 8 8 8 7 6 8 0 8 : & 7 8 6 6 6 7 8 6 8 8 # X ,XwX9X6X#X$ I.E.{.]._._.~.l.T 9.|.).$.",
"$.g. .t.8.G W -.( ( 1.l 3 o =XwXwX1Xo : 9 9 0 9 9 L S.A.Z.w L A.S.A.q C.D.D.Z.q 9 q 9 : o 1XwX9X6X#X$ E.)._.]._.'._.U.<.G L.|.$.",
"$.z.t.h.0.:.c ^ ;.~ R T 4 o -XeXwX<Xo : 0 0 0 0 8 A.H.A.Y.q F.G.>.>.d G.F.C.>.q 9 9 q 6 o 1X0X9X6X#X$ E.)._.}.'.[._./.U.} G z.$.",
"$.g.0.q.r.z.W b ) ^ M H v o -XeX0X<Xo : q 0 0 0 8 A.C.w H.q F.S.B 8 9 G.Z.B 8 0 9 q q 6 o >XeX9X6X.X$ c.^.).z.I.].[._.'.g.E F $.",
"$.<.v Z } h.-.N z H / ^ } o &XeXwX,Xo : q 0 0 0 8 A.Z.V H.w F.T.A.7 0 G.T.C.8 0 0 0 q : o 1XeX0X6X#XO z.^.E.t.j.z.w.z.).].I. .$.",
"$.z , % l J T R b z n ^ q.O &XeXwX1Xo & 0 0 0 0 8 Z.T.Y.H.w F.C.8 0 0 G.L 8 0 0 0 0 q : o 1X0X0X6X#XO m.U.j. .G , > p 0._._.z.$.",
"$.i { d.x Z m H G M b b M + -XeXwX>Xo : q 0 q 0 q w B B B q w d 0 q 0 B w q 0 q q q q : o >X0X0X9X#X$ z.k.-.4 d l.^.p 9.'._.I.$.",
"$.z.m.t.k W W m n -.T H m o =XwXeX,X                                                      >XrX0X6X#X$ t.E * ..{.$XB.u m.[.].^.$.",
"$.c.z.W b q.q.H H ( ^ R M O -XeX0X5Xn.f.f.f.f.d.f.f.d.d.f.f.f.f.d.d.f.f.d.f.f.f.d.d.f.f.n.4X0X0X6X#X$ Z ; a.@XOX+XD E '.|.].^.$.",
"$.z. .z N -.W H ^ ) ^ R ( O =XwX9X0XrXeXeXrXrXrXrXrXrXrXrXrXtXtXtXtXrXrXeXrXrXrXrXrXrXrXrX0X0X0X6X#XO ; w.]._.OXs.i t._. X_.(.$.",
"$.c.l b ~ k.h.~ ~ H R ) -.o -XwX9X9X9X9X9X9X9X9X9X9X9X9X9X9X1X>X>X2X9X9X9X9X9X9X9X9X9X9X0X9X9X9X6X#Xo &..X X Xm.i  .I. X X]./.$.",
"$.E k R 4.q.z.1./ ^ N ^ -.o =XeX9X9X9X9X9X9X9X9X9X9X9X9X9XeX` X o & 3X0X9X9X9X9X9X9X9X9X0X0X9X9X6X#XO }.|.OXI.A } P.(.].].].).$.",
"$.v 8.k.;.3.,.) ,.) ( Q N o -XwX9X9X9X9X9X9X9X9X9X9X9X7X9XwXf + y o 3XwX7X9X9X9X9X9X9X9X9X9X9X9X6X#X$ #X Xl.x :.'.'.'.'.[. X_.$.",
"$.2.K.oX-.G ;.4.;.W ;.W m . >XrX9X9X9X9X9X9X9X9X9X9X9X7X9XwXf   . . 1XwX7X0X7X9X9X9X9X9X9X9X9X8X8X%XO I.X.Z t./.#X@X!.m._.'._.$.",
"$.x.P.0.A , 4 v R H -.h. .P d.1XrXeXeXeXeXeXeXeXeXeXeXeXeXrX).s.p.f.0XrXeXeXeXeXeXeXeXeXeXeXeXeX>Xu.F X.5.U.OX].@X_.D r 3 F k.$.",
"$.P.U.t.p E.g.4 < v H P.z.( 4 p.$XXX.X#X.XXXXXXXXXXXXXXXXXXX$X%X%X%XXXXXXXXXXXXXXXXX.X.XXXXX#X|.d._ g.c.}.$X#X X XV.p _.n.p - $.",
"$.E.K.q.v z.E.r.X.* b -.1.^ N C X + + o o X X o + + o   X o o o . . . o o o o X   o $ O o   X $ _ }.'.'. XOXOXOX}.`.g ^.1X;Xi.#.",
"$.P.c.8.~ W }.}.`.5.= b q.( ~ 3.,.c.E.c.,.R b ( /.$X>Xm.= l t.0.7.t.7.k.E.a.c.R z <.].|.@Xl.@ W }._.}.$XOXOX X X[.&X0.A ,X&X+X$.",
"$.E.E.j.H b h.;X}.R.e.4 M R ~ ) R 8.t.8.q.,.b M k.OX&X$XN.- G  .w.j.c.P.t.c.c.<.-.z 6.+X|. Xl., G z.OXOX'. X=X$XOX$XP.x i..X@X$.",
"$.$.$.$.$.$.$.$.$.$.$.$.$.$.$.$.$.$.$.$.$.$.$.$.$.$.$.$.$.$.$.$.$.$.$.$.$.$.$.$.$.$.$.$.$.$.$.$.$.$.$.$.$.$.$.$.$.$.$.$.$.$.$.$."
};
