/* XPM */
static char *_b7c35053cbb429ca4f2edfe64ea1000OcPKkvydpSB906Xb[] = {
/* columns rows colors chars-per-pixel */
"64 64 3 1 ",
"  c #1A1919",
". c #434342",
"X c #C3C2C2",
/* pixels */
"XXXXXXXXXXXXXXXXXXXXXXXXXXXXXXXXXXXXXXXXXXXXXXXXXXXXXXXXXXXXXXXX",
"XXXXXXXXXXXXXXXXXXXXXXXXXXXXXXXXXXXXXXXXXXXXXXXXXXXXXXXXXXXXXXXX",
"XX............................................................XX",
"XX............................................................XX",
"XX............................................................XX",
"XX............................................................XX",
"XX............................................................XX",
"XX............................................................XX",
"XX............................................................XX",
"XX............................................................XX",
"XX............................................................XX",
"XX............................................................XX",
"XX............................................................XX",
"XX............................................................XX",
"XX............................................................XX",
"XX............................................................XX",
"XX............................................................XX",
"XX............................................................XX",
"XX............................................................XX",
"XX............................................................XX",
"XX............................................................XX",
"XX............................................................XX",
"XX....................XXXXXXXXXXXXXXXXXXXX....................XX",
"XX....................X                  X....................XX",
"XX....................X                  X....................XX",
"XX....................X                  X....................XX",
"XX....................X                  X....................XX",
"XX....................X                  X....................XX",
"XX....................X                  X....................XX",
"XX....................X                  X....................XX",
"XX....................X                  X....................XX",
"XX....................X                  X....................XX",
"XX....................X                  X....................XX",
"XX....................X                  X....................XX",
"XX....................X                  X....................XX",
"XX....................X                  X....................XX",
"XX....................X                  X....................XX",
"XX....................X                  X....................XX",
"XX....................X                  X....................XX",
"XX....................X                  X....................XX",
"XX....................X                  X....................XX",
"XX....................XXXXXXXXXXXXXXXXXXXX....................XX",
"XX............................................................XX",
"XX............................................................XX",
"XX............................................................XX",
"XX............................................................XX",
"XX............................................................XX",
"XX............................................................XX",
"XX............................................................XX",
"XX............................................................XX",
"XX............................................................XX",
"XX............................................................XX",
"XX............................................................XX",
"XX............................................................XX",
"XX............................................................XX",
"XX............................................................XX",
"XX............................................................XX",
"XX............................................................XX",
"XX............................................................XX",
"XX............................................................XX",
"XX............................................................XX",
"XX............................................................XX",
"XXXXXXXXXXXXXXXXXXXXXXXXXXXXXXXXXXXXXXXXXXXXXXXXXXXXXXXXXXXXXXXX",
"XXXXXXXXXXXXXXXXXXXXXXXXXXXXXXXXXXXXXXXXXXXXXXXXXXXXXXXXXXXXXXXX"
};
