/* XPM */
static char *_6addc9e551a4f3cc6af3c00c4f8fb5eVFR8nP7x4tfhAtyT[] = {
/* columns rows colors chars-per-pixel */
"64 64 128 2 ",
"   c #000000",
".  c #060708",
"X  c #0B0D0E",
"o  c #161616",
"O  c #1B1C1F",
"+  c #1C1E20",
"@  c #1E2123",
"#  c #222324",
"$  c #252728",
"%  c #26292A",
"&  c #2D2D2E",
"*  c #2F2F30",
"=  c #302F31",
"-  c #2F3030",
";  c #343434",
":  c #3A3532",
">  c #363837",
",  c #3F3A37",
"<  c #373738",
"1  c #383738",
"2  c #373838",
"3  c #3A3A3B",
"4  c #413E3C",
"5  c #3E403F",
"6  c #43403E",
"7  c #3F3F40",
"8  c #403F40",
"9  c #3F4040",
"0  c #444445",
"q  c #4B4643",
"w  c #474748",
"e  c #484748",
"r  c #474848",
"t  c #4B4C4C",
"y  c #514A46",
"u  c #544D4A",
"i  c #4F4F50",
"p  c #504F51",
"a  c #4F5051",
"s  c #535454",
"d  c #5A5551",
"f  c #575857",
"g  c #575758",
"h  c #585758",
"j  c #575858",
"k  c #5B5C5C",
"l  c #655E5B",
"z  c #5F605F",
"x  c #66605C",
"c  c #6B615B",
"v  c #5F5F60",
"b  c #605F60",
"n  c #5F6060",
"m  c #636364",
"M  c #676768",
"N  c #686769",
"B  c #676868",
"V  c #6B6B6C",
"C  c #6D6D6E",
"Z  c #6E6E6F",
"A  c #726F6F",
"S  c #6D6E70",
"D  c #6F6F71",
"F  c #6F7070",
"G  c #6F7071",
"H  c #717173",
"J  c #727273",
"K  c #737473",
"L  c #737374",
"P  c #737474",
"I  c #767677",
"U  c #777877",
"Y  c #777778",
"T  c #777779",
"R  c #78777A",
"E  c #777879",
"W  c #787879",
"Q  c #7A7A7B",
"!  c #7B7B7C",
"~  c #7B7D7C",
"^  c #7C7D7D",
"/  c #7E7F7F",
"(  c #857C77",
")  c #887E77",
"_  c #867E78",
"`  c #7F807F",
"'  c #7F7F80",
"]  c #807F81",
"[  c #7E8081",
"{  c #808181",
"}  c #848483",
"|  c #828384",
" . c #838384",
".. c #838584",
"X. c #858586",
"o. c #868787",
"O. c #8B8684",
"+. c #878887",
"@. c #878788",
"#. c #888789",
"$. c #878889",
"%. c #888888",
"&. c #89898B",
"*. c #898A8B",
"=. c #8A8A8B",
"-. c #8A8B8B",
";. c #8C8B8D",
":. c #8B8D8E",
">. c #8E8D8F",
",. c #8C8E8E",
"<. c #8E8E8F",
"1. c #8E8F91",
"2. c #908F92",
"3. c #8F9091",
"4. c #939394",
"5. c #939494",
"6. c #939495",
"7. c #959696",
"8. c #979897",
"9. c #969798",
"0. c #969799",
"q. c #97979A",
"w. c #989799",
"e. c #98979A",
"r. c #97999A",
"t. c #989999",
"y. c #999A99",
"u. c #9A999A",
/* pixels */
"2 ; # + + # + # # + # @ @ # # # # # # # # # # # # # # # # # # # # # # # # # # # # # # # # # # # # # # # # # # # # # # + + # * > ",
"2 2 ; * ; ; : ; : > < < : 1 : < 2 2 2 2 2 : 2 2 2 3 2 : 3 < < 3 < : 2 2 2 2 2 : 2 2 2 2 2 ; 2 2 2 2 ; : < < ; ; ; ; ; ; * ; > , ",
"2 0 e t t a p g f f f f f k k v k k x k n v k k v k l v v k v v v k v k b k v k k v v n k k k k k k k k f f h h d s t t e t 0 2 ",
"2 e g f k k m m B B V V V V C D C C C F S D D C S D S D S S S D D D J C C D D G C D C G C C D C C D B C C B B B m m n k f j e 2 ",
"3 s M C J I W / { | o.o.@.@.&.&.$.$.&.-.&.:.&.&.&.&.&.&.,.&.*.*.;.&.;.&.&.;.&.&.$.*.*.*.$.$.$.$.&.&.$.&.@.o...[ / W U J J m s 2 ",
"2 g D W ! { | @.,.3.4.7.9.9.9.r.r.r.t.t.t.t.t.w.t.r.9.w.t.t.u.9.w.w.w.w.t.t.t.t.9.r.r.r.r.r.9.9.r.r.9.9.7.4.6.:.%.} ` ~ W J h 2 ",
"3 f C K P I W / | o.&.:.:.:.,.:.:.:.:.,.,.<.,.,.3.:.1.;.4.1.1.1.1.;.,.2.,.,.4.,.*.:.3.:.1.:.1.:.,.:.:.*.&.&.o.o.` W U K J C g 3 ",
"2 0 t t t s g g f k k v n v k v v n n k m x b b v v v v l k v l v v b b b k m v v n v v v n v n l n v v k z k f g j i i a t e 2 ",
"2 ; - * * ; ; 1 1 3 1 3 2 3 < 2 > 2 2 2 2 3 2 2 2 2 2 1 2 < < < 1 3 ; 3 2 2 3 2 2 2 < < 2 2 2 2 < < 2 2 2 2 2 2 ; : ; & - ; > 2 ",
"3 7 3 2 3 8 8 0 w 0 0 0 e e w t r r e e t t t e t e t t t t t t t e t t e t t e t t t t t r t r e t e r e 0 e 0 0 9 9 3 2 3 3 3 ",
"2 w i i s s h f k k v b v v m m m m m m m m m m m m m m m m m m m m m m m m m m m m m m n m m n m m k k k m k k f f s s i s e 3 ",
"2 t k m m N B C D L L L I I T T I I U U W W W R W W W R T T R ! W W W T W W R R T T T T E I E T T T I I I J J J D C B m m k t 2 ",
"3 g V J E / / | $.*.,.1.1.1.4.3.4.3.6.6.4.4.4.1.4.4.4.4.4.4.4.4.4.4.4.4.4.2.4.4.1.4.3.6.3.6.3.3.4.3.3.4.1.,.,.+.} { / T J C s 2 ",
"3 f J T / ' { $.:.3.4.6.7.9.9.7.r.r.8.8.r.r.9.9.9.9.9.9.w.t.w.w.w.w.9.9.w.w.w.9.9.9.9.9.r.r.9.9.9.9.7.4.6.4.3.:.%.{ ` / U G g 2 ",
"2 s m M B C C J T T W ' / ' [ ' [ [ [ ` { { ' ' ' ' ' ' ] ] ] ' ' ' ' ' ] | ' ' ' [ [ ' [ [ ' ' ' ' [ / ' ! W I K C B B m m s 2 ",
"3 3 0 3 3 0 0 w r t t t t t t t t e t t t t t t t i t t t t t t t t i t t t t t t t t t t t t t t t t t t t t e r 0 0 3 0 0 3 2 ",
"3 1 ; & - ; ; 2 2 2 2 < 1 2 ; 3 3 3 1 < < 2 3 2 3 3 3 1 3 < 3 < 3 2 3 2 3 2 2 2 3 3 3 3 3 3 2 2 2 ; 2 2 2 2 2 2 1 ; ; = & ; ; 2 ",
"1 0 0 0 0 r e i t i s s s s f g s f g g g h h g s g g g g g s g h s g h h g g g g s g g g s g j g g s s i s s t u t r 0 0 0 0 3 ",
"1 e s s j f v v m m m m m M B B M N N N B N B B M V V M M V N V V V B V B B M B M N V B N N B N B B M M m m m m n k k g s s r 2 ",
"2 i m N C J I T ! ' [ [ | { | | | | |  .o.o.| o.| o.| | | o.| #. .| o.| o.o.o.| | | | ....[ ..[ ..{ { ] ' / ' ! E T J C B m a 2 ",
"2 g D T ~ { | @.:.3.4.6.7.4.9.9.7.7.t.7.w.w.t.7.9.9.9.9.w.w.9.w.w.w.w.w.r.r.r.r.9.9.r.9.r.9.7.r.9.9.4.7.4.4.3.:.%.{ { / E C j 3 ",
"3 g C I W ! ' | $.*.1.3.3.4.4.4.6.6.6.4.4.7.4.4.4.4.4.4.4.4.4.4.4.4.7.4.6.3.6.6.3.9.9.3.3.6.3.6.4.4.4.4.1.1.:.&.} / / W I G j ; ",
"3 w g g f k v m M N B D C C C V V V V C C C V C D C V D D C D V C D D V C C C C V C C B C C V C D C C V V V M M m k k f f j t 3 ",
"2 3 ; ; ; < 2 2 3 7 9 3 3 3 3 3 3 3 0 3 3 3 8 3 4 8 3 3 8 3 3 3 3 3 8 3 9 3 9 3 7 9 3 7 3 7 3 3 3 3 3 7 3 7 3 3 3 > ; ; ; ; 3 ; ",
"3 3 2 ; ; < 3 3 0 7 7 7 0 7 0 0 0 0 0 0 0 0 0 0 0 8 0 0 0 0 0 0 0 0 0 0 0 0 0 0 0 0 0 7 9 0 0 0 0 8 3 7 7 9 8 8 0 3 ; ; ; > 3 3 ",
"3 0 t t t s g g f j k f k k k k n v k k b b k k v v b v b b k m v v b b k k l k v v v v v v k v v m k k k f k f f f f t t t r 3 ",
"1 e f k k m m M V V V C C D G G C G J G J D J J J D D J D D L L J L D L D J L D D G D J D D D S D D D G C C V B m m m k k f t ; ",
"2 s V D I E / ' | @.@.*.;.*.:.:.,.,.,.,.,.,.:.:.;.1.,.;.;.1.:.1.1.:.2.*.,.:.1.1.:.1.1.1.:.$.1.:.,.*.&.:.&.o.@.o.' / T I J B s 2 ",
"3 h L T / ' | @.,.4.4.7.9.9.r.r.t.r.t.t.t.t.t.r.w.t.t.w.w.t.w.u.w.w.w.t.w.w.t.w.w.r.r.t.t.t.9.r.w.9.r.7.7.4.3.,.&.{ { / W J j 3 ",
"2 g B C J J I T ' ] | @.@.$.$.$.$.&.*.*.-.*.&.@.&.&.&.&.*.;.*.*.*.&.*.&.;.#.&.&.$.*.*.$.$.$.$.$.&.&.&.@.@.o.[ ' ~ I J J C B f 3 ",
"2 0 e 0 e e t f f g g g g g g g f f g g h f f j h f f g h j h g h g h h h f h j j j g g j j g h f j j g g g g s s t t 0 r r 0 ; ",
"3 1 ; & & ; ; 1 ; < ; < < < < < > 3 ; 1 > 3 2 2 3 > 2 2 1 < 2 2 1 1 2 2 2 2 2 2 2 2 < < 2 2 2 2 1 ; 2 < < < ; < ; : ; & & ; 2 ; ",
"2 7 0 3 3 0 0 w e t e w t t i i t s t i i i a i i u i p i i p i i i i i i p t p i i i a i i i i i i t r 0 t t t t 0 0 3 3 5 5 2 ",
"2 0 a a s g k k v n n m m m m m m m m m m M M m m N m M m M M m m M M m m N m m M n M n M n M n n M n n v m n k h f f s s s r 2 ",
"2 i v m M C D J P E E E T ! / ~ / W / ~ ' / ' ! ' ' ' / / ! / ' ' ' ' ' / ' ] ' ' ' ' ' ' ' E ' E ' ' E E E E T L J C B m k t 2 ",
"2 g C I E / [ ..$.1.3.3.4.4.4.3.4.7.7.7.7.6.4.4.4.4.4.7.4.7.7.7.9.4.4.7.4.4.7.4.6.6.3.4.6.6.6.6.6.4.6.6.3.1.1.$.@.{ ' W U C g 3 ",
"3 f J R ! ' [ o.&.3.4.4.4.9.9.9.r.4.r.r.r.9.9.7.4.9.9.9.w.w.9.w.9.9.9.9.w.w.w.7.r.r.9.r.9.9.6.9.9.9.9.6.6.4.1.*.&.[ / / E J g 2 ",
"3 t l m m M M C J J J T T T E T E E E E E ~ E E R E R R W W W W R R R W R W W E E E E E E E T T E T T T T P L D C M m m m n t 2 ",
"3 3 3 3 3 3 7 0 0 0 w 0 w w 0 w 0 t 0 0 0 0 w w w 0 0 w w w 0 w 0 0 e r 0 0 0 0 0 0 0 9 0 0 9 w 0 0 w 0 0 w 0 0 0 3 3 2 3 3 3 2 ",
"3 2 ; - - ; < 3 3 3 3 3 3 3 3 3 3 3 3 3 7 3 3 3 3 7 3 7 3 7 3 3 3 3 3 6 3 0 3 3 3 7 7 3 7 7 7 7 7 3 3 3 3 3 3 3 2 > ; ; ; ; 2 3 ",
"3 0 r w e t i f s s s s f g g g k f f k k f k f g g k h k h h k k f f k k f k h j k f k j v g j k g g g s s d g f t t e e w 0 2 ",
"< w s h j v v m M M M M M B V V V C B C V C C C C D C C V D V D J C D C M D C C C C C B V B B V V V M M M M M m m m k f h f r > ",
"1 p M B D I I T ' { | { #...@.@.@.o.+.+.&.@.@.@.$.$.@.@.@.#.#.*.&.&.@.@.*.@.#.#.o.&.$.#.$.$.$.[ @.@...@...| { ' I W U J C m i 3 ",
"3 g D T ! [ | @.*.1.4.4.7.9.9.9.9.r.8.t.r.r.9.9.9.9.9.9.w.w.w.w.w.9.9.9.t.9.w.r.9.9.9.9.r.r.r.9.9.9.9.6.6.4.3.,.%.} { ~ U C g 3 ",
"< f C J I E / / | &.1.,.1.3.3.3.3.3.4.4.4.4.,.,.4.1.1.4.2.4.4.2.4.1.1.2.2.2.4.3.1.3.3.3.3.3.1.3.1.1.1.,.1.;.&.o.[ / E P K C s 3 ",
"< 0 f s s s f f v n M m m m m m m m m m M m m m m m m m m m m m m m m M m m m m n M m m n M M n m m m m m m b k k f s s s a r 3 ",
"3 < ; - ; ; 1 < 3 3 3 2 3 3 2 3 2 3 3 3 3 2 3 3 3 3 3 3 3 3 < 3 3 3 3 3 3 3 3 3 3 3 3 3 7 3 3 3 3 3 2 3 2 2 2 < 2 < ; ; ; ; > 2 ",
"3 3 3 < 2 3 7 0 0 9 0 0 0 0 0 w w r 0 0 r r r e w w e e e e w w 0 e e w e e e w r w w r 0 r r 0 w 0 w 0 0 0 0 0 0 7 3 2 2 3 3 2 ",
"3 0 i t s s s f f h k k k v m m m v m m n m m k m m m m m b m m m m v m m m m v m v m m n v m n n v v v k k k k h h s i t t r 2 ",
"< t k v m M m C D L A J J P J J J L J P I I I I I P I J T L L R L I T I J T L T L I J L T L L P P T J J J J C C C B m m x k t 2 ",
"< s N J I W ' { o.#.:.,.1.,.1.3.3.3.4.4.3.4.3.1.1.4.,.2.4.2.2.4.4.1.4.2.4.1.6.3.1.1.3.4.3.1.3.3.1.1.1.,.,.&.&.o.[ ` ~ U J C s 2 ",
"3 h D R / [ | o.&.4.4.7.7.7.9.9.r.r.w.t.t.t.r.9.9.9.w.9.u.u.w.t.w.9.9.w.w.9.q.q.9.r.r.r.r.r.q.q.9.7.9.9.8.6.3.,.+.} ` ~ E G j 2 ",
"3 s m B C D J T R / ' ] { [ o...| | | | } o...| | | | | |  .{  .| | | | | @.| ..[ | $.[ ....[ | | | { | ] ] / W U J C C B m s 2 ",
"< 8 0 0 0 0 e t t i p i f t a a a i a a a a a a p s i s s p s t i i i i a a s t a a a a a a a a s p s i p i i t r r 0 0 0 0 5 2 ",
"2 1 ; = - ; ; ; 2 2 < < < < ; 3 2 1 2 < 2 2 2 2 2 1 2 2 3 4 4 4 0 4 8 8 3 3 2 3 2 3 2 3 2 3 2 2 < ; 2 < < < 1 1 > ; * & & ; 3 ; ",
"3 0 0 3 0 0 w t i i i i i s a s a s s s a d s s s s s s l c c c c c c l s s a s a s s s a s s a s p s i i i t i t r 0 0 0 0 0 3 ",
"< w s s f k k v z m m m m m N N m M N N N N N N N N V J x d q : 4 u 4 4 D V M M B M M B B B M M M M m m m m m m v k h j f s 0 ; ",
"< t v M V D G T T ! W / / / ] { [ ` [ [ [ } ..[ { ] O.O.0 # o   . # X o O.o.{ ( [ [ [ [ [ [ ' [ ' { ' ' ~ ` W W I P C C M m t > ",
"3 g S I ! ' | @.&.1.6.4.6.6.7.7.r.7.8.9.r.8.8.6.9.9.w.O.O         .   # ;.w.w.w.9.9.9.7.q.9.9.9.7.7.7.6.4.4.1.&.+.} ` W I D j 2 ",
"3 g S T T ! [ | &.,.1.4.6.6.6.4.6.6.6.9.8.7.6.6.4.7.4.,.d q y y u u u l ;.4.4.7.3.6.7.9.r.4.3.6.7.4.4.4.4.,.:.&...` / E U G f 3 ",
"2 t k k k n m B M D D G J G P G D G J J J J J J J L L L _ ) ) _ ) ) _ ( I J J J J L G P J J J J J J J D J D S M M m v v k k t 3 ",
"3 4 3 2 3 3 9 9 0 0 0 0 0 0 0 0 0 0 0 0 0 0 0 0 0 0 0 w 0 0 0 e 0 r 0 0 q 0 q 0 0 0 0 0 0 0 0 0 0 0 0 0 0 0 0 0 0 7 3 3 2 2 5 3 ",
"% % # $ $ $ % % % % % $ # $ $ $ $ $ $ $ $ $ $ $ # $ $ $ % % % % % % $ % $ # # # $ $ $ $ $ $ $ $ $ $ $ # $ $ $ $ # # # # $ # % % ",
"+ + + + @ @ @ @ @ @ @ + + + @ @ + O + + + @ # + + + @ + @ @ @ @ @ $ # $ + + + + + + O + + + @ @ # + + + + + + + + + + @ @ # @ + "
};
