/* XPM */
static char *Tw__[] = {
/* columns rows colors chars-per-pixel */
"64 64 16 1 ",
"  c #B68604",
". c #B78A1F",
"X c #B88F33",
"o c #B99343",
"O c #BA9752",
"+ c #BA9C5F",
"@ c #BBA06B",
"# c #BCA477",
"$ c #BDA881",
"% c #BEAC8C",
"& c #BFAF96",
"* c #C0B39F",
"= c #C0B7A8",
"- c #C1BBB1",
"; c #C2BEBA",
": c #C3C2C2",
/* pixels */
"::::::::::::::::::::::::::::::::::::::::::::::::::::::::::::::::",
"::::::::::::::::::::::::::::::::::::::::::::::::::::::::::::::::",
"::                                                            ::",
"::                                                            ::",
"::                                                            ::",
"::                                                            ::",
"::                                                            ::",
"::                                                            ::",
"::                                                            ::",
"::                                                            ::",
"::                                                            ::",
"::                                                            ::",
"::                                                            ::",
"::                                                            ::",
"::                         ##;:::::%#o                        ::",
"::                        ##=:::::::::=@                      ::",
"::                      X##@ X%:::::::::*X                    ::",
"::                    +-:::::$ o=:::::::::O                   ::",
"::                   %::::::::-o $:::::::::+                  ::",
"::                  %::::::::::-X @:::::::::o                 ::",
"::                 #::::::::::::*  #::::::::-                 ::",
"::                X;:::::::::::::+  &::::::::#                ::",
"::                %:::::::::;#X  .  X;:::::::;.               ::",
"::               .;::::::::*.        #::::::::@               ::",
"::               @::::::::-.         .::::::::*               ::",
"::               &::::::::O           &::::::::.              ::",
"::               ;:::::::=            @::::::::+              ::",
"::              .::::::::$            o::::::::#              ::",
"::              o::::::::+             ;:::::::$              ::",
"::              O::::::::o             *:::::::%              ::",
"::              @::::::::X             %:::::::*              ::",
"::              @::::::::X             %:::::::*              ::",
"::              O::::::::o             *:::::::&              ::",
"::              o::::::::+             =:::::::%              ::",
"::              .::::::::$            .::::::::#              ::",
"::               ;:::::::=            @::::::::+              ::",
"::               &::::::::O           *::::::::.              ::",
"::               @::::::::-.         #::::::::*               ::",
"::               .;::::::::*.       @:::::::::@               ::",
"::                %:::::::::;#X   @*:::::::::;.               ::",
"::                X::::::::::::::::::::::::::#                ::",
"::                 #::::::::::::::::::::::::-                 ::",
"::                  =:::::::::::::::::::::::o                 ::",
"::                  .=:::::::::::::::::::::+                  ::",
"::                   .=:::::::::::::::::::O                   ::",
"::                     #::::::::::::::::=o                    ::",
"::                      X%::::::::::::=@                      ::",
"::                         ##;:::::%#o                        ::",
"::                                                            ::",
"::                                                            ::",
"::                                                            ::",
"::                                                            ::",
"::                                                            ::",
"::                                                            ::",
"::                                                            ::",
"::                                                            ::",
"::                                                            ::",
"::                                                            ::",
"::                                                            ::",
"::                                                            ::",
"::                                                            ::",
"::                                                            ::",
"::::::::::::::::::::::::::::::::::::::::::::::::::::::::::::::::",
"::::::::::::::::::::::::::::::::::::::::::::::::::::::::::::::::"
};
