/* XPM */
static char *Uw__[] = {
/* columns rows colors chars-per-pixel */
"64 64 16 1 ",
"  c #93313D",
". c #96404A",
"X c #9A4D55",
"o c #9D5960",
"O c #A1646A",
"+ c #A46E74",
"@ c #A7787D",
"# c #AA8185",
"$ c #AE8A8E",
"% c #B19396",
"& c #B49C9E",
"* c #B7A4A5",
"= c #BAACAD",
"- c #BDB3B4",
"; c #C0BBBB",
": c #C3C2C2",
/* pixels */
"::::::::::::::::::::::::::::::::::::::::::::::::::::::::::::::::",
"::::::::::::::::::::::::::::::::::::::::::::::::::::::::::::::::",
"::                                                            ::",
"::                                                            ::",
"::                                                            ::",
"::                                                            ::",
"::                                                            ::",
"::                                                            ::",
"::                                                            ::",
"::                                                            ::",
"::                                                            ::",
"::                                                            ::",
"::                                                            ::",
"::                                                            ::",
"::                         o#&::::::=##X                      ::",
"::                       O=:::::::::::::-@                    ::",
"::                      $:::::::::::::::::*                   ::",
"::                     #:::::::::::::::::::$                  ::",
"::                    O::::::::::::::::::::;                  ::",
"::                    -::::::::::::::::::::;                  ::",
"::                   O:::::::::::::::::::::&                  ::",
"::                   $:::::::::::::::::::::o                  ::",
"::                   =::::::::$o    O#&::=O                   ::",
"::                   -::::::;o                                ::",
"::                   -::::::o O                               ::",
"::                   =:::::# $:::$#                           ::",
"::                   $:::::.X:::::::%O                        ::",
"::                   +::::= #:::::::::*o                      ::",
"::                    -:::% =:::::::::::#                     ::",
"::                    +:::% -::::::::::::*                    ::",
"::                     #::& =:::::::::::::&                   ::",
"::                      @:; #::::::::::::::#                  ::",
"::                       o*O.-:::::::::::::;X                 ::",
"::                         X X*:::::::::::::#                 ::",
"::                              ##::::::::::=                 ::",
"::                                 @:::::::::.                ::",
"::                                  @::::::::X                ::",
"::                                  O::::::::o                ::",
"::                    $::-#+        $::::::::X                ::",
"::                   #:::::::-#####=:::::::::                 ::",
"::                   ;::::::::::::::::::::::=                 ::",
"::                  X:::::::::::::::::::::::#                 ::",
"::                  o::::::::::::::::::::::;.                 ::",
"::                   ;:::::::::::::::::::::+                  ::",
"::                   #::::::::::::::::::::#                   ::",
"::                    #::::::::::::::::::@                    ::",
"::                     X#::::::::::::::%X                     ::",
"::                        o##::::::=##                        ::",
"::                                                            ::",
"::                                                            ::",
"::                                                            ::",
"::                                                            ::",
"::                                                            ::",
"::                                                            ::",
"::                                                            ::",
"::                                                            ::",
"::                                                            ::",
"::                                                            ::",
"::                                                            ::",
"::                                                            ::",
"::                                                            ::",
"::                                                            ::",
"::::::::::::::::::::::::::::::::::::::::::::::::::::::::::::::::",
"::::::::::::::::::::::::::::::::::::::::::::::::::::::::::::::::"
};
