/* XPM */
static char *result[] = {
/* columns rows colors chars-per-pixel */
"64 64 229 2 ",
"   c #030302",
".  c #0A0806",
"X  c #0D0B0A",
"o  c #110D0C",
"O  c #13110F",
"+  c #1E140F",
"@  c #100F10",
"#  c #1D0D1A",
"$  c #131212",
"%  c #191614",
"&  c #181817",
"*  c #1C1B1C",
"=  c #210F1C",
"-  c #23101D",
";  c #231E1B",
":  c #28241F",
">  c #3E281E",
",  c #2A1626",
"<  c #2F1828",
"1  c #311929",
"2  c #371C29",
"3  c #262624",
"4  c #2B2622",
"5  c #2E2A24",
"6  c #2D2C2C",
"7  c #312C26",
"8  c #3C2C24",
"9  c #3D262B",
"0  c #322E2C",
"q  c #34322C",
"w  c #3C322C",
"e  c #312F30",
"r  c #343332",
"t  c #3D3733",
"y  c #3B3B3A",
"u  c #422A1E",
"i  c #432E25",
"p  c #472A28",
"a  c #4E2A2E",
"s  c #4B3224",
"d  c #44332B",
"f  c #483429",
"g  c #4C352B",
"h  c #523427",
"j  c #53392C",
"k  c #5B3C2D",
"l  c #483B34",
"z  c #573C34",
"x  c #633F2C",
"c  c #663638",
"v  c #773D3E",
"b  c #3F4035",
"n  c #5F432F",
"m  c #444239",
"M  c #4B453C",
"N  c #4E4A3F",
"B  c #544134",
"V  c #5C4234",
"C  c #54443B",
"Z  c #5B453B",
"A  c #59493E",
"S  c #6A422F",
"D  c #644434",
"F  c #6A4533",
"G  c #6C4836",
"H  c #63463B",
"J  c #674838",
"K  c #654A3D",
"L  c #6C4C3B",
"P  c #744A36",
"I  c #784937",
"U  c #734D3C",
"Y  c #7A5037",
"T  c #74513E",
"R  c #7A523E",
"E  c #7B3E40",
"W  c #464747",
"Q  c #4E4541",
"!  c #4E4B42",
"~  c #524D43",
"^  c #5A4A43",
"/  c #544D4A",
"(  c #585247",
")  c #5D534C",
"_  c #595655",
"`  c #654D43",
"'  c #6B4E42",
"]  c #754942",
"[  c #645144",
"{  c #6C5244",
"}  c #64544B",
"|  c #6C544A",
" . c #6D594E",
".. c #735343",
"X. c #7A5544",
"o. c #745A4C",
"O. c #785848",
"+. c #7C5B4B",
"@. c #645A56",
"#. c #6C5B53",
"$. c #745D52",
"%. c #755B55",
"&. c #7C5E51",
"*. c #7E614F",
"=. c #68615B",
"-. c #7C6254",
";. c #756458",
":. c #74645C",
">. c #7B655B",
",. c #7C695D",
"<. c #74715E",
"1. c #666665",
"2. c #6C6968",
"3. c #766A66",
"4. c #7C6B63",
"5. c #797567",
"6. c #7D716C",
"7. c #6F7073",
"8. c #747374",
"9. c #7C7674",
"0. c #7B7876",
"q. c #7B7B7B",
"w. c #9A4D4A",
"e. c #85524A",
"r. c #825A48",
"t. c #A7534D",
"y. c #BA5C53",
"u. c #826354",
"i. c #866956",
"p. c #8C6856",
"a. c #83675A",
"s. c #846A5C",
"d. c #896C5D",
"f. c #BC6056",
"g. c #836D62",
"h. c #896E61",
"j. c #836F69",
"k. c #857165",
"l. c #8B7365",
"z. c #84736B",
"x. c #8A756B",
"c. c #86786E",
"v. c #8B7A6D",
"b. c #917468",
"n. c #92796D",
"m. c #827672",
"M. c #897773",
"N. c #847A75",
"B. c #8B7C73",
"V. c #847C7A",
"C. c #8B7E7A",
"Z. c #927D72",
"A. c #907D7A",
"S. c #C96558",
"D. c #8E8176",
"F. c #8C8B76",
"G. c #85817F",
"H. c #8D827C",
"J. c #97857B",
"K. c #93837C",
"L. c #A0887C",
"P. c #7E7D83",
"I. c #837E81",
"U. c #7F8084",
"Y. c #868586",
"T. c #8C8583",
"R. c #898789",
"E. c #8C8A8B",
"W. c #918682",
"Q. c #9A8780",
"!. c #948A84",
"~. c #9B8C85",
"^. c #948C8B",
"/. c #9A8E8A",
"(. c #9A928D",
"). c #8F8E92",
"_. c #939393",
"`. c #9B9492",
"'. c #959599",
"]. c #9A9699",
"[. c #9C9A9B",
"{. c #A58F84",
"}. c #A2958C",
"|. c #A39A95",
" X c #A79995",
".X c #A29C9B",
"XX c #A8A19C",
"oX c #B1A099",
"OX c #9D9DA1",
"+X c #A29FA2",
"@X c #9EA0A3",
"#X c #A4A2A4",
"$X c #ABA4A3",
"%X c #A9A7A8",
"&X c #ABA6A9",
"*X c #ACABAC",
"=X c #B3A9A6",
"-X c #B2ADAD",
";X c #ACADB2",
":X c #B1AFB0",
">X c #B3B1B1",
",X c #B3B2B3",
"<X c #BBB5B5",
"1X c #B7B6B9",
"2X c #BCB9BA",
"3X c #C2B8B5",
"4X c #BDBDC2",
"5X c #C2BEC1",
"6X c #BEC2C8",
"7X c #C6C5C6",
"8X c #C8C6C7",
"9X c #C3C5CB",
"0X c #C9C7C8",
"qX c #CCCACC",
"wX c #D1CFCF",
"eX c #CACBD4",
"rX c #D1CFD1",
"tX c #CDD2DD",
"yX c #D4D2D3",
"uX c #D5D4D9",
"iX c #D9D7D8",
"pX c #DBD9DA",
"aX c #E0DEDF",
"sX c #D8DAE0",
"dX c #E1DFE1",
"fX c #E5E4E5",
"gX c #E8E6E7",
"hX c #ECEBEB",
"jX c #F0EFF2",
/* pixels */
"].@.} E._._.'.'.).W.} Q _.).E.` n | ,.5.m.4.4.$.l @.E._.m.Z m.Y.E.Y.R.R.R.I.p 8.).)._ @.Y.Y.R.I.P.P.P.#.g V.E.V.` #.6.k.z.k.4.6.",
"@.) E.).'.'.'.`.).4.d I.[.W.} z o.;.;.:.4.:.| H l 0.E.9.C 3.I.T.P.Y.R.P.P.1./ '.E.1.@.Y.I.I.P.I.Y.I.9.z 7.).T.$.{ z.N.0.4.z.m.j.",
"#.T..XE.I.].'._.^.#.Q _.C.} K <.k.} K o.o.| ' d ) Y.:.C #.q.q.6.V.T.I.I.P.l 2.I.@.=.U.R.I.V.Y.I.P.P.>.d Y.V.| O.C.m.;.3.,.s.5.-.",
"_.'._./ r Q m.W.E.3.W.I.#.#.c.m. .l 8 j J ' { } ^.>.^ 4.m.C.2.0 d @.V.q.P.Y.E.=.3.E.U.R._ y / 8.I.Y.6.H.N.T X.6.q.j.M 8 V r.g.,.",
"[.OXI./ ^._ 5 @.!._.4.4.C.V.m.<.K <.7.M i Z T ,.$.#.6.0.V.G.} 1.2.0 C q.8.).9.V.E.U.U.U._ 7._ w ) 0.0.C.>.>.k.m.6.o.$.3.B i o.4.",
"OXOX].) R.,XY.9 ^ N.6.6.N.T.m.#.o O % O O . X O % % & & % & % O * * X X & & & & & & & & & $ & & X ^ 9.9.c.z.z.M.m.&.O.V.9.} i { ",
"OXOX+X3.) +X;XI.5 @.6.c.N.C.@.W _.Y.Y.Y.Y.Y.Y.Y.Y.Y.Y.Y.Y.Y.E._._._.R.Y.Y.Y.Y.Y.R.Y.Y.Y.Y.Y.Y.Y.2.; ) k.>.j.z.m.m.d.Y ,.6.c.=.i ",
"+X+X'.^./ 2.&X+X7.8 4.c.N._ 1.&XhXfXgXfXgXgXfXfXgXgXgXfXgXhX*X7.2.8.rXhXgXfXgXgXfXfXgXgXgXgXgXfXqX8.r X.r.d.m.m.V.g.R U g.z.q.} ",
"].OX^..XT.} 9.+X+X/ ^ 4.j.. [.hXiXiXpXiXpXpXpXiXpXpXpXiXpXgX1.  $   ;XfXiXpXpXpXiXpXpXiXiXpXiXpXpX7X7 h X.d.z.H.V.g.-...r.n.3.m.",
"[.&X_.).#XH.` 3..XY.d %.m.$ _.fXpXpXiXpXpXiXpXiXiXiXpXpXpXgX1.  3   ,XpXpXiXiXpXpXiXiXpXpXpXpXpXiX2Xr i r.a.g.x.s.X.a.6.X.r.>.m.",
"(.@.t _ '.[.C. .#.!.:.} C.$ _.fXpXiXiXpXpXiXpXpXpXpXiXpXpXfXE.b y y 2XfXpXpXpXpXpXiXpXpXpXiXpXpXiX2Xr #.T u.u.T z > Z ,.-...+.h.",
"y _ R.) ).#XOX^.6.;.N.3.,.. _.fXpXiXpXpXiXpXpXiXpXiXpXpXpXpXpXaXpXpXpXiXiXpXiXiXiXpXpXiXpXpXpXpXiX2X7 b.u.r.G h } 1.j O.,.a.c.+.",
").4X)._ +X%X+X^.`.T.6.>.l . _.fXiXpXpXiXpXiXiXpXpXpXiXpXsXpXpXpXpXpXpXpXpXpXiXpXpXpXpXiXpXiXpXpXiX2X0 k.r.D j 6.!.2.x u.z.9.V.h.",
":X,X} M.%X#X+X^.[.E.z.l / % _.fXpXiXiXpXpXpXpXpXiXpXiXpXiXiXpXpXpXpXpXpXpXpXpXpXpXiXpXiXpXpXpXpXiX2Xr k.S Z Y.H.M.H ..z.c.N.Y.V.",
"[.6.` C.&X#X#X(.+X^.| l ^.$ _.fXpXpXiXpXiXpXpXiXpXiXpXpXiXiXiXiXpXpXpXpXpXpXiXiXiXiXpXpXiXpXpXpXuX2X0 &.j V.^.T.| ' k.c.c.z.C.V.",
"j.' K.[.&X+X[.W.].H.g 6..X$ _.fXiXpXpXpXiXpXpXiXpXpXpXiXiXfXfXfXgXgXgXpXpXpXpXpXpXpXiXpXpXiXiXpXiX2X0 D ;.'.^.s.L j.B.c.V.B.N.N.",
"` g.(.`./..X^.T.^. .l N.K.o _.fXiXiXpXiXpXpXpXiXiXiXpXpXgX0._ _ _ _ _ %XiXpXpXpXiXpXpXiXiXpXpXpXiX2X7 j I.^.>.P u.H.j.h.C.M.j.&.",
"o.c.W.=.l  .M.4.4.Z g.g.` . _.fXiXiXpXiXpXiXpXpXiXiXaXiX7.N b b b b O r Y.qXiXpXpXpXiXpXpXpXpXpXiX2X0 j.n.O.P +.k.M.C i  .M.s.j.",
"&.x.h.#.9.~ > | C.o.+.V z X _.fXpXpXpXpXiXpXiXpXpXaX7Xq.& =.5.5.5.<.b   b 4XpXpXiXpXiXpXpXiXpXpXiX2Xr l.U X.u.h.h.O.@.2.l z -.M.",
"-...U { `.=X8.8 3.o.H [ J o _.fXpXiXiXpXpXpXiXpXiXfX_.  N N N N m 3 5 . W 2XqXiXpXpXpXpXiXpXpXpXiX2X0 -.&.n.x.c.c.>.&.!.)./ 8 &.",
">.+.+.S p.A.#X3.8 V K $.{ X ).fXiXpXpXpXpXpXpXiXpXgX[.  N N N N ! 7 7   W 2X*XwXpXpXpXpXpXpXiXpXiX2X0 -.k.C.c.v.C.K.{ j.'.'.1.i ",
"4.o.u.P Y ~..X~.B u K { K o _.fXpXpXiXiXiXpXpXpXpXaXE.. N N N N M 7 q   W 1X>XwXpXpXpXpXiXpXpXpXiX2X6 +.d.B.K.T.W.T.*.X.^.'.'./ ",
",...r.X.I R Z.l.| 8 z { K X _.fXpXiXpXpXiXpXiXpXgXU.& N N N N m 7 5 0   W 2X-XwXpXpXpXiXpXiXpXpXiX2X7 h r.T.^.A.H.W.x.X.&.E.E.T.",
">.Y ..T U F R p.s.C d K { O _.fXpXpXiXpXpXpXiXpXgX5.X N N N N m : 5 7 . W 1X-X>XqXpXiXpXpXpXpXpXiX2Xr > &.!.H.c.v.d.h.z.X.u.m.W.",
"+.k s n Y U S L r.g.Z V ;.X _.fXiXiXpXpXpXpXiXiXgX8.X ~ N N N m 7 7 7 . W 2X;X*X7XpXpXpXpXpXpXpXiX2Xr ) >.C.g.i.K f ( k.d.o.T l.",
"h Z } j F L J J J ' -.,.T X _.fXpXpXpXiXiXpXpXpXjXq.  N N N N b 5 5 7   W 2X>X*X<X0XpXpXpXpXpXpXiX2Xe /.H.h.F s ! =.z +.d.k.s.+.",
"#.Z.k.x S L L O.{ { | ,.n . _.fXpXpXpXiXpXpXiXhXY.! =.<.<.F.( 7 5 5 7 . W 1X>X>X*X2XpXpXpXpXpXpXiX2Xe T.B.' i 4.@XG.V p.x.l.H.k.",
"J.l.o.S F T L { s.u.o.z i o _.fXiXiXpXpXpXpXuX_.N @.}.F.F.<.N : 5 5 7   W 2X>X*X*X6XaXpXpXiXiXpXiX2Xr W...s >.J._.} ..l.k.B.M.u.",
"h.X.n I F P L T ..T ..g 4.$ _.fXpXpXiXpXpXpXrXX N F.<.5.5.b : 5 5 5 7 . W 2X;X*X*X2XyXpXpXpXpXpXiX2X0 g.f %.i.x.;.K d.c.z.x.B.a.",
"d.P F P F F G T L P s 3.~.O _.fXpXiXpXpXpXaXrX& 3 N N N N q 5 5 5 7 7   W 2X>X>X,X*X<XpXpXpXpXpXiX2Xr z :.!.h.&.` -.s.x.l.g.a.s.",
"' F P D D F F T T S B !.J.O _.fXpXpXiXiXpXaXwX& 7 ~ N N N q 5 5 5 5 7 . W 2X*X>X:X*X<XyXiXiXpXpXiX2X0 s ]./.u.G &.x.r.s.x.s.+.+.",
"L X...h s z D G G D :.B.o.X _.fXiXpXpXpXpXpXwX% 7 N N N N q 5 5 5 5 7   W 1X>X>X:X:X-X,XyXpXpXpXiX2X0 ) T.+.P +.a.z.V B &.u.r.U ",
"-.L D K f u h F L +.k.` F X _.fXiXpXpXiXpXaXwX& q N N N N q 5 7 5 5 7 . W 2X;X>X*X,X*X,XyXpXpXpXiX2Xr ~...P +.+.o.' [ / d z r.+.",
"c.*.G U { L s p ` ;.#.| o.X _.fXpXiXpXpXiXpXwX& q ( N N N q 5 7 5 7 7   W 2X>X;X>X,X>X,XyXpXpXpXiX2Xq H.x.x.i.i.&.L o.}.^.l h +.",
"N.;.o.D O.+.L j u ` >...K X _.fXpXiXpXpXpXpXwX$   X O & $ X X . X 5 7 . W 2X*X>X,X*X-X,XuXpXpXpXiX2Xq W.^.Z.h.d.h.-.J D.%XW.Z h ",
"/.4.z. .{ u...+.z s o.X.K o _.fXiXpXpXpXpXpXiX@X_.[.1.  q q q q q 7 7   W 2X0X>X>X*X*X,XyXpXiXpXiX2X6 k.B.b.(.b.4.j.L K ].~.Z.l ",
".XA.Z.B.` o.u.+.| 8 k T { o _.fXpXpXpXiXiXpXpXfXfXjX[.  ~ ( ~ ~ N 5 7   W 4XiXqX0X0X0XqXpXpXpXpXiX2X6 J x.d.Z.g.g.c.-.L ;.^.}.[.",
"`.C.M.K.c.J X.X.L C i K ` X _.fXpXiXiXpXpXiXiXpXpXaX1X/ 3 m ~ ~ ~ b q   b 4XpXpXpXpXpXpXpXpXpXpXiX2Xr 8 -.-.b.^.Z.h.[.^.| &.).&X",
"C.` d #.z...x U r.-.i V { X ).fXpXpXpXpXpXpXpXpXpXpXaXyX_ q : 4 5 5 & b U.0XiXpXpXiXpXpXpXpXpXpXiX2Xr l +.s.B.!.o.j 9..XK.L ..C.",
"z i ! C J T L D L -.{ D { X _.fXiXiXpXiXiXpXiXiXpXpXpXsXgX_ 6 6 6 6 7 *XhXpXpXpXpXiXpXpXpXpXpXpXiX2X0 B.C.g.n.z d ^ l 5.W.C.-.-.",
") W.(.Z o.K U X.L G L ..V . _.fXpXiXaXaXpXaXaXaXsXdXdXdXdXdXdXdXsXaXaXaXdXaXaXdXpXpXdXpXpXpXpXpXiX2X0 N.Q.i.i 1.#XT.z B.!.B.C.z.",
",X/.>.D b.o.{ &...L X.G g o _.fXpXpX0X7X7X7X7X7XeX5X5X9X7X0XqX9X0X0X0X7X9X9X5X0X0X0X0X0X7XyXpXpXiX2Xr ^.g.g I.4X:X| >._.`.k.c.C.",
"-Xc.n ] g...X.r.+.*.+.s 6.$ _.fXpXyXq @ $ $ $ $ $ @ @ @ @ @ @ @ $ $ $ $ @ $ @ @ @ @ @ @ X ].fXpXiX2Xr H.p :.9X9X^.V n.^.+XC.Z.^.",
"<X[ D i.}.k.+.] O.-.k  .{.$ _.gXpXyX* o - # - & - # # # # = = # # # # % # # # = - = = =   _.fXpXiX2Xy %.) .X5X.XD &.|..X:X.X`./.",
"| K B.h.h.a.u.&.o.T A J.!.O _.fXpXyX* - 1 1 < 1 , c w.t.w.9 c t.t.t.2 E t.t.t.9 < < < <   _.fXpXiX2Xr g :X9X`.K g.}.#X&X,X;X+XW.",
"L J.3Xo.K i.u.$.-.J ;.L.,.. _.fXpXyX3 # 1 < < < - E y.E S.a E y.c c < w.t.c E 2 < < < ,   '.fXpXiX2X0 Q #X6.` Z.#X.X3.j.$X:X+XJ.",
"K.|.D.~ / i x | J.D.d.r.P O _.fXaXyX* # 1 < < < , E w., S.a v f.E , - w.y.c < < < < < <   _.fXpXpX2Xr J.+.a.+X,X&Xx.Q W d m./.K.",
"<X=XJ.} <Xz.j p u.D.T P >.& _.gXpXyX* # 1 < < < , E y.E S.a ] S.e.< , w.y.E < < < < < <   _.fXiXiX2Xr Z.h.Q.8X5X%Xh.3.eX'.d Z `.",
"-XoXv.{ J.8X$XV s d.X.u.d.& _.fXpXyX: # 1 < 1 1 , a t.w.w.2 c E , < < E c , < 2 1 < 1 <   _.gXpXiX2X0 Q.(.`.eXuX4X}....XtX1XQ @.",
"$X-X~.T U yXwX=XA k R e.o.O _.fXpXyX* o - = - - , # # # # - # # # - - # # - - - - - - -   _.fXpXiX2X0 ~.!.oX7X4X;X:Xg.o.,X9X5Xd ",
">XXX~...S a.7X$XH.s G r.+.O _.fXpXuXr * ; * * * * * * * * * * * * * * * * * * * * * * * & [.fXpXiX2X0 %. X X:X5X9X5X.X..g.1XeX'.",
"XX~.`.|.s.L s.{. X3.h Y Y O _.fXpXpXuXyXyXyXyXyXyXrXyXrXrXyXyXyXyXyXyXyXyXyXyXyXyXyXyXwXyXuXpXpXiX2Xq p =X-X,X4X1X=X:XA.L n.2X4X",
"J.;.3._.K.r...r.L.Z.s Y Y o (.fXpXpXpXpXpXpXpXpXpXdXpXaXpXpXdXfXfXdXpXpXpXpXaXpXpXpXpXaXpXpXpXpXiX2Xr d W..X2X,XZ.| ~.=XQ.{ &.[.",
"} > t _ M.c.d.P Y p.R P r.o _.fXpXpXpXpXpXpXpXpXiXpXpXiXpXfXE.r y y 2XdXpXiXpXpXpXpXpXpXiXpXpXpXiX2X0 M.J.~.oX4.f W l J.1X/.&.+.",
"M '.#X( ~.XXc.+.R ..e.X.U . _.fXpXpXpXpXpXpXuXpXpXpXpXpXpXgX2.  3   ,XfXiXpXpXpXiXpXpXpXpXiXpXpXiX2X0 J.}.Z.j / 1X;Xz J.*X.X/.J.",
";X6XG.#.=X&X}.Z.+.O.R I j . ].hXpXpXpXpXpXpXpXpXpXiXiXpXpXgX1.  @   :XaXpXpXiXiXpXpXpXpXpXiXpXpXpX7X0 |.b.j 3.eXtX:.' <X:X=X.X X",
">X[.[ K.,X%X|.n.u.X.I k ;.#.=.%XhXgXgXgXgXfXgXfXfXgXgXgXgXhX;X2.2.8.rXhXfXfXgXfXgXgXfXgXfXfXgXfXrX8._  Xz @.eXeX[.z n..X&X<X&X+X",
"*X .;.%X,X=X|.J.k.X.x | oXJ.) M ^.Y.Y.Y.Y.Y.Y.Y.R.Y.Y.Y.R.Y.)._._._.E.Y.Y.Y.R.Y.Y.Y.Y.Y.R.R.Y.Y.2.l Z.&.^ ,XeX:X` r.%XqX:X:X<X=X",
";.J |.;X$X.X*XK.k.Y x g.D.Z.T K ; : 5 4 5 4 : + % q r 4 % : e 5 6 r y e 5 % * r e : % 5 3 r m t y Q.u.g '.5X*X) o.~.$X;X;X:X+X}.",
"T c.#XC.c.~.~.B.s.F #.~.h.{ U a.h.' &.3XqX=Xd.k 2.XXs.D o.XXK.;.k.XX;X%XJ.f @XXX{ ' Z.3XD.J.,X<XuX<Xh.Z ;XW.| A.$X_.c.~.+X5X4X|.",
"D.`.H.C l z ;.d.k.o.v.d.U L +.n.;.B d 2.}.g...o.D.3. .J.~.!.} t 8 [ }.$X!.k.c. .L v.=XJ.^ l l z.3X:XM.l.a.L ~.1X&Xm.l t } &XeX+X",
"]._.k./ '.5.8 j >.s.X.r.+.O.p.Z.| :.#X@.u G o.v.J.XX-X*X^.Z.Z T.+XC M W.XXJ.-.x.x.!.&XD.} ,XE.d ` }.3XK.u.Z.1X1X4Xn.@.#X3.d M.>X",
"#X`.K.` V.*XW.l j X.r.z.g.u.J.H.u.L .X-X;.u V B.,X4X2X,X}.B.:.6.9X7X1.d v.J.K.v.M.`.2X}.J ^.pX2X/ H =X X{.~.0XsXqX X' 2XjX.Xd W.",
"(.[.`.-.o.[.XXH.d n -.B.Z.l.n.D.Z.R j.*X.X>.u ...X1X1X2X.X^.(.$.(.9XfX9.i l.!.H.B.(.:X$Xj.` *XsXuXQ ` b.J.+XeXeXuX5Xg.j.dXuX9X8 "
};
